<?xml version="1.0" encoding="UTF-8" standalone="no"?>
<!-- Created with Inkscape (http://www.inkscape.org/) -->

<svg
   xmlns:dc="http://purl.org/dc/elements/1.1/"
   xmlns:cc="http://creativecommons.org/ns#"
   xmlns:rdf="http://www.w3.org/1999/02/22-rdf-syntax-ns#"
   xmlns:svg="http://www.w3.org/2000/svg"
   xmlns="http://www.w3.org/2000/svg"
   xmlns:sodipodi="http://sodipodi.sourceforge.net/DTD/sodipodi-0.dtd"
   xmlns:inkscape="http://www.inkscape.org/namespaces/inkscape"
   width="744.09448819"
   height="1052.3622047"
   id="svg2"
   version="1.1"
   inkscape:version="0.48.4 r9939"
   sodipodi:docname="rrr.svg">
  <defs
     id="defs4" />
  <sodipodi:namedview
     id="base"
     pagecolor="#ffffff"
     bordercolor="#666666"
     borderopacity="1.0"
     inkscape:pageopacity="0.0"
     inkscape:pageshadow="2"
     inkscape:zoom="5.1649539"
     inkscape:cx="642.74596"
     inkscape:cy="944.32715"
     inkscape:document-units="px"
     inkscape:current-layer="layer1"
     showgrid="false"
     inkscape:window-width="1366"
     inkscape:window-height="746"
     inkscape:window-x="-8"
     inkscape:window-y="-8"
     inkscape:window-maximized="1" />
  <metadata
     id="metadata7">
    <rdf:RDF>
      <cc:Work
         rdf:about="">
        <dc:format>image/svg+xml</dc:format>
        <dc:type
           rdf:resource="http://purl.org/dc/dcmitype/StillImage" />
        <dc:title />
      </cc:Work>
    </rdf:RDF>
  </metadata>
  <g
     inkscape:label="Layer 1"
     inkscape:groupmode="layer"
     id="layer1">
    <rect
       style="fill:#424242;fill-opacity:1;stroke:#000000;stroke-width:1;stroke-linecap:round;stroke-linejoin:round;stroke-miterlimit:4;stroke-opacity:1;stroke-dasharray:none"
       id="rect3939"
       width="24.642857"
       height="26.285715"
       x="461.09521"
       y="68.290756"
       ry="1.5152289" />
    <rect
       ry="1.5152289"
       y="69.385994"
       x="492.30951"
       height="26.285715"
       width="24.642857"
       id="rect3941"
       style="fill:#424242;fill-opacity:1;stroke:#000000;stroke-width:1;stroke-linecap:round;stroke-linejoin:round;stroke-miterlimit:4;stroke-opacity:1;stroke-dasharray:none" />
    <path
       style="fill:#432f1f;fill-opacity:1;stroke:#372e17;stroke-width:1px;stroke-linecap:butt;stroke-linejoin:miter;stroke-opacity:1"
       d="m 532.28571,95.124088 c 14.2381,-13.142858 18.61905,-18.071429 24.64286,-9.309524 6.02381,8.761904 7.66667,3.285714 15.33333,1.642857 7.66667,-1.642857 14.2381,-6.02381 15.88096,0 1.64285,6.023809 9.30952,7.119047 -1.64286,7.119047 -10.95238,0 -54.21429,0.54762 -54.21429,0.54762 z"
       id="path3943"
       inkscape:connector-curvature="0" />
    <rect
       style="fill:#676767;fill-opacity:1;stroke:#313131;stroke-width:0.96612978;stroke-opacity:1"
       id="rect3910"
       width="50.121593"
       height="33.501171"
       x="464.42422"
       y="151.9081"
       ry="2.2315636"
       transform="matrix(1,0,-0.12343527,0.99235263,0,0)" />
    <rect
       ry="2.2315636"
       y="155.0323"
       x="467.33719"
       height="25.740351"
       width="44.295624"
       id="rect3913"
       style="fill:#292929;fill-opacity:1;stroke:none"
       transform="matrix(1,0,-0.12343527,0.99235263,0,0)" />
    <rect
       ry="1.0648574"
       y="181.18184"
       x="441.02072"
       height="4.2594466"
       width="51.618343"
       id="rect3915"
       style="fill:#676767;fill-opacity:1;stroke:#313131;stroke-opacity:1" />
    <path
       style="fill:none;stroke:#000000;stroke-width:1px;stroke-linecap:butt;stroke-linejoin:miter;stroke-opacity:1"
       d="m 486.00623,183.20213 4.45309,0"
       id="path3917"
       inkscape:connector-curvature="0" />
    <rect
       style="fill:#464526;fill-opacity:1;stroke:#313131;stroke-opacity:1"
       id="rect3890"
       width="31.696426"
       height="5.625"
       x="545.35718"
       y="172.80862"
       ry="1.0714285" />
    <path
       style="fill:#c7569a;stroke:none;stroke-width:1px;stroke-linecap:butt;stroke-linejoin:miter;stroke-opacity:1;fill-opacity:0.7393617"
       d="m 484.28572,164.68361 c 1.42857,2.5 20,2.32143 21.07142,0.53571 1.07143,-1.78571 0,19.28572 0,19.28572 -0.27483,1.1087 -13.57143,0.35714 -20.35714,0.53571 l -1.42857,-1.42857 z"
       id="path4095"
       inkscape:connector-curvature="0"
       sodipodi:nodetypes="cscccc" />
    <path
       style="opacity:0.36725664;fill:#8d904b;fill-opacity:1;stroke:none"
       d="M 49.75 133.125 L 49.75 171.8125 L 103.875 171.8125 L 103.875 133.125 L 49.75 133.125 z M 53.53125 137.15625 L 99 137.15625 L 99 167.46875 L 53.53125 167.46875 L 53.53125 137.15625 z "
       id="rect3908" />
    <rect
       style="fill:#bdbdbd;fill-opacity:0.48404254;stroke:none"
       id="rect3845"
       width="41.07143"
       height="6.4285712"
       x="179.27264"
       y="194.86218" />
    <rect
       style="fill:#bdbdbd;fill-opacity:0.48404254;stroke:none"
       id="rect3847"
       width="39.285713"
       height="6.0714288"
       x="183.55836"
       y="192.36218" />
    <rect
       style="fill:#bdbdbd;fill-opacity:0.48404254;stroke:none"
       id="rect3849"
       width="41.42857"
       height="2.8571429"
       x="179.27264"
       y="189.86218" />
    <rect
       y="191.62994"
       x="180.78787"
       height="2.8571429"
       width="41.42857"
       id="rect3851"
       style="fill:#bdbdbd;fill-opacity:0.48404254;stroke:none" />
    <rect
       style="fill:#bdbdbd;fill-opacity:0.48404254;stroke:none"
       id="rect3853"
       width="41.42857"
       height="2.8571429"
       x="179.77773"
       y="194.2816" />
    <rect
       y="192.76637"
       x="181.41922"
       height="2.8571429"
       width="41.42857"
       id="rect3855"
       style="fill:#bdbdbd;fill-opacity:0.48404254;stroke:none" />
    <rect
       style="fill:#bdbdbd;fill-opacity:0.48404254;stroke:none"
       id="rect3857"
       width="41.42857"
       height="2.8571429"
       x="179.77773"
       y="187.84187" />
    <path
       style="fill:#eadcc5;fill-opacity:1;stroke:#634e32;stroke-width:1.07922733px;stroke-linecap:butt;stroke-linejoin:miter;stroke-opacity:1"
       d="m 132.1694,169.31216 5.01039,-13.52084 8.97695,-0.88953 5.21915,21.17078"
       id="path3774"
       inkscape:connector-curvature="0" />
    <path
       style="fill:#f3f3f3;fill-opacity:1;stroke:#000000;stroke-width:1;stroke-miterlimit:4;stroke-opacity:1;stroke-dasharray:none"
       d="m 133.59854,166.09375 c -11.26639,0.2672 -16.39527,2.77839 -18.25,20.9375 l -4.625,45.46875 c -1.1799,11.55211 13.98154,21.65625 25.59375,21.65625 l 6.34375,0 c 11.61221,0 27.68211,-9.43392 26.34375,-20.96875 l -5.375,-46.15625 c -1.84215,-15.87689 -4.10895,-19.96027 -15.0625,-20.78125 -2.12224,2.08515 -4.58221,4.12226 -8.59375,5.9375 -2.83647,-1.32165 -4.72485,-3.58578 -6.375,-6.09375 z"
       id="rect3764"
       inkscape:connector-curvature="0" />
    <flowRoot
       xml:space="preserve"
       id="flowRoot2985"
       style="fill:black;stroke:none;stroke-opacity:1;stroke-width:1px;stroke-linejoin:miter;stroke-linecap:butt;fill-opacity:1;font-family:Sans;font-style:normal;font-weight:normal;font-size:40px;line-height:125%;letter-spacing:0px;word-spacing:0px;text-anchor:middle;text-align:center"><flowRegion
         id="flowRegion2987"><rect
           id="rect2989"
           width="647.14288"
           height="168.57143"
           x="57.142857"
           y="19.505039"
           style="text-anchor:middle;text-align:center" /></flowRegion><flowPara
         id="flowPara2991" /></flowRoot>    <flowRoot
       xml:space="preserve"
       id="flowRoot2993"
       style="font-size:40px;font-style:normal;font-variant:normal;font-weight:normal;font-stretch:normal;text-align:center;line-height:125%;letter-spacing:0px;word-spacing:0px;text-anchor:middle;fill:#000000;fill-opacity:1;stroke:none;font-family:Chewy;-inkscape-font-specification:Chewy"
       transform="translate(1.4285714,-22.857143)"><flowRegion
         id="flowRegion2995"><rect
           id="rect2997"
           width="612.85718"
           height="68.571434"
           x="74.285713"
           y="38.076469"
           style="font-style:normal;font-variant:normal;font-weight:normal;font-stretch:normal;font-family:Chewy;-inkscape-font-specification:Chewy" /></flowRegion><flowPara
         id="flowPara2999">What Does RRR week mean to you?</flowPara></flowRoot>    <rect
       id="rect2990"
       width="377.44742"
       height="249.28572"
       x="27.857143"
       y="71.647896"
       ry="10"
       style="fill:none;stroke:#000000;stroke-width:2;stroke-miterlimit:4;stroke-opacity:1;stroke-dasharray:none" />
    <path
       style="fill:none;stroke:#000000;stroke-width:1px;stroke-linecap:butt;stroke-linejoin:miter;stroke-opacity:1"
       d="m 126.4155,182.8979 -1.25,18.03571"
       id="path3779"
       inkscape:connector-curvature="0" />
    <rect
       style="fill:#7a665a;fill-opacity:1;stroke:#000000;stroke-width:2;stroke-miterlimit:4;stroke-opacity:1;stroke-dasharray:none"
       id="rect3760"
       width="154.55334"
       height="82.832512"
       x="78.286827"
       y="200.29852"
       ry="0" />
    <path
       style="fill:none;stroke:#000000;stroke-width:1px;stroke-linecap:butt;stroke-linejoin:miter;stroke-opacity:1"
       d="m 151.95122,182.18361 3.92857,19.28571 -1.25,-0.17857 z"
       id="path3781"
       inkscape:connector-curvature="0" />
    <path
       style="fill:#3753bd;fill-opacity:1;stroke:#000000;stroke-width:1px;stroke-linecap:butt;stroke-linejoin:miter;stroke-opacity:1"
       d="m 138.42443,175.75504 -3.08035,27.32143 8.57142,0 -2.5,-26.96429"
       id="path3790"
       inkscape:connector-curvature="0"
       sodipodi:nodetypes="cccc" />
    <path
       style="fill:#cdcdcd;fill-opacity:1;stroke:none"
       d="m 125.87979,183.07647 -5.89286,16.51785 5,-0.26785 z"
       id="path3810"
       inkscape:connector-curvature="0" />
    <path
       style="fill:#5f5046;fill-opacity:1;stroke:none"
       d="m 231.94675,200.3125 -0.11161,1.24107 -0.17857,14.52232 -1.92857,0.54911 c -3.62543,-0.36053 -122.26342,-4.71856 -150.669636,-5.75 l 0,-10.5625 z"
       id="path3840"
       inkscape:connector-curvature="0"
       sodipodi:nodetypes="ccccccc" />
    <path
       transform="matrix(1,0,0.09960284,0.99502727,0,0)"
       style="fill:#c4b459;fill-opacity:1;stroke:#705b15;stroke-width:1.00249565;stroke-opacity:1"
       d="m 58.565704,190.89371 40.153565,0 0,9.1368 -42.678946,0 z"
       id="rect4051"
       inkscape:connector-curvature="0"
       sodipodi:nodetypes="ccccc" />
    <rect
       style="fill:#7a665a;fill-opacity:1;stroke:#000000;stroke-width:2;stroke-miterlimit:4;stroke-opacity:1;stroke-dasharray:none"
       id="rect3762"
       width="171.22084"
       height="9.5964489"
       x="70.710678"
       y="198.78328"
       ry="3.7880719" />
    <path
       style="fill:#d5b98b;fill-opacity:1;stroke:none"
       d="m 146.21015,156.79911 -8.09375,2.4375 c 2.73437,4.53126 3.08301,5.7749 9.40625,2.90625 l -1.3125,-5.34375 z"
       id="path3819"
       inkscape:connector-curvature="0" />
    <path
       style="fill:#eadcc5;fill-opacity:1;stroke:#634e32;stroke-width:2;stroke-miterlimit:4;stroke-opacity:1"
       d="m 157.84407,137.00504 c 0,8.67876 -7.03552,22.5 -15.71428,22.5 -8.67876,0 -15.71429,-13.82124 -15.71429,-22.5 0,-8.67876 7.03553,-15.71428 15.71429,-15.71428 8.67876,0 15.71428,7.03552 15.71428,15.71428 z"
       id="path3766"
       inkscape:connector-curvature="0"
       sodipodi:nodetypes="sssss" />
    <path
       style="fill:#776247;fill-opacity:1;stroke:#000000;stroke-width:1.05096519;stroke-miterlimit:4;stroke-opacity:1;stroke-dasharray:none"
       d="m 142.12979,120.68173 c -9.00977,0 -16.31827,7.49019 -16.31827,16.72394 0,0.99219 0.0978,2.06511 0.25954,3.1586 l 4.93116,-7.34789 c 7.22181,-2.48392 14.79315,-3.07586 23.0013,0 l 4.185,7.41439 c 0.16814,-1.11703 0.25954,-2.21296 0.25954,-3.2251 0,-9.23375 -7.3085,-16.72394 -16.31827,-16.72394 z"
       id="path3771"
       inkscape:connector-curvature="0" />
    <path
       style="fill:#3753bd;fill-opacity:1;stroke:#000000;stroke-width:1px;stroke-linecap:butt;stroke-linejoin:round;stroke-opacity:1"
       d="m 136.90658,174.23718 3.08036,3.30358 3.12499,-3.30358"
       id="path3788"
       inkscape:connector-curvature="0"
       sodipodi:nodetypes="ccc" />
    <path
       style="fill:#263982;fill-opacity:1;stroke:none"
       d="m 137.26372,173.83539 1.74107,1.96429 3.25893,-1.29464 -2.09822,-2.32143"
       id="path3803"
       inkscape:connector-curvature="0" />
    <path
       style="fill:none;stroke:#000000;stroke-width:1px;stroke-linecap:butt;stroke-linejoin:miter;stroke-opacity:1"
       d="m 151.05836,166.11218 c -1.60898,2.99061 -4.17853,6.23215 -7.67857,8.75 l -3.57143,-2.49999 -3.21428,2.49999 c -2.82847,-2.61832 -4.48781,-5.00416 -5.89286,-8.57142 l 2.67857,-0.35715"
       id="path3786"
       inkscape:connector-curvature="0"
       sodipodi:nodetypes="cccccc" />
    <path
       style="fill:#263982;fill-opacity:1;stroke:none"
       d="m 141.52711,182.38393 c -1.68354,1.05821 -1.81393,1.6676 -3.59821,2.74107 l -0.78125,7.0625 5.09821,-2.14732 z"
       id="path3805"
       inkscape:connector-curvature="0"
       sodipodi:nodetypes="ccccc" />
    <path
       style="fill:#ffffff;fill-opacity:1;stroke:none"
       d="m 130.41997,166.72768 c -8.34611,0.80844 -12.57526,4.36355 -14.375,18.59375 5.34913,-4.30747 11.83268,-14.42893 14.375,-18.59375 z"
       id="path3812"
       inkscape:connector-curvature="0" />
    <path
       style="fill:#b6b6b6;fill-opacity:1;stroke:none"
       d="m 152.38079,182.05263 c 0.31568,-0.50508 2.46226,-4.41942 2.46226,-4.41942 l -0.50508,13.7002"
       id="path3817"
       inkscape:connector-curvature="0"
       sodipodi:nodetypes="ccc" />
    <path
       style="fill:none;stroke:#773636;stroke-width:1px;stroke-linecap:butt;stroke-linejoin:miter;stroke-opacity:1"
       d="m 137.57622,151.29075 9.46428,-0.80357"
       id="path3824"
       inkscape:connector-curvature="0"
       sodipodi:nodetypes="cc" />
    <path
       style="fill:none;stroke:#957b57;stroke-width:1px;stroke-linecap:round;stroke-linejoin:round;stroke-opacity:1"
       d="m 139.00479,138.79075 c -2.23214,-1.875 -8.39286,1.33929 -8.39286,1.33929"
       id="path3826"
       inkscape:connector-curvature="0" />
    <path
       style="fill:none;stroke:#957b57;stroke-width:1px;stroke-linecap:round;stroke-linejoin:round;stroke-opacity:1"
       d="m 144.80836,138.61218 c 2.05358,-2.23214 7.41072,0.71429 7.41072,0.71429"
       id="path3828"
       inkscape:connector-curvature="0"
       sodipodi:nodetypes="cc" />
    <path
       style="fill:#a78d6b;fill-opacity:1;stroke:none"
       d="m 130.34408,130.04075 c 0,0 4.73214,-8.57143 10.98214,-7.32143 6.25,1.25 -2.85714,-1.78571 -10.98214,7.32143 z"
       id="path3830"
       inkscape:connector-curvature="0" />
    <path
       style="fill:#000000;fill-opacity:1;stroke:none"
       d="m 134.45122,142.04968 c 1.3273,1.41658 3.08526,1.29955 3.03571,-0.3125"
       id="path3836"
       inkscape:connector-curvature="0"
       sodipodi:nodetypes="cc" />
    <path
       style="fill:none;stroke:#4b3a2a;stroke-width:1px;stroke-linecap:butt;stroke-linejoin:miter;stroke-opacity:1"
       d="m 133.64765,142.00504 4.28571,-0.625"
       id="path3832"
       inkscape:connector-curvature="0" />
    <path
       sodipodi:nodetypes="cc"
       inkscape:connector-curvature="0"
       id="path3838"
       d="m 148.55938,141.73718 c -1.3273,1.41658 -3.08526,1.29955 -3.03571,-0.3125"
       style="fill:#000000;fill-opacity:1;stroke:none" />
    <path
       style="fill:none;stroke:#493629;stroke-width:1px;stroke-linecap:butt;stroke-linejoin:miter;stroke-opacity:1"
       d="m 145.07622,141.11218 c 0.44643,0.17857 4.19643,0.35714 4.19643,0.35714"
       id="path3834"
       inkscape:connector-curvature="0" />
    <flowRoot
       xml:space="preserve"
       id="flowRoot3859"
       style="fill:black;stroke:none;stroke-opacity:1;stroke-width:1px;stroke-linejoin:miter;stroke-linecap:butt;fill-opacity:1;font-family:Aharoni;font-style:normal;font-weight:bold;font-size:36px;line-height:125%;letter-spacing:0px;word-spacing:0px;text-anchor:middle;text-align:center;-inkscape-font-specification:Aharoni Bold;font-stretch:normal;font-variant:normal"><flowRegion
         id="flowRegion3861"><rect
           id="rect3863"
           width="126.77415"
           height="132.32999"
           x="240.92139"
           y="74.534515"
           style="font-size:36px" /></flowRegion><flowPara
         id="flowPara3865" /></flowRoot>    <flowRoot
       xml:space="preserve"
       id="flowRoot3867"
       style="fill:black;stroke:none;stroke-opacity:1;stroke-width:1px;stroke-linejoin:miter;stroke-linecap:butt;fill-opacity:1;font-family:Aharoni;font-style:normal;font-weight:bold;font-size:32px;line-height:125%;letter-spacing:0px;word-spacing:0px;text-anchor:middle;text-align:center;-inkscape-font-specification:Aharoni Bold;font-stretch:normal;font-variant:normal"><flowRegion
         id="flowRegion3869"><rect
           id="rect3871"
           width="125.25892"
           height="138.3909"
           x="222.23357"
           y="85.646194"
           style="font-size:32px" /></flowRegion><flowPara
         id="flowPara3873" /></flowRoot>    <path
       style="fill:#f4dfc4;fill-opacity:0.48404254;stroke:#4b3a2a;stroke-opacity:1"
       d="m 262.13459,80.595438 c 42.7912,0.392883 87.3847,4.390368 127.78428,0 -0.85914,32.493232 -1.76541,64.986472 0,97.479712 -42.59476,-0.45185 -85.18952,-0.8663 -127.78428,0 1.86818,-32.49324 3.41932,-64.98648 0,-97.479712 z"
       id="rect3887"
       inkscape:connector-curvature="0"
       sodipodi:nodetypes="ccccc" />
    <flowRoot
       xml:space="preserve"
       id="flowRoot3875"
       style="font-size:32px;font-style:normal;font-variant:normal;font-weight:normal;font-stretch:normal;text-align:start;line-height:108.00000429%;letter-spacing:0px;word-spacing:0px;text-anchor:start;fill:#000000;fill-opacity:1;stroke:none;font-family:Chewy;-inkscape-font-specification:Chewy"
       transform="matrix(0.86775092,0,0,0.86775092,97.595314,11.375943)"><flowRegion
         id="flowRegion3877"><rect
           id="rect3879"
           width="212.13203"
           height="217.1828"
           x="198.49498"
           y="87.161423"
           style="font-size:32px;font-style:normal;font-variant:normal;font-weight:normal;font-stretch:normal;text-align:start;line-height:108.00000429%;text-anchor:start;font-family:Chewy;-inkscape-font-specification:Chewy" /></flowRegion><flowPara
         id="flowPara3881">Reading</flowPara><flowPara
         id="flowPara3883">Review</flowPara><flowPara
         id="flowPara3885">Recitation</flowPara></flowRoot>    <text
       xml:space="preserve"
       style="font-size:24px;font-style:normal;font-variant:normal;font-weight:bold;font-stretch:normal;text-align:center;line-height:125%;letter-spacing:0px;word-spacing:0px;text-anchor:middle;opacity:0.98999999000000005;fill:#8d904b;fill-opacity:1;stroke:none;font-family:Aharoni;-inkscape-font-specification:Aharoni Bold"
       x="140.91628"
       y="104.33401"
       id="text3890"
       sodipodi:linespacing="125%"><tspan
         sodipodi:role="line"
         id="tspan3892"
         x="140.91628"
         y="104.33401"
         style="font-size:24px;font-style:normal;font-variant:normal;font-weight:bold;font-stretch:normal;font-family:Arial;-inkscape-font-specification:Arial Bold;fill:#8d904b;fill-opacity:1">Administration</tspan></text>
    <path
       style="fill:#f4dfc4;fill-opacity:0.21808511;stroke:none"
       d="m 75.712496,199.53886 c -2.070733,0 -3.731055,1.36643 -3.731055,3.07062 l 0,0.20302 168.945909,0 0,-0.20302 c 0,-1.70419 -1.66033,-3.07062 -3.73105,-3.07062 l -161.483804,0 z"
       id="path3894"
       inkscape:connector-curvature="0" />
    <path
       style="fill:#5f5046;fill-opacity:1;stroke:none"
       d="m 231.77232,236.33929 -152.419641,24.9375 0,20.5625 152.419641,0 0,-45.5 z"
       id="path3899"
       inkscape:connector-curvature="0" />
    <rect
       style="opacity:0.36725664;fill:#f6f6f6;fill-opacity:1;stroke:none"
       id="rect3906"
       width="45.456863"
       height="30.304577"
       x="53.538082"
       y="137.16397" />
    <path
       sodipodi:type="star"
       style="opacity:0.36725664;fill:#e0dc8b;fill-opacity:1;stroke:none"
       id="path3910"
       sodipodi:sides="11"
       sodipodi:cx="87.63073"
       sodipodi:cy="155.34673"
       sodipodi:r1="7.1517801"
       sodipodi:r2="3.5758901"
       sodipodi:arg1="0.73543977"
       sodipodi:arg2="1.0210391"
       inkscape:flatsided="false"
       inkscape:rounded="0"
       inkscape:randomized="0"
       d="m 92.934031,160.14495 -3.434969,-1.74924 -0.001,3.85472 -1.943971,-3.32864 -2.084881,3.24224 0.164224,-3.85121 -3.5068,1.60037 2.220279,-3.15107 -3.815335,-0.5496 3.571411,-1.45047 -2.912527,-2.52507 3.788645,0.71063 -1.085013,-3.69886 2.803011,2.64612 1.086985,-3.69828 0.927442,3.74148 2.913873,-2.52352 -1.242585,3.64894 3.815627,-0.54756 -3.018099,2.3979 3.505946,1.60224 -3.835388,0.38553 z"
       inkscape:transform-center-x="0.021821518"
       inkscape:transform-center-y="-0.12321597"
       transform="translate(0.25253814,2.2728432)" />
    <rect
       style="opacity:0.36725664;fill:#d2d2d2;fill-opacity:1;stroke:none"
       id="rect3912"
       width="2.2728431"
       height="3.2829957"
       x="58.588848"
       y="158.12465" />
    <rect
       y="158.12465"
       x="62.124382"
       height="3.2829957"
       width="2.2728431"
       id="rect3914"
       style="opacity:0.36725664;fill:#d2d2d2;fill-opacity:1;stroke:none" />
    <rect
       style="opacity:0.36725664;fill:#d2d2d2;fill-opacity:1;stroke:none"
       id="rect3916"
       width="2.2728431"
       height="3.2829957"
       x="65.407379"
       y="158.12465" />
    <rect
       y="158.12465"
       x="68.942917"
       height="3.2829957"
       width="2.2728431"
       id="rect3918"
       style="opacity:0.36725664;fill:#d2d2d2;fill-opacity:1;stroke:none" />
    <rect
       style="opacity:0.36725664;fill:#d2d2d2;fill-opacity:1;stroke:none"
       id="rect3920"
       width="2.2728431"
       height="3.2829957"
       x="72.730988"
       y="158.12465" />
    <rect
       y="158.12465"
       x="76.266525"
       height="3.2829957"
       width="2.2728431"
       id="rect3922"
       style="opacity:0.36725664;fill:#d2d2d2;fill-opacity:1;stroke:none" />
    <rect
       style="opacity:0.36725664;fill:#d2d2d2;fill-opacity:1;stroke:none"
       id="rect3982"
       width="2.6785715"
       height="3.75"
       x="58.75"
       y="145.21933" />
    <rect
       style="opacity:0.36725664;fill:#d2d2d2;fill-opacity:1;stroke:none"
       id="rect3984"
       width="2.5"
       height="7.8571429"
       x="63.92857"
       y="146.46933" />
    <rect
       style="opacity:0.36725664;fill:#d2d2d2;fill-opacity:1;stroke:none"
       id="rect3986"
       width="2.5"
       height="3.3928571"
       x="68.035713"
       y="145.75504" />
    <rect
       style="opacity:0.36725664;fill:#d2d2d2;fill-opacity:1;stroke:none"
       id="rect3988"
       width="1.7857143"
       height="7.8571429"
       x="72.14286"
       y="146.64789"
       ry="0.89285713" />
    <rect
       style="opacity:0.36725664;fill:#d2d2d2;fill-opacity:1;stroke:none"
       id="rect3990"
       width="2.5"
       height="3.75"
       x="76.428574"
       y="145.93361"
       ry="0.89285713" />
    <rect
       style="opacity:0.36725664;fill:#d2d2d2;fill-opacity:1;stroke:none"
       id="rect3992"
       width="1.9642857"
       height="2.6785715"
       x="81.428574"
       y="146.11218"
       ry="0.89285713" />
    <rect
       style="opacity:0.36725664;fill:#d2d2d2;fill-opacity:1;stroke:none"
       id="rect3994"
       width="3.3928571"
       height="8.3928576"
       x="85.35714"
       y="141.64789"
       ry="0.89285713" />
    <rect
       style="opacity:0.36725664;fill:#d2d2d2;fill-opacity:1;stroke:none"
       id="rect3996"
       width="2.8571429"
       height="3.3928571"
       x="91.785713"
       y="146.82646"
       ry="0.89285713" />
    <rect
       style="opacity:0.36725664;fill:#d2d2d2;fill-opacity:1;stroke:none"
       id="rect3998"
       width="19.107143"
       height="2.3214285"
       x="60.357143"
       y="139.86218"
       ry="0.89285713" />
    <path
       id="path4005"
       d="m 178.39651,130.09454 0,38.6875 27.35596,0 0,-38.6875 z m 3.78125,4.03125 19.23542,0 0,30.3125 -19.23542,0 z"
       style="opacity:0.36725661;fill:#906e4b;fill-opacity:1;stroke:none"
       inkscape:connector-curvature="0"
       sodipodi:nodetypes="cccccccccc" />
    <rect
       y="136.63351"
       x="185.12907"
       height="25.304577"
       width="13.58383"
       id="rect4007"
       style="opacity:0.36725661;fill:#8c7ae7;fill-opacity:1;stroke:none" />
    <path
       style="opacity:0.36725661;fill:#2db28b;fill-opacity:1;stroke:none"
       d="m 198.70648,140.15106 c -5.69576,1.87031 -8.79831,2.87952 -13.59013,4.43683 l 0,10.29463 13.59013,0 0,-14.73146 z"
       id="path4041"
       inkscape:connector-curvature="0" />
    <path
       style="opacity:0.36725661;fill:#474cc6;fill-opacity:1;stroke:none"
       d="m 198.70648,150.82266 -11.65247,11.10659 11.65247,0 0,-11.10659 z"
       id="path4046"
       inkscape:connector-curvature="0" />
    <rect
       style="fill:none;stroke:#000000;stroke-width:2;stroke-miterlimit:4;stroke-opacity:1;stroke-dasharray:none"
       ry="10"
       y="71.647896"
       x="432.92828"
       height="249.28572"
       width="377.44742"
       id="rect4054" />
    <rect
       ry="1.5152289"
       y="192.21729"
       x="431.84021"
       height="131.31984"
       width="265.67014"
       id="rect4058"
       style="fill:#6b6b6b;fill-opacity:1;stroke:#09495e;stroke-width:1;stroke-linecap:round;stroke-linejoin:round;stroke-miterlimit:4;stroke-opacity:1;stroke-dasharray:none" />
    <rect
       style="fill:#424242;fill-opacity:1;stroke:#000000;stroke-width:1;stroke-linecap:round;stroke-linejoin:round;stroke-miterlimit:4;stroke-opacity:1;stroke-dasharray:none"
       id="rect4056"
       width="286.37823"
       height="11.616754"
       x="417.19302"
       y="186.15636"
       ry="1.5152289" />
    <rect
       style="fill:#6b6b6b;fill-opacity:1;stroke:#09495e;stroke-width:1;stroke-linecap:round;stroke-linejoin:round;stroke-miterlimit:4;stroke-opacity:1;stroke-dasharray:none"
       id="rect4060"
       width="63.134533"
       height="99.500023"
       x="617.20319"
       y="208.88478"
       ry="1.5152289" />
    <rect
       ry="1.5152289"
       y="208.88478"
       x="543.46204"
       height="99.500023"
       width="63.134533"
       id="rect4062"
       style="fill:#6b6b6b;fill-opacity:1;stroke:#09495e;stroke-width:1;stroke-linecap:round;stroke-linejoin:round;stroke-miterlimit:4;stroke-opacity:1;stroke-dasharray:none" />
    <rect
       style="fill:#6b6b6b;fill-opacity:1;stroke:#09495e;stroke-width:1;stroke-linecap:round;stroke-linejoin:round;stroke-miterlimit:4;stroke-opacity:1;stroke-dasharray:none"
       id="rect4064"
       width="63.134533"
       height="99.500023"
       x="463.65994"
       y="208.88478"
       ry="1.5152289" />
    <rect
       style="fill:#898989;fill-opacity:1;stroke:#343434;stroke-width:1;stroke-linecap:round;stroke-linejoin:round;stroke-miterlimit:4;stroke-opacity:1;stroke-dasharray:none"
       id="rect4066"
       width="3.0304577"
       height="19.192898"
       x="621.7489"
       y="241.71475"
       ry="1.5152289" />
    <rect
       ry="1.5152289"
       y="241.71475"
       x="598.51538"
       height="19.192898"
       width="3.0304577"
       id="rect4068"
       style="fill:#898989;fill-opacity:1;stroke:#343434;stroke-width:1;stroke-linecap:round;stroke-linejoin:round;stroke-miterlimit:4;stroke-opacity:1;stroke-dasharray:none" />
    <rect
       style="fill:#898989;fill-opacity:1;stroke:#343434;stroke-width:1;stroke-linecap:round;stroke-linejoin:round;stroke-miterlimit:4;stroke-opacity:1;stroke-dasharray:none"
       id="rect4070"
       width="3.0304577"
       height="19.192898"
       x="468.71075"
       y="241.71475"
       ry="1.5152289" />
    <rect
       ry="1.5152289"
       y="208.88478"
       x="-453.55841"
       height="99.500023"
       width="63.134533"
       id="rect4072"
       style="fill:#6b6b6b;fill-opacity:1;stroke:#09495e;stroke-width:1;stroke-linecap:round;stroke-linejoin:round;stroke-miterlimit:4;stroke-opacity:1;stroke-dasharray:none"
       transform="scale(-1,1)" />
    <rect
       ry="1.5152289"
       y="241.71475"
       x="-448.50763"
       height="19.192898"
       width="3.0304577"
       id="rect4074"
       style="fill:#898989;fill-opacity:1;stroke:#343434;stroke-width:1;stroke-linecap:round;stroke-linejoin:round;stroke-miterlimit:4;stroke-opacity:1;stroke-dasharray:none"
       transform="scale(-1,1)" />
    <path
       style="fill:#b3b3b3;fill-opacity:0.47340426;stroke:#474747;stroke-width:1;stroke-linecap:round;stroke-linejoin:round;stroke-miterlimit:4;stroke-opacity:1"
       d="m 505.75031,154.25954 0,29.38633 c 0,0.83944 -0.6758,1.51523 -1.51523,1.51523 l -18.68782,0 c -0.83944,0 -1.51523,-0.67579 -1.51523,-1.51523 l 0,-29.38633 c 5.25747,-0.0352 17.41772,0.25971 21.71828,0 z"
       id="rect4076"
       inkscape:connector-curvature="0"
       sodipodi:nodetypes="csssscc" />
    <path
       style="fill:#ffffff;fill-opacity:0.34574467;stroke:none"
       d="m 484.41006,154.75508 0,28.26982 c 0,0.83944 0.69181,1.5 1.53125,1.5 l 2.3125,0 c 1.29741,-6.86504 4.0478,-20.25395 5.8125,-29.70732 -3.70356,-0.0369 -7.35779,-0.0779 -9.65625,-0.0625 z"
       id="path4090"
       inkscape:connector-curvature="0"
       sodipodi:nodetypes="cssccc" />
    <path
       sodipodi:nodetypes="cscccc"
       inkscape:connector-curvature="0"
       id="path3088"
       d="m 516.98941,167.20899 c 3.44887,1.36358 8.88832,1.43755 12.23258,0.1569 1.94477,-0.74472 4.41942,17.13915 4.41942,17.13915 -0.27483,1.1087 -13.57143,0.35714 -20.35714,0.53571 l -1.42857,-1.42857 z"
       style="fill:#ee0000;fill-opacity:0.7393617;stroke:none" />
    <path
       style="fill:#b3b3b3;fill-opacity:0.47340423;stroke:#474747;stroke-width:1;stroke-linecap:round;stroke-linejoin:round;stroke-miterlimit:4;stroke-opacity:1"
       d="m 519.71875,149.92909 -0.0469,6.59375 c -0.0442,2.5e-4 -7.35937,27.13341 -7.35937,27.13341 -0.20299,0.81453 0.69181,1.5 1.53125,1.5 l 18.6875,0 c 0.83943,0 1.70299,-0.68547 1.5,-1.5 l -7.46875,-27.11779 c -0.15397,0.009 -0.15625,-6.60937 -0.15625,-6.60937 z"
       id="path3090"
       inkscape:connector-curvature="0"
       sodipodi:nodetypes="cccsscccc" />
    <path
       sodipodi:nodetypes="csscccc"
       inkscape:connector-curvature="0"
       id="path3092"
       d="m 520.52301,155.5127 -7.82868,27.5122 c -0.22974,0.80739 0.69181,1.5 1.53125,1.5 l 2.3125,0 c 1.29741,-6.86504 4.42661,-19.6226 6.19131,-29.07597 -3.70356,-0.0369 -0.79179,2.82631 -2.20638,0.0638 z"
       style="fill:#ffffff;fill-opacity:0.34574465;stroke:none" />
    <rect
       style="fill:#c7afaf;fill-opacity:1;stroke:#929292;stroke-opacity:1"
       id="rect3868"
       width="35.102829"
       height="10.227818"
       x="543.58832"
       y="174.70923"
       ry="1.5152289" />
    <path
       sodipodi:type="arc"
       style="fill:#dcc221;fill-opacity:1;stroke:#7f9012;stroke-width:1;stroke-linecap:round;stroke-linejoin:round;stroke-miterlimit:4;stroke-opacity:1;stroke-dasharray:none"
       id="path3873"
       sodipodi:cx="569.34723"
       sodipodi:cy="180.60054"
       sodipodi:rx="3.5355339"
       sodipodi:ry="3.5355339"
       d="m 572.88276,180.60054 a 3.5355339,3.5355339 0 1 1 -7.07106,0 3.5355339,3.5355339 0 1 1 7.07106,0 z"
       transform="translate(0,-0.71428571)" />
    <path
       style="fill:none;stroke:#5a4d00;stroke-width:1px;stroke-linecap:butt;stroke-linejoin:miter;stroke-opacity:1"
       d="m 568.46334,177.86595 1.76777,3.91434"
       id="path3875"
       inkscape:connector-curvature="0" />
    <rect
       style="fill:#000000;fill-opacity:1;stroke:#313131;stroke-width:1;stroke-linecap:round;stroke-linejoin:round;stroke-miterlimit:4;stroke-opacity:1;stroke-dasharray:none"
       id="rect3877"
       width="10.985409"
       height="3.1567266"
       x="547.62897"
       y="177.99223"
       ry="0.75761443" />
    <rect
       style="fill:#5e5b0e;fill-opacity:1;stroke:none"
       id="rect3880"
       width="1.1364216"
       height="1.3889598"
       x="548.89166"
       y="178.79449"
       ry="0" />
    <rect
       ry="0"
       y="178.79449"
       x="550.63275"
       height="1.3889598"
       width="1.1364216"
       id="rect3882"
       style="fill:#5e5b0e;fill-opacity:1;stroke:none" />
    <rect
       style="fill:#5e5b0e;fill-opacity:1;stroke:none"
       id="rect3884"
       width="1.1364216"
       height="1.3889598"
       x="552.32916"
       y="178.79449"
       ry="0" />
    <rect
       ry="0"
       y="178.79449"
       x="554.20416"
       height="1.3889598"
       width="1.1364216"
       id="rect3886"
       style="fill:#5e5b0e;fill-opacity:1;stroke:none" />
    <rect
       style="fill:#5e5b0e;fill-opacity:1;stroke:none"
       id="rect3888"
       width="1.1364216"
       height="1.3889598"
       x="556.07916"
       y="178.79449"
       ry="0" />
    <path
       style="fill:#ee0000;fill-opacity:0.73936169;stroke:none"
       d="m 556.40991,161.45867 c 2.87564,0.78109 7.41101,0.82346 10.19942,0.0899 1.62153,-0.42659 3.68488,9.81769 3.68488,9.81769 -0.22915,0.63509 -11.31575,0.20458 -16.97361,0.30687 l -1.19113,-0.81832 z"
       id="path3895"
       inkscape:connector-curvature="0"
       sodipodi:nodetypes="cscccc" />
    <path
       sodipodi:nodetypes="cccsscccc"
       inkscape:connector-curvature="0"
       id="path3897"
       d="m 558.68561,149.14964 -0.0391,6.18776 c -0.0369,1.4e-4 -6.13618,15.54264 -6.13618,15.54264 -0.16926,0.46658 0.57682,1.12709 1.27674,1.12709 l 15.58148,0 c 0.69991,0 1.41994,-0.66051 1.25069,-1.12709 l -6.22739,-15.53369 c -0.12837,0.005 -0.13028,-6.19671 -0.13028,-6.19671 z"
       style="fill:#b3b3b3;fill-opacity:0.47340423;stroke:#474747;stroke-width:0.69109678;stroke-linecap:round;stroke-linejoin:round;stroke-miterlimit:4;stroke-opacity:1" />
    <path
       style="fill:#c34444;stroke:none;stroke-width:1px;stroke-linecap:butt;stroke-linejoin:miter;stroke-opacity:1;fill-opacity:0.86274511"
       d="m 565.08928,163.79076 c -9.01785,-0.53572 -11.42857,1.25 -7.94643,1.78571 3.48215,0.53572 14.82143,2.32143 7.58929,2.41072 -7.23214,0.0893 -14.01786,2.5 -9.10714,2.05357 4.91071,-0.44643 15.53571,-0.80357 10.89285,-0.26786 -4.64285,0.53572 7.32143,0 -0.625,-0.71428 -7.94642,-0.71429 -3.30357,-0.44643 1.33929,-0.53572 4.64286,-0.0893 -4.46429,-3.66071 -8.30357,-3.57143 -3.83929,0.0893 6.16071,-1.16071 6.16071,-1.16071 z"
       id="path3902"
       inkscape:connector-curvature="0" />
    <path
       style="fill:#ffffff;fill-opacity:0.34574465;stroke:none"
       d="m 559.3562,154.75877 -6.52749,15.75962 c -0.19156,0.46249 0.40266,0.75911 1.09817,0.68066 l 2.37458,-0.26786 c 1.08176,-3.93245 3.423,-10.79384 4.8944,-16.20895 -3.088,-0.0211 -0.66019,1.61898 -1.83966,0.0366 z"
       id="path3900"
       inkscape:connector-curvature="0"
       sodipodi:nodetypes="csscccc" />
    <path
       sodipodi:nodetypes="cscccc"
       inkscape:connector-curvature="0"
       id="path3904"
       d="m 501.38433,170.96015 c 1.00114,1.75199 14.01594,1.62685 14.76678,0.37542 0.75086,-1.25142 0,13.51537 0,13.51537 -0.1926,0.77697 -9.51081,0.25028 -14.26621,0.37542 l -1.00114,-1.00114 z"
       style="fill:#c7569a;fill-opacity:0.73936169;stroke:none" />
    <path
       sodipodi:nodetypes="csssscc"
       inkscape:connector-curvature="0"
       id="path3906"
       d="m 516.42665,163.65499 0,20.59384 c 0,0.58828 -0.4736,1.06187 -1.06187,1.06187 l -13.09636,0 c -0.58828,0 -1.06187,-0.47359 -1.06187,-1.06187 l 0,-20.59384 c 3.68442,-0.0247 12.20628,0.18201 15.2201,0 z"
       style="fill:#b3b3b3;fill-opacity:0.47340422999999998;stroke:#474747;stroke-width:1;stroke-linecap:round;stroke-linejoin:round;stroke-miterlimit:4;stroke-opacity:1;stroke-dasharray:none" />
    <path
       sodipodi:nodetypes="cssccc"
       inkscape:connector-curvature="0"
       id="path3908"
       d="m 501.47147,164.00227 0,19.81139 c 0,0.58828 0.48482,1.05119 1.0731,1.05119 l 1.62059,0 c 0.90922,-4.81099 2.83668,-14.1939 4.07338,-20.81879 -2.59544,-0.0259 -5.15632,-0.0546 -6.76707,-0.0438 z"
       style="fill:#ffffff;fill-opacity:0.34574465;stroke:none" />
    <path
       style="fill:none;stroke:#3f28c9;stroke-width:1;stroke-linecap:butt;stroke-linejoin:miter;stroke-opacity:1;stroke-miterlimit:4;stroke-dasharray:none"
       d="m 451.72922,159.79358 c 0,-2.34518 3.40278,-0.78172 2.78409,0.89341 -0.61868,1.67512 2.32008,-0.67006 1.85606,-2.12183 -0.46401,-1.45178 2.01073,-4.02031 1.70139,-0.94924 -0.30935,3.07107 1.0827,7.53807 1.39204,4.07614 0.30935,-3.46193 0.92804,-6.19797 1.39205,-3.74112 0.46401,2.45686 1.54671,3.62945 1.85606,2.40102 0.30934,-1.22843 2.32007,-3.35026 2.47474,-1.73097 0.15467,1.61929 5.25884,2.34518 4.94949,1.34011 -0.30934,-1.00508 1.39205,-0.39087 6.34154,-0.39087 4.94949,0 1.70138,-0.27918 1.70138,-0.27918 l 0.77336,0.55837 1.54672,-0.67005 0.92803,0.83756 1.0827,-0.4467"
       id="path3919"
       inkscape:connector-curvature="0" />
    <path
       inkscape:connector-curvature="0"
       id="path3921"
       d="m 481.41363,167.73406 c 0,-2.34518 -3.40278,-0.78172 -2.78409,0.89341 0.61868,1.67512 -2.32008,-0.67006 -1.85606,-2.12183 0.46401,-1.45178 -2.01073,-4.02031 -1.70139,-0.94924 0.30935,3.07107 -1.0827,7.53807 -1.39204,4.07614 -0.30935,-3.46193 -0.92804,-6.19797 -1.39205,-3.74112 -0.46401,2.45686 -1.54671,3.62945 -1.85606,2.40102 -0.30934,-1.22843 -2.32007,-3.35026 -2.47474,-1.73097 -0.15467,1.61929 -5.25884,2.34518 -4.94949,1.34011 0.30934,-1.00508 -1.39205,-0.39087 -6.34154,-0.39087 -4.94949,0 -1.70138,-0.27918 -1.70138,-0.27918 l -0.77336,0.55837 -1.54672,-0.67005 -0.92803,0.83756 -1.0827,-0.4467"
       style="fill:none;stroke:#fa0000;stroke-width:1;stroke-linecap:butt;stroke-linejoin:miter;stroke-miterlimit:4;stroke-opacity:1;stroke-dasharray:none" />
    <rect
       style="fill:#000000;fill-opacity:1;stroke:#4c4c4c;stroke-width:1.00558412;stroke-linecap:round;stroke-linejoin:round;stroke-miterlimit:4;stroke-opacity:1;stroke-dasharray:none"
       id="rect3923"
       width="16.976191"
       height="6.3681493"
       x="475.37119"
       y="172.33035"
       ry="0"
       transform="matrix(1,0,-0.14841934,0.98892452,0,0)" />
    <path
       style="fill:none;stroke:#2f2f2f;stroke-width:1px;stroke-linecap:butt;stroke-linejoin:miter;stroke-opacity:1"
       d="m 451.92262,172.47528 11.77381,0"
       id="path3925"
       inkscape:connector-curvature="0" />
    <path
       inkscape:connector-curvature="0"
       id="path3927"
       d="m 451.10119,174.39195 11.77381,0"
       style="fill:none;stroke:#2f2f2f;stroke-width:1px;stroke-linecap:butt;stroke-linejoin:miter;stroke-opacity:1" />
    <rect
       style="fill:#424242;fill-opacity:1;stroke:#000000;stroke-width:1;stroke-linecap:round;stroke-linejoin:round;stroke-miterlimit:4;stroke-opacity:1;stroke-dasharray:none"
       id="rect3929"
       width="251.90475"
       height="7.6666665"
       x="447.95239"
       y="94.576469"
       ry="2.1904762" />
    <rect
       ry="1.5152289"
       y="79.071892"
       x="689.94885"
       height="19.192898"
       width="3.0304577"
       id="rect3931"
       style="fill:#898989;fill-opacity:1;stroke:#343434;stroke-width:1;stroke-linecap:round;stroke-linejoin:round;stroke-miterlimit:4;stroke-opacity:1;stroke-dasharray:none" />
    <rect
       style="fill:#898989;fill-opacity:1;stroke:#343434;stroke-width:1;stroke-linecap:round;stroke-linejoin:round;stroke-miterlimit:4;stroke-opacity:1;stroke-dasharray:none"
       id="rect3933"
       width="3.0304577"
       height="19.192898"
       x="612.18695"
       y="79.071892"
       ry="1.5152289" />
    <rect
       ry="1.5152289"
       y="78.524269"
       x="522.37744"
       height="19.192898"
       width="3.0304577"
       id="rect3935"
       style="fill:#898989;fill-opacity:1;stroke:#343434;stroke-width:1;stroke-linecap:round;stroke-linejoin:round;stroke-miterlimit:4;stroke-opacity:1;stroke-dasharray:none" />
    <rect
       style="fill:#898989;fill-opacity:1;stroke:#343434;stroke-width:1;stroke-linecap:round;stroke-linejoin:round;stroke-miterlimit:4;stroke-opacity:1;stroke-dasharray:none"
       id="rect3937"
       width="3.0304577"
       height="19.192898"
       x="451.73459"
       y="78.524269"
       ry="1.5152289" />
    <rect
       style="fill:#c0a693;fill-opacity:1;stroke:#3d3d3d;stroke-width:1;stroke-linecap:round;stroke-linejoin:round;stroke-miterlimit:4;stroke-opacity:1;stroke-dasharray:none"
       id="rect3945"
       width="24.642857"
       height="26.285715"
       x="644.54761"
       y="69.385994"
       ry="1.5152289" />
  </g>
</svg>
