<?xml version="1.0" encoding="UTF-8" standalone="no"?>
<!-- Created with Inkscape (http://www.inkscape.org/) -->

<svg
   xmlns:dc="http://purl.org/dc/elements/1.1/"
   xmlns:cc="http://creativecommons.org/ns#"
   xmlns:rdf="http://www.w3.org/1999/02/22-rdf-syntax-ns#"
   xmlns:svg="http://www.w3.org/2000/svg"
   xmlns="http://www.w3.org/2000/svg"
   xmlns:xlink="http://www.w3.org/1999/xlink"
   xmlns:sodipodi="http://sodipodi.sourceforge.net/DTD/sodipodi-0.dtd"
   xmlns:inkscape="http://www.inkscape.org/namespaces/inkscape"
   width="425.76117"
   height="470.43954"
   id="svg5288"
   version="1.1"
   inkscape:version="0.48.2 r9819"
   sodipodi:docname="13-RIP.svg"
   inkscape:export-filename="/Users/keegan/Desktop/comics/13-RIP.png"
   inkscape:export-xdpi="90.050484"
   inkscape:export-ydpi="90.050484">
  <defs
     id="defs5290">
    <linearGradient
       id="linearGradient6055"
       inkscape:collect="always">
      <stop
         id="stop6057"
         offset="0"
         style="stop-color:#759970;stop-opacity:1" />
      <stop
         id="stop6059"
         offset="1"
         style="stop-color:#8cb487;stop-opacity:0;" />
    </linearGradient>
    <linearGradient
       inkscape:collect="always"
       id="linearGradient6047">
      <stop
         style="stop-color:#287542;stop-opacity:1;"
         offset="0"
         id="stop6049" />
      <stop
         style="stop-color:#287542;stop-opacity:0;"
         offset="1"
         id="stop6051" />
    </linearGradient>
    <linearGradient
       inkscape:collect="always"
       id="linearGradient5990">
      <stop
         style="stop-color:#679b61;stop-opacity:1;"
         offset="0"
         id="stop5992" />
      <stop
         style="stop-color:#679b61;stop-opacity:0"
         offset="1"
         id="stop5994" />
    </linearGradient>
    <linearGradient
       inkscape:collect="always"
       id="linearGradient5944">
      <stop
         style="stop-color:#8cb487;stop-opacity:1;"
         offset="0"
         id="stop5946" />
      <stop
         style="stop-color:#8cb487;stop-opacity:0;"
         offset="1"
         id="stop5948" />
    </linearGradient>
    <linearGradient
       inkscape:collect="always"
       xlink:href="#linearGradient6055"
       id="linearGradient5950"
       x1="302.36459"
       y1="439.99478"
       x2="301.67706"
       y2="466.66147"
       gradientUnits="userSpaceOnUse" />
    <linearGradient
       inkscape:collect="always"
       xlink:href="#linearGradient5944"
       id="linearGradient5952"
       x1="302.36459"
       y1="439.99478"
       x2="301.67706"
       y2="466.66147"
       gradientUnits="userSpaceOnUse" />
    <filter
       inkscape:collect="always"
       id="filter5964"
       color-interpolation-filters="sRGB">
      <feGaussianBlur
         inkscape:collect="always"
         stdDeviation="10.161655"
         id="feGaussianBlur5966" />
    </filter>
    <linearGradient
       inkscape:collect="always"
       xlink:href="#linearGradient5990"
       id="linearGradient6006"
       x1="213.66667"
       y1="405.58331"
       x2="214.66667"
       y2="435.58331"
       gradientUnits="userSpaceOnUse"
       gradientTransform="translate(20,0)" />
    <linearGradient
       inkscape:collect="always"
       xlink:href="#linearGradient6047"
       id="linearGradient6053"
       x1="233.66667"
       y1="405.58331"
       x2="234.66667"
       y2="435.58331"
       gradientUnits="userSpaceOnUse" />
  </defs>
  <sodipodi:namedview
     id="base"
     pagecolor="#ffffff"
     bordercolor="#666666"
     borderopacity="1.0"
     inkscape:pageopacity="0.0"
     inkscape:pageshadow="2"
     inkscape:zoom="1.2"
     inkscape:cx="79.589368"
     inkscape:cy="206.66848"
     inkscape:document-units="px"
     inkscape:current-layer="layer1"
     showgrid="false"
     fit-margin-top="10"
     fit-margin-left="10"
     fit-margin-right="10"
     fit-margin-bottom="10"
     inkscape:window-width="1440"
     inkscape:window-height="803"
     inkscape:window-x="0"
     inkscape:window-y="0"
     inkscape:window-maximized="1" />
  <metadata
     id="metadata5293">
    <rdf:RDF>
      <cc:Work
         rdf:about="">
        <dc:format>image/svg+xml</dc:format>
        <dc:type
           rdf:resource="http://purl.org/dc/dcmitype/StillImage" />
        <dc:title></dc:title>
      </cc:Work>
    </rdf:RDF>
  </metadata>
  <g
     id="layer1"
     inkscape:label="Layer 1"
     inkscape:groupmode="layer"
     transform="translate(-103.92765,-17.85444)">
    <path
       sodipodi:type="star"
       style="fill:#ffffff;fill-opacity:0.21333337;fill-rule:nonzero;stroke:none;filter:url(#filter5964)"
       id="path5954"
       sodipodi:sides="18"
       sodipodi:cx="294.62784"
       sodipodi:cy="111.66655"
       sodipodi:r1="171.95364"
       sodipodi:r2="85.976822"
       sodipodi:arg1="0.6051112"
       sodipodi:arg2="0.77964413"
       inkscape:flatsided="false"
       inkscape:rounded="0"
       inkscape:randomized="0"
       d="m 436.04919,209.48299 -80.27775,-37.37247 38.29381,79.84237 -62.65428,-62.57524 8.67672,88.12453 -37.47377,-80.23051 -21.98692,85.77759 -7.77338,-88.20881 -49.99861,73.08459 22.86461,-85.54781 -71.97973,51.57652 50.74478,-72.56849 -85.27903,23.84756 72.50438,-50.83635 -88.29242,-6.75776 85.51888,-22.97258 -80.65644,-36.548013 88.21855,7.662019 -63.29211,-61.930024 80.27776,37.372464 -38.29381,-79.842364 62.65427,62.575238 -8.67671,-88.124535 37.47377,80.230515 21.98692,-85.777587 7.77337,88.208808 49.99861,-73.084596 -22.8646,85.547817 71.97973,-51.576524 -50.74478,72.568496 85.27903,-23.847563 -72.50438,50.836344 88.29242,6.757768 -85.51889,22.972577 80.65645,36.54801 -88.21855,-7.66202 z"
       transform="translate(29.462783,111.95857)" />
    <text
       xml:space="preserve"
       style="font-size:56px;font-style:normal;font-variant:normal;font-weight:normal;font-stretch:normal;line-height:125%;letter-spacing:0px;word-spacing:0px;fill:#000000;fill-opacity:1;stroke:none;font-family:Adobe Garamond Pro;-inkscape-font-specification:Adobe Garamond Pro"
       x="255"
       y="267.66666"
       id="text5809"
       sodipodi:linespacing="125%"><tspan
         sodipodi:role="line"
         id="tspan5811"
         x="255"
         y="267.66666" /></text>
    <g
       id="g5911"
       transform="matrix(1,0,-0.06549995,1,18.514993,0)">
      <path
         inkscape:connector-curvature="0"
         style="fill:#b1b1b1;fill-opacity:1;fill-rule:nonzero;stroke:#000000;stroke-width:2;stroke-miterlimit:4;stroke-opacity:1;stroke-dasharray:none"
         d="m 333.476,123 c -59.09333,0 -106.65625,47.56292 -106.65625,106.65625 l 0,196.6875 213.3125,0 0,-196.6875 C 440.13225,170.56292 392.56933,123 333.476,123 z"
         id="path5924" />
      <path
         id="rect5296"
         d="m 325,131 c -59.09333,0 -106.65625,47.56292 -106.65625,106.65625 l 0,196.6875 213.3125,0 0,-196.6875 C 431.65625,178.56292 384.09333,131 325,131 z"
         style="fill:#9c9c9c;fill-opacity:1;fill-rule:nonzero;stroke:#000000;stroke-width:2;stroke-miterlimit:4;stroke-opacity:1;stroke-dasharray:none"
         inkscape:connector-curvature="0" />
      <text
         sodipodi:linespacing="96.000004%"
         id="text5813"
         y="207.95607"
         x="324.62961"
         style="font-size:48.89500046px;font-style:normal;font-variant:normal;font-weight:500;font-stretch:normal;text-align:center;line-height:96.00000381%;letter-spacing:0px;word-spacing:0px;text-anchor:middle;fill:#000000;fill-opacity:1;stroke:none;font-family:Hobo Std;-inkscape-font-specification:Hobo Std Medium"
         xml:space="preserve"><tspan
           style="font-style:normal;font-variant:normal;font-weight:normal;font-stretch:normal;line-height:96.00000381%;font-family:Adobe Garamond Pro;-inkscape-font-specification:Adobe Garamond Pro"
           y="207.95607"
           x="324.62961"
           id="tspan5815"
           sodipodi:role="line">RIP</tspan><tspan
           style="font-size:31.43249893px;font-style:normal;font-variant:normal;font-weight:normal;font-stretch:normal;line-height:96.00000381%;font-family:Adobe Garamond Pro;-inkscape-font-specification:Adobe Garamond Pro"
           id="tspan5817"
           y="244.76701"
           x="324.62961"
           sodipodi:role="line">Process 28201</tspan><tspan
           id="tspan5827"
           style="font-size:13.97000027px;font-style:normal;font-variant:normal;font-weight:normal;font-stretch:normal;line-height:96.00000381%;font-family:Adobe Garamond Pro;-inkscape-font-specification:Adobe Garamond Pro"
           y="264.81396"
           x="326.37585"
           sodipodi:role="line"> </tspan><tspan
           style="font-size:17.46249962px;font-style:normal;font-variant:normal;font-weight:normal;font-stretch:normal;line-height:96.00000381%;font-family:Adobe Garamond Pro;-inkscape-font-specification:Adobe Garamond Pro"
           id="tspan5823"
           y="280.25082"
           x="324.62961"
           sodipodi:role="line">(1369461200-1369461217)</tspan><tspan
           id="tspan5831"
           style="font-size:17.46249962px;font-style:normal;font-variant:normal;font-weight:normal;font-stretch:normal;line-height:96.00000381%;font-family:Adobe Garamond Pro;-inkscape-font-specification:Adobe Garamond Pro"
           y="297.01483"
           x="324.62961"
           sodipodi:role="line" /><tspan
           style="font-size:41.90999985px;font-style:normal;font-variant:normal;font-weight:normal;font-stretch:normal;line-height:96.00000381%;font-family:Adobe Garamond Pro;-inkscape-font-specification:Adobe Garamond Pro"
           id="tspan5821"
           y="327.95837"
           x="329.86835"
           sodipodi:role="line">died <tspan
   id="tspan5833"
   style="line-height:96.00000381%">of </tspan></tspan><tspan
           id="tspan5825"
           style="font-size:41.90999985px;font-style:normal;font-variant:normal;font-weight:normal;font-stretch:normal;line-height:96.00000381%;font-family:Adobe Garamond Pro;-inkscape-font-specification:Adobe Garamond Pro"
           y="368.19199"
           x="324.62961"
           sodipodi:role="line"><tspan
   id="tspan5835"
   style="line-height:96.00000381%">signal </tspan>11</tspan></text>
    </g>
    <path
       style="fill:url(#linearGradient5950);fill-opacity:1;stroke:none"
       d="m 147.42996,466.41835 c 0.40374,-37.02799 -7.24041,-63.64505 -33.50231,-80.67381 11.1995,-0.77034 30.93695,11.85839 40.31077,52.30825 11.29074,-72.79503 -5.11083,-54.20543 -14.64421,-58.28085 22.68422,-13.87926 31.5916,7.83166 27.60983,62.83955 18.19756,-32.4808 17.89881,-64.96159 14.12186,-97.44239 7.24567,22.25545 12.91944,47.13074 0.5032,102.15605 12.99646,-28.40679 26.54362,-56.96376 15.73602,-78.87853 10.19527,1.01856 18.13204,7.11873 2.09823,67.15272 4.90607,-26.75605 17.5284,-38.07957 31.20039,-47.30378 -9.43829,16.64533 -17.9971,32.7881 -12.1716,40.71126 10.88123,-19.00318 20.9042,-41.01029 36.02374,-45.1794 -7.46479,17.01127 -8.41529,29.13683 -7.03829,39.51675 7.97893,-15.93078 15.50699,-33.66504 25.60215,-41.13091 -5.40953,28.29895 0.17355,19.95589 0.68431,28.52052 4.61712,-20.287 26.25348,-30.84873 45.82545,-42.59011 -9.84761,14.97531 -25.25022,29.99128 -13.98602,42.21575 10.07508,-11.73305 20.15017,-20.44504 30.22525,-18.93823 -18.23353,17.11101 -15.03572,25.64949 -11.5517,34.07349 23.64441,-29.74246 38.33061,-38.58245 48.67941,-37.30183 -15.5664,22.4773 -14.31161,32.33872 -3.25447,34.84837 13.47788,-12.32662 25.16597,-25.05098 18.96436,-41.75082 9.99926,8.06948 6.62221,29.51527 3.64797,50.55825 7.73985,-21.3138 11.75727,-52.5541 25.49245,-57.88035 -13.57335,17.70075 -8.59744,35.40151 -4.9592,53.10226 9.17497,-27.97611 17.11099,-67.10273 30.47079,-57.41542 -18.54342,10.96399 -14.63299,36.89722 -14.0313,60.62462 11.14491,-32.38475 21.88767,-64.93037 43.83691,-92.99339 -16.85284,31.07407 -32.47559,62.32387 -34.03521,95.58269 7.0368,-22.42195 20.51771,-30.99546 35.24886,-36.88218 -13.45983,11.25321 -24.76011,28.11877 -31.97524,55.60101 16.76452,-15.46246 33.52905,-29.44005 50.29357,-18.73797 -26.80134,-4.37883 -36.76774,24.91221 -51.11373,45.44408"
       id="path5926"
       inkscape:connector-curvature="0"
       sodipodi:nodetypes="ccccccccccccccccccccccccccccccccc" />
    <path
       style="fill:url(#linearGradient5952);fill-opacity:1;stroke:none"
       d="m 305.21875,379.4375 c -12.91955,7.63101 -25.65146,18.29225 -28.625,33.78125 -0.94778,3.82281 -5.92705,2.23381 -5.90625,-1.28125 -1.06517,-5.74855 -4.98613,-10.91553 -3.65625,-17.15625 0.39623,-3.77803 -3.32395,4.38159 -4.4375,5.78125 -6.07179,10.96021 -10.93534,22.57648 -16.8125,33.65625 -3.76297,-14.02862 -3.42078,-29.10862 0.96875,-42.90625 -12.31,11.08942 -17.35209,27.55229 -26.625,40.625 -4.8279,1.32533 -6.40533,-5.73277 -7.125,-9.21875 -0.76527,-7.10895 1.87507,-13.99287 4.875,-20.28125 -5.91952,6.4882 -9.03128,14.86451 -13.09375,22.375 -2.35734,3.46531 -6.6419,0.19094 -5.625,-3.3125 0.0328,-4.92761 1.95423,-9.49241 2.5625,-14.34375 -4.63036,13.9062 -10.09647,27.83454 -17.0625,40.6875 -1.75506,2.68721 -4.12575,4.83225 -6.28125,7.21875 -1.52373,-16.48237 5.3343,-32.16313 5.875,-48.4375 -0.74396,2.8219 -2.13721,9.15831 -3.53125,13.125 -3.86199,12.3645 -10.00933,23.68883 -17.40625,34.28125 -0.75996,-20.76262 3.23761,-41.9156 -1.5625,-62.34375 1.11755,19.82757 -2.34335,39.46522 -6.84375,58.6875 -1.99638,-6.27036 -3.92447,-12.56328 -5.875,-18.84375 2.15031,9.62812 1.94695,19.75651 2.65625,29.40625 33.07715,0.41489 66.54078,2.56623 99.76413,3.64824 62.7557,2.54434 125.51141,5.08867 188.26712,7.63301 7.96147,-11.55011 13.62819,-24.7886 23.625,-34.75 -8.63951,5.28298 -14.90842,13.65423 -23.21875,19.0625 -5.03733,-0.24455 -1.75898,-6.97995 -0.93008,-9.7912 3.28659,-11.77325 7.57657,-23.30704 13.96133,-33.7088 -6.0167,6.55686 -8.46167,15.46032 -12.3125,23.1875 -2.85394,3.33203 -5.89809,-1.30521 -5.40625,-4.25 -0.30542,-3.48244 0.22049,-6.95598 0.625,-10.40625 -2.47637,6.89545 -5.482,13.57068 -8.5,20.25 -2.11634,-13.86643 -3.43853,-27.92334 -2.625,-41.96875 -4.18224,13.65139 -8.18896,27.35519 -12.6875,40.90625 -2.3489,-13.1148 -6.34164,-26.00275 -7.125,-39.34375 -3.52619,11.16821 -5.14398,23.54456 -11.59375,33.5 -3.76252,2.9232 -5.74752,-2.97001 -4.84375,-5.96875 0.9256,-9.25736 2.75362,-18.38437 2.875,-27.75 -4.52301,9.69331 -12.68681,16.91443 -20.375,24.09375 -9.34778,0.0919 -16.44988,-10.11216 -12.96875,-18.8125 1.10592,-5.2133 4.48491,-10.73708 6.46875,-14.78125 -15.24305,6.59826 -25.25218,20.72165 -35.956,32.88945 -2.71739,3.45184 -5.78111,9.33294 -7.38775,2.23555 -4.8643,-9.29717 -4.78117,-21.37089 2.1875,-29.46875 0.31734,-1.11879 -4.46163,3.01649 -5.96875,4.34375 -4.11585,3.98204 -7.75805,8.23352 -11.53125,12.53125 -9.80071,-6.57634 -10.16833,-20.83748 -3.59375,-29.78125 0.58365,-1.52298 3.40226,-4.95292 2.78125,-5 z"
       id="path5928"
       inkscape:connector-curvature="0" />
    <path
       style="fill:url(#linearGradient6006);fill-opacity:1;stroke:url(#linearGradient6053);stroke-width:1;stroke-miterlimit:4;stroke-opacity:1;stroke-dasharray:none"
       d="m 232.5,432.66666 c 3.28513,-8.43207 14.59646,-79.80467 -45,-114.16666 55.70375,24.69359 50.4935,77.97061 56.66667,115.83333"
       id="path5970"
       inkscape:connector-curvature="0"
       sodipodi:nodetypes="ccc" />
    <path
       sodipodi:type="arc"
       style="fill:#679b61;fill-opacity:1;fill-rule:nonzero;stroke:#287542;stroke-width:1.48713768;stroke-miterlimit:4;stroke-opacity:1;stroke-dasharray:none"
       id="path5972"
       sodipodi:cx="38.333332"
       sodipodi:cy="331.41666"
       sodipodi:rx="5.8333335"
       sodipodi:ry="17.083334"
       d="m 44.166666,331.41666 c 0,9.43486 -2.611673,17.08333 -5.833334,17.08333 -3.221661,0 -5.833333,-7.64847 -5.833333,-17.08333 0,-9.43487 2.611672,-17.08334 5.833333,-17.08334 3.221661,0 5.833334,7.64847 5.833334,17.08334 z"
       transform="matrix(0.61178107,0.31853382,-0.34992133,0.55690507,328.35148,157.13857)" />
    <path
       sodipodi:type="arc"
       style="fill:#cacd2f;fill-opacity:1;fill-rule:nonzero;stroke:none"
       id="path6010"
       sodipodi:cx="190.41667"
       sodipodi:cy="300.79166"
       sodipodi:rx="3.75"
       sodipodi:ry="10.208333"
       d="m 194.16667,300.79166 c 0,5.6379 -1.67893,10.20833 -3.75,10.20833 -2.07107,0 -3.75,-4.57043 -3.75,-10.20833 0,-5.63791 1.67893,-10.20834 3.75,-10.20834 2.07107,0 3.75,4.57043 3.75,10.20834 z"
       transform="matrix(0.99246229,-0.12255038,0.12255038,0.99246229,-38.66827,27.392068)"
       inkscape:transform-center-y="-16.127514"
       inkscape:transform-center-x="1.9914438" />
    <path
       inkscape:transform-center-y="-15.231502"
       transform="matrix(0.93732308,0.34846153,-0.34846153,0.93732308,121.16155,-44.815025)"
       d="m 194.16667,300.79166 c 0,5.6379 -1.67893,10.20833 -3.75,10.20833 -2.07107,0 -3.75,-4.57043 -3.75,-10.20833 0,-5.63791 1.67893,-10.20834 3.75,-10.20834 2.07107,0 3.75,4.57043 3.75,10.20834 z"
       sodipodi:ry="10.208333"
       sodipodi:rx="3.75"
       sodipodi:cy="300.79166"
       sodipodi:cx="190.41667"
       id="path6012"
       style="fill:#dadc15;fill-opacity:1;fill-rule:nonzero;stroke:none"
       sodipodi:type="arc"
       inkscape:transform-center-x="-5.6624987" />
    <path
       inkscape:transform-center-x="-10.274616"
       sodipodi:type="arc"
       style="fill:#dadc15;fill-opacity:1;fill-rule:nonzero;stroke:none"
       id="path6014"
       sodipodi:cx="190.41667"
       sodipodi:cy="300.79166"
       sodipodi:rx="3.75"
       sodipodi:ry="10.208333"
       d="m 194.16667,300.79166 c 0,5.6379 -1.67893,10.20833 -3.75,10.20833 -2.07107,0 -3.75,-4.57043 -3.75,-10.20833 0,-5.63791 1.67893,-10.20834 3.75,-10.20834 2.07107,0 3.75,4.57043 3.75,10.20834 z"
       transform="matrix(0.77473672,0.63228396,-0.63228396,0.77473672,242.10424,-47.312899)"
       inkscape:transform-center-y="-12.589474" />
    <path
       inkscape:transform-center-y="-7.9517428"
       transform="matrix(0.48933789,0.87209427,-0.87209427,0.48933789,372.47879,-2.493462)"
       d="m 194.16667,300.79166 c 0,5.6379 -1.67893,10.20833 -3.75,10.20833 -2.07107,0 -3.75,-4.57043 -3.75,-10.20833 0,-5.63791 1.67893,-10.20834 3.75,-10.20834 2.07107,0 3.75,4.57043 3.75,10.20834 z"
       sodipodi:ry="10.208333"
       sodipodi:rx="3.75"
       sodipodi:cy="300.79166"
       sodipodi:cx="190.41667"
       id="path6016"
       style="fill:#aeb129;fill-opacity:1;fill-rule:nonzero;stroke:none"
       sodipodi:type="arc"
       inkscape:transform-center-x="-14.17153" />
    <path
       inkscape:transform-center-x="-16.129981"
       sodipodi:type="arc"
       style="fill:#cdb22f;fill-opacity:1;fill-rule:nonzero;stroke:none"
       id="path6018"
       sodipodi:cx="190.41667"
       sodipodi:cy="300.79166"
       sodipodi:rx="3.75"
       sodipodi:ry="10.208333"
       d="m 194.16667,300.79166 c 0,5.6379 -1.67893,10.20833 -3.75,10.20833 -2.07107,0 -3.75,-4.57043 -3.75,-10.20833 0,-5.63791 1.67893,-10.20834 3.75,-10.20834 2.07107,0 3.75,4.57043 3.75,10.20834 z"
       transform="matrix(0.12131376,0.9926142,-0.9926142,0.12131376,480.76656,91.236514)"
       inkscape:transform-center-y="-1.9713505" />
    <path
       inkscape:transform-center-y="5.3842344"
       transform="matrix(-0.33133771,0.94351222,-0.94351222,-0.33133771,551.39157,244.09572)"
       d="m 194.16667,300.79166 c 0,5.6379 -1.67893,10.20833 -3.75,10.20833 -2.07107,0 -3.75,-4.57043 -3.75,-10.20833 0,-5.63791 1.67893,-10.20834 3.75,-10.20834 2.07107,0 3.75,4.57043 3.75,10.20834 z"
       sodipodi:ry="10.208333"
       sodipodi:rx="3.75"
       sodipodi:cy="300.79166"
       sodipodi:cx="190.41667"
       id="path6020"
       style="fill:#cacd2f;fill-opacity:1;fill-rule:nonzero;stroke:none"
       sodipodi:type="arc"
       inkscape:transform-center-x="-15.332071" />
    <path
       inkscape:transform-center-x="-12.037051"
       sodipodi:type="arc"
       style="fill:#cdb22f;fill-opacity:1;fill-rule:nonzero;stroke:none"
       id="path6022"
       sodipodi:cx="190.41667"
       sodipodi:cy="300.79166"
       sodipodi:rx="3.75"
       sodipodi:ry="10.208333"
       d="m 194.16667,300.79166 c 0,5.6379 -1.67893,10.20833 -3.75,10.20833 -2.07107,0 -3.75,-4.57043 -3.75,-10.20833 0,-5.63791 1.67893,-10.20834 3.75,-10.20834 2.07107,0 3.75,4.57043 3.75,10.20834 z"
       transform="matrix(-0.67179029,0.74074138,-0.74074138,-0.67179029,551.93262,390.64432)"
       inkscape:transform-center-y="10.91659" />
    <path
       inkscape:transform-center-y="14.814064"
       transform="matrix(-0.91163481,0.41100116,-0.41100116,-0.91163481,493.06163,529.47306)"
       d="m 194.16667,300.79166 c 0,5.6379 -1.67893,10.20833 -3.75,10.20833 -2.07107,0 -3.75,-4.57043 -3.75,-10.20833 0,-5.63791 1.67893,-10.20834 3.75,-10.20834 2.07107,0 3.75,4.57043 3.75,10.20834 z"
       sodipodi:ry="10.208333"
       sodipodi:rx="3.75"
       sodipodi:cy="300.79166"
       sodipodi:cx="190.41667"
       id="path6024"
       style="fill:#aeb129;fill-opacity:1;fill-rule:nonzero;stroke:none"
       sodipodi:type="arc"
       inkscape:transform-center-x="-6.6787727" />
    <path
       inkscape:transform-center-x="0.083343455"
       sodipodi:type="arc"
       style="fill:#dadc15;fill-opacity:1;fill-rule:nonzero;stroke:none"
       id="path6026"
       sodipodi:cx="190.41667"
       sodipodi:cy="300.79166"
       sodipodi:rx="3.75"
       sodipodi:ry="10.208333"
       d="m 194.16667,300.79166 c 0,5.6379 -1.67893,10.20833 -3.75,10.20833 -2.07107,0 -3.75,-4.57043 -3.75,-10.20833 0,-5.63791 1.67893,-10.20834 3.75,-10.20834 2.07107,0 3.75,4.57043 3.75,10.20834 z"
       transform="matrix(-0.99998683,-0.00512937,0.00512937,-0.99998683,377.95462,636.72253)"
       inkscape:transform-center-y="16.249793" />
    <path
       inkscape:transform-center-y="14.8309"
       transform="matrix(-0.91267035,-0.40869646,0.40869646,-0.91267035,233.38053,685.88547)"
       d="m 194.16667,300.79166 c 0,5.6379 -1.67893,10.20833 -3.75,10.20833 -2.07107,0 -3.75,-4.57043 -3.75,-10.20833 0,-5.63791 1.67893,-10.20834 3.75,-10.20834 2.07107,0 3.75,4.57043 3.75,10.20834 z"
       sodipodi:ry="10.208333"
       sodipodi:rx="3.75"
       sodipodi:cy="300.79166"
       sodipodi:cx="190.41667"
       id="path6028"
       style="fill:#cdb22f;fill-opacity:1;fill-rule:nonzero;stroke:none"
       sodipodi:type="arc"
       inkscape:transform-center-x="6.6413064" />
    <path
       inkscape:transform-center-x="11.705134"
       sodipodi:type="arc"
       style="fill:#cacd2f;fill-opacity:1;fill-rule:nonzero;stroke:none"
       id="path6030"
       sodipodi:cx="190.41667"
       sodipodi:cy="300.79166"
       sodipodi:rx="3.75"
       sodipodi:ry="10.208333"
       d="m 194.16667,300.79166 c 0,5.6379 -1.67893,10.20833 -3.75,10.20833 -2.07107,0 -3.75,-4.57043 -3.75,-10.20833 0,-5.63791 1.67893,-10.20834 3.75,-10.20834 2.07107,0 3.75,4.57043 3.75,10.20834 z"
       transform="matrix(-0.69364555,-0.72031647,0.72031647,-0.69364555,92.87803,675.78313)"
       inkscape:transform-center-y="11.271747" />
    <path
       inkscape:transform-center-y="5.7779579"
       transform="matrix(-0.35556591,-0.93465119,0.93465119,-0.35556591,-39.451009,609.41071)"
       d="m 194.16667,300.79166 c 0,5.6379 -1.67893,10.20833 -3.75,10.20833 -2.07107,0 -3.75,-4.57043 -3.75,-10.20833 0,-5.63791 1.67893,-10.20834 3.75,-10.20834 2.07107,0 3.75,4.57043 3.75,10.20834 z"
       sodipodi:ry="10.208333"
       sodipodi:rx="3.75"
       sodipodi:cy="300.79166"
       sodipodi:cx="190.41667"
       id="path6032"
       style="fill:#aeb129;fill-opacity:1;fill-rule:nonzero;stroke:none"
       sodipodi:type="arc"
       inkscape:transform-center-x="15.188078" />
    <path
       inkscape:transform-center-x="16.229732"
       sodipodi:type="arc"
       style="fill:#dadc15;fill-opacity:1;fill-rule:nonzero;stroke:none"
       id="path6034"
       sodipodi:cx="190.41667"
       sodipodi:cy="300.79166"
       sodipodi:rx="3.75"
       sodipodi:ry="10.208333"
       d="m 194.16667,300.79166 c 0,5.6379 -1.67893,10.20833 -3.75,10.20833 -2.07107,0 -3.75,-4.57043 -3.75,-10.20833 0,-5.63791 1.67893,-10.20834 3.75,-10.20834 2.07107,0 3.75,4.57043 3.75,10.20834 z"
       transform="matrix(0.04993248,-0.99875258,0.99875258,0.04993248,-136.98748,493.0568)"
       inkscape:transform-center-y="-0.811393" />
    <path
       inkscape:transform-center-y="-7.5750846"
       transform="matrix(0.46615965,-0.8847006,0.8847006,0.46615965,-180.08485,339.37805)"
       d="m 194.16667,300.79166 c 0,5.6379 -1.67893,10.20833 -3.75,10.20833 -2.07107,0 -3.75,-4.57043 -3.75,-10.20833 0,-5.63791 1.67893,-10.20834 3.75,-10.20834 2.07107,0 3.75,4.57043 3.75,10.20834 z"
       sodipodi:ry="10.208333"
       sodipodi:rx="3.75"
       sodipodi:cy="300.79166"
       sodipodi:cx="190.41667"
       id="path6036"
       style="fill:#cacd2f;fill-opacity:1;fill-rule:nonzero;stroke:none"
       sodipodi:type="arc"
       inkscape:transform-center-x="14.376394" />
    <path
       inkscape:transform-center-x="8.8467288"
       sodipodi:type="arc"
       style="fill:#cdb22f;fill-opacity:1;fill-rule:nonzero;stroke:none"
       id="path6038"
       sodipodi:cx="190.41667"
       sodipodi:cy="300.79166"
       sodipodi:rx="3.75"
       sodipodi:ry="10.208333"
       d="m 194.16667,300.79166 c 0,5.6379 -1.67893,10.20833 -3.75,10.20833 -2.07107,0 -3.75,-4.57043 -3.75,-10.20833 0,-5.63791 1.67893,-10.20834 3.75,-10.20834 2.07107,0 3.75,4.57043 3.75,10.20834 z"
       transform="matrix(0.83881687,-0.54441366,0.54441366,0.83881687,-143.15986,156.43387)"
       inkscape:transform-center-y="-13.630776" />
    <path
       sodipodi:type="arc"
       style="fill:#787400;fill-opacity:1;fill-rule:nonzero;stroke:none"
       id="path6008"
       sodipodi:cx="189.79167"
       sodipodi:cy="319.54166"
       sodipodi:rx="8.958333"
       sodipodi:ry="8.958333"
       d="m 198.75,319.54166 c 0,4.94755 -4.01078,8.95833 -8.95833,8.95833 -4.94755,0 -8.95833,-4.01078 -8.95833,-8.95833 0,-4.94755 4.01078,-8.95834 8.95833,-8.95834 4.94755,0 8.95833,4.01079 8.95833,8.95834 z" />
    <path
       style="fill:#ffffff;fill-opacity:0.38666669;stroke:none"
       d="m 189.02637,312.36151 c -3.87728,0 -7.00411,3.12683 -7.00411,7.00411 0,2.40366 1.19477,4.53868 3.03675,5.80411 -1.26148,-9.20175 4.70017,-11.10939 8.54697,-10.31025 0.28553,0.0593 0.54671,0.0657 0.78368,-0.0245 -1.28773,-1.51449 -3.21957,-2.47348 -5.36329,-2.47348 z"
       id="path6040"
       inkscape:connector-curvature="0"
       sodipodi:nodetypes="sscscs" />
  </g>
</svg>
