<?xml version="1.0" encoding="UTF-8" standalone="no"?>
<!-- Created with Inkscape (http://www.inkscape.org/) -->

<svg
   xmlns:dc="http://purl.org/dc/elements/1.1/"
   xmlns:cc="http://creativecommons.org/ns#"
   xmlns:rdf="http://www.w3.org/1999/02/22-rdf-syntax-ns#"
   xmlns:svg="http://www.w3.org/2000/svg"
   xmlns="http://www.w3.org/2000/svg"
   xmlns:sodipodi="http://sodipodi.sourceforge.net/DTD/sodipodi-0.dtd"
   xmlns:inkscape="http://www.inkscape.org/namespaces/inkscape"
   width="500"
   height="500"
   id="svg5039"
   version="1.1"
   inkscape:version="0.48.2 r9819"
   sodipodi:docname="drawing.svg"
   inkscape:export-filename="/Users/keegan/Desktop/peter.png"
   inkscape:export-xdpi="90"
   inkscape:export-ydpi="90">
  <defs
     id="defs5041" />
  <sodipodi:namedview
     id="base"
     pagecolor="#ffffff"
     bordercolor="#666666"
     borderopacity="1.0"
     inkscape:pageopacity="0.0"
     inkscape:pageshadow="2"
     inkscape:zoom="0.70710678"
     inkscape:cx="190.77192"
     inkscape:cy="160.1144"
     inkscape:document-units="px"
     inkscape:current-layer="layer1"
     showgrid="false"
     inkscape:window-width="1016"
     inkscape:window-height="718"
     inkscape:window-x="20"
     inkscape:window-y="20"
     inkscape:window-maximized="0" />
  <metadata
     id="metadata5044">
    <rdf:RDF>
      <cc:Work
         rdf:about="">
        <dc:format>image/svg+xml</dc:format>
        <dc:type
           rdf:resource="http://purl.org/dc/dcmitype/StillImage" />
        <dc:title></dc:title>
      </cc:Work>
    </rdf:RDF>
  </metadata>
  <g
     inkscape:label="Layer 1"
     inkscape:groupmode="layer"
     id="layer1"
     transform="translate(0,-552.36218)">
    <g
       id="g5820"
       transform="translate(14.795344,0)">
      <path
         d="m 186.336,815.47418 c -9.64799,0 -16.56,-9.93601 -16.56,-19.008 0,-9.79199 7.92001,-17.424 18,-17.424 10.36799,0 15.552,8.49601 15.552,17.712 0,9.93599 -6.19201,18.72 -16.992,18.72 m 12.96,-97.056 c -30.38397,0 -50.544,24.62404 -50.544,66.096 0,38.15996 16.70402,55.008 37.44,55.008 15.26398,0 36.576,-12.24003 36.576,-42.48 0,-16.55998 -10.08002,-36.432 -28.8,-36.432 -10.65599,0 -18.288,6.336 -20.736,6.336 -1.44,0 -2.448,-1.872 -2.448,-3.168 0,-9.93599 11.95201,-25.92 24.48,-25.92 7.91999,0 10.512,4.896 13.248,4.896 2.16,0 8.208,-16.848 8.208,-18 0,-5.03999 -14.4,-6.336 -17.424,-6.336"
         style="font-size:144px;font-style:normal;font-variant:normal;font-weight:bold;font-stretch:normal;line-height:125%;letter-spacing:0px;word-spacing:0px;fill:#505050;fill-opacity:1;stroke:none;font-family:Hobo Std;-inkscape-font-specification:Hobo Std Bold"
         id="path5566"
         inkscape:connector-curvature="0" />
      <path
         d="m 304.59525,835.92218 c 0,-8.06399 -0.576,-12.096 -0.576,-18.576 0,-13.10398 2.01601,-14.4 7.056,-14.4 3.456,0 7.92,1.44 10.656,1.44 1.584,0 1.872,-1.584 1.872,-5.616 0,-18.28798 -0.28801,-16.272 -5.472,-16.272 -9.21599,0 -11.232,-0.72001 -11.232,-12.096 0,-13.82398 4.608,-24.624 4.608,-25.92 0,-0.72 -0.576,-1.44 -1.44,-1.44 -4.752,0 -16.99201,10.22403 -22.752,35.28 -1.44,6.48 -13.104,8.784 -16.272,8.784 -2.448,0 -3.168,-0.432 -3.168,-2.16 0,-24.91197 41.04,-59.04 41.04,-61.632 0,-2.73599 -3.888,-2.736 -5.04,-2.736 l -15.84,0 c -8.49599,0 -42.48,47.66403 -42.48,74.448 0,6.624 0.57601,13.824 7.2,13.824 3.6,0 16.56001,-4.752 26.64,-4.752 2.592,0 5.184,0.43201 5.184,3.6 0,9.79199 -2.448,17.71201 -2.448,26.352 -0.144,4.32 0.864,5.472 4.32,5.472 5.75999,0 18.144,-1.152 18.144,-3.6"
         style="font-size:144px;font-style:normal;font-variant:normal;font-weight:bold;font-stretch:normal;line-height:125%;letter-spacing:0px;word-spacing:0px;fill:#505050;fill-opacity:1;stroke:none;font-family:Hobo Std;-inkscape-font-specification:Hobo Std Bold"
         id="path5568"
         inkscape:connector-curvature="0" />
      <path
         transform="translate(83,634.36218)"
         d="m 150,136.5 c 0,9.66498 -7.83502,17.5 -17.5,17.5 -9.66498,0 -17.5,-7.83502 -17.5,-17.5 0,-9.66498 7.83502,-17.5 17.5,-17.5 9.66498,0 17.5,7.83502 17.5,17.5 z"
         sodipodi:ry="17.5"
         sodipodi:rx="17.5"
         sodipodi:cy="136.5"
         sodipodi:cx="132.5"
         id="path5572"
         style="fill:#b9b9b9;fill-opacity:1;fill-rule:nonzero;stroke:#505050;stroke-width:9;stroke-linecap:round;stroke-linejoin:round;stroke-miterlimit:4;stroke-opacity:1;stroke-dasharray:none;stroke-dashoffset:0"
         sodipodi:type="arc" />
      <path
         transform="translate(85,636.36218)"
         d="m 188,131.5 c 0,9.1127 -7.3873,16.5 -16.5,16.5 -9.1127,0 -16.5,-7.3873 -16.5,-16.5 0,-9.1127 7.3873,-16.5 16.5,-16.5 9.1127,0 16.5,7.3873 16.5,16.5 z"
         sodipodi:ry="16.5"
         sodipodi:rx="16.5"
         sodipodi:cy="131.5"
         sodipodi:cx="171.5"
         id="path5574"
         style="fill:#b9b9b9;fill-opacity:1;fill-rule:nonzero;stroke:#505050;stroke-width:9;stroke-linecap:round;stroke-linejoin:round;stroke-miterlimit:4;stroke-opacity:1;stroke-dasharray:none;stroke-dashoffset:0"
         sodipodi:type="arc" />
      <path
         transform="translate(83,634.36218)"
         d="m 139,130 c 0,3.31371 -2.91015,6 -6.5,6 -3.58985,0 -6.5,-2.68629 -6.5,-6 0,-3.31371 2.91015,-6 6.5,-6 3.58985,0 6.5,2.68629 6.5,6 z"
         sodipodi:ry="6"
         sodipodi:rx="6.5"
         sodipodi:cy="130"
         sodipodi:cx="132.5"
         id="path5576"
         style="fill:#000000;fill-opacity:1;fill-rule:nonzero;stroke:#000000;stroke-width:9;stroke-linecap:round;stroke-linejoin:round;stroke-miterlimit:4;stroke-opacity:1;stroke-dasharray:none;stroke-dashoffset:0"
         sodipodi:type="arc" />
      <path
         transform="translate(83,628.36218)"
         d="m 176,135.5 c 0,4.14214 -3.13401,7.5 -7,7.5 -3.86599,0 -7,-3.35786 -7,-7.5 0,-4.14214 3.13401,-7.5 7,-7.5 3.86599,0 7,3.35786 7,7.5 z"
         sodipodi:ry="7.5"
         sodipodi:rx="7"
         sodipodi:cy="135.5"
         sodipodi:cx="169"
         id="path5578"
         style="fill:#000000;fill-opacity:1;fill-rule:nonzero;stroke:#000000;stroke-width:9;stroke-linecap:round;stroke-linejoin:round;stroke-miterlimit:4;stroke-opacity:1;stroke-dasharray:none;stroke-dashoffset:0"
         sodipodi:type="arc" />
      <path
         inkscape:connector-curvature="0"
         id="path5580"
         d="m 194,739.36218 30,-16 4,19 -34,3 z"
         style="fill:#000000;fill-opacity:1;stroke:#000000;stroke-width:1px;stroke-linecap:butt;stroke-linejoin:miter;stroke-opacity:1" />
      <path
         inkscape:connector-curvature="0"
         id="path5582"
         d="m 259,724.36218 -5,11 38,8 5,-6 z"
         style="fill:#000000;fill-opacity:1;stroke:#000000;stroke-width:1px;stroke-linecap:butt;stroke-linejoin:miter;stroke-opacity:1" />
      <path
         inkscape:connector-curvature="0"
         id="path5584"
         d="m 185.79605,816.84885 c 12.06559,-13.09281 50.18382,-13.09901 86.07262,-10.27156 35.88879,2.82745 28.43917,8.25914 28.43917,8.25914 0,0 -80.74978,-6.36177 -91.73992,5.81267 -10.99013,12.17444 -22.77187,-3.80025 -22.77187,-3.80025 z"
         style="fill:#000000;fill-opacity:1;stroke:#000000;stroke-width:1px;stroke-linecap:butt;stroke-linejoin:miter;stroke-opacity:1" />
    </g>
    <text
       xml:space="preserve"
       style="font-size:20px;font-style:normal;font-variant:normal;font-weight:500;font-stretch:normal;line-height:125%;letter-spacing:0px;word-spacing:0px;fill:#000000;fill-opacity:1;stroke:none;font-family:Hobo Std;-inkscape-font-specification:Hobo Std Medium"
       x="113.8625"
       y="697.36218"
       id="text5586"
       sodipodi:linespacing="125%"><tspan
         sodipodi:role="line"
         id="tspan5588"
         x="113.8625"
         y="697.36218">64!? What are you doing here?</tspan></text>
    <text
       sodipodi:linespacing="125%"
       id="text5613"
       y="879.36218"
       x="250.72296"
       style="font-size:20px;font-style:normal;font-variant:normal;font-weight:500;font-stretch:normal;text-align:center;line-height:125%;letter-spacing:0px;word-spacing:0px;text-anchor:middle;fill:#000000;fill-opacity:1;stroke:none;font-family:Hobo Std;-inkscape-font-specification:Hobo Std Medium"
       xml:space="preserve"><tspan
         y="879.36218"
         x="253.61359"
         id="tspan5615"
         sodipodi:role="line">Go back to computer science </tspan><tspan
         y="904.36218"
         x="250.72296"
         sodipodi:role="line"
         id="tspan5617">where you belong.</tspan></text>
    <rect
       style="fill:none;stroke:#b2b2b2;stroke-width:4.0999999;stroke-linecap:round;stroke-linejoin:round;stroke-miterlimit:4;stroke-opacity:1;stroke-dasharray:none;stroke-dashoffset:0"
       id="rect5806"
       width="364"
       height="293"
       x="68.972969"
       y="649.36218" />
    <flowRoot
       xml:space="preserve"
       id="flowRoot5812"
       style="font-size:22px;font-style:normal;font-variant:normal;font-weight:normal;font-stretch:normal;line-height:125%;letter-spacing:0px;word-spacing:0px;fill:#000000;fill-opacity:1;stroke:none;font-family:OCR A Std;-inkscape-font-specification:OCR A Std"
       transform="translate(-2,561.36218)"><flowRegion
         id="flowRegion5814"><rect
           id="rect5816"
           width="495"
           height="49"
           x="5"
           y="408"
           style="font-size:22px;font-style:normal;font-variant:normal;font-weight:normal;font-stretch:normal;font-family:OCR A Std;-inkscape-font-specification:OCR A Std" /></flowRegion><flowPara
         id="flowPara5818"
         style="font-size:20px;text-align:center;text-anchor:middle">The kind of dreams that result from falling asleep doing homework</flowPara></flowRoot>  </g>
</svg>
