<?xml version="1.0" encoding="UTF-8" standalone="no"?>
<!-- Created with Inkscape (http://www.inkscape.org/) -->

<svg
   xmlns:dc="http://purl.org/dc/elements/1.1/"
   xmlns:cc="http://creativecommons.org/ns#"
   xmlns:rdf="http://www.w3.org/1999/02/22-rdf-syntax-ns#"
   xmlns:svg="http://www.w3.org/2000/svg"
   xmlns="http://www.w3.org/2000/svg"
   xmlns:sodipodi="http://sodipodi.sourceforge.net/DTD/sodipodi-0.dtd"
   xmlns:inkscape="http://www.inkscape.org/namespaces/inkscape"
   width="468.33572"
   height="540.33569"
   id="svg5850"
   version="1.1"
   inkscape:version="0.48.2 r9819"
   sodipodi:docname="drawing-1.svg"
   inkscape:export-filename="/Users/keegan/Desktop/peter.png"
   inkscape:export-xdpi="90"
   inkscape:export-ydpi="90">
  <defs
     id="defs5852" />
  <sodipodi:namedview
     id="base"
     pagecolor="#ffffff"
     bordercolor="#666666"
     borderopacity="1.0"
     inkscape:pageopacity="0.0"
     inkscape:pageshadow="2"
     inkscape:zoom="1"
     inkscape:cx="241.95253"
     inkscape:cy="263.56446"
     inkscape:document-units="px"
     inkscape:current-layer="layer1"
     showgrid="false"
     inkscape:window-width="986"
     inkscape:window-height="765"
     inkscape:window-x="38"
     inkscape:window-y="0"
     inkscape:window-maximized="0"
     fit-margin-top="10"
     fit-margin-left="10"
     fit-margin-right="10"
     fit-margin-bottom="10" />
  <metadata
     id="metadata5855">
    <rdf:RDF>
      <cc:Work
         rdf:about="">
        <dc:format>image/svg+xml</dc:format>
        <dc:type
           rdf:resource="http://purl.org/dc/dcmitype/StillImage" />
        <dc:title></dc:title>
      </cc:Work>
    </rdf:RDF>
  </metadata>
  <g
     inkscape:label="Layer 1"
     inkscape:groupmode="layer"
     id="layer1"
     transform="translate(-73.664279,-478.36218)">
    <path
       sodipodi:type="arc"
       style="fill:#ffffff;stroke:#b2b2b2;stroke-width:2.70000000000000018;stroke-linecap:round;stroke-linejoin:round;stroke-miterlimit:4;stroke-opacity:1;stroke-dasharray:none;stroke-dashoffset:0;fill-opacity:1"
       id="path6471"
       sodipodi:cx="416"
       sodipodi:cy="48"
       sodipodi:rx="88"
       sodipodi:ry="46"
       d="m 504,48 a 88,46 0 1 1 -176,0 88,46 0 1 1 176,0 z"
       transform="translate(26,497.36218)" />
    <path
       sodipodi:type="arc"
       style="fill:#ffffff;stroke:#dddddd;stroke-width:2.70000000000000018;stroke-linecap:round;stroke-linejoin:round;stroke-miterlimit:4;stroke-opacity:1;stroke-dasharray:none;stroke-dashoffset:0;fill-opacity:1"
       id="path6473"
       sodipodi:cx="290"
       sodipodi:cy="95"
       sodipodi:rx="8"
       sodipodi:ry="7"
       d="m 298,95 c 0,3.865993 -3.58172,7 -8,7 -4.41828,0 -8,-3.134007 -8,-7 0,-3.865993 3.58172,-7 8,-7 4.41828,0 8,3.134007 8,7 z"
       transform="translate(0,552.36218)" />
    <path
       sodipodi:type="arc"
       style="fill:#ffffff;stroke:#cccccc;stroke-width:2.70000000000000018;stroke-linecap:round;stroke-linejoin:round;stroke-miterlimit:4;stroke-opacity:1;stroke-dasharray:none;stroke-dashoffset:0;fill-opacity:1"
       id="path6475"
       sodipodi:cx="310"
       sodipodi:cy="77"
       sodipodi:rx="13"
       sodipodi:ry="8"
       d="m 323,77 a 13,8 0 1 1 -26,0 13,8 0 1 1 26,0 z"
       transform="translate(-4,543.36218)" />
    <path
       sodipodi:type="arc"
       style="fill:#ffffff;stroke:#c0c0c0;stroke-width:2.70000000000000018;stroke-linecap:round;stroke-linejoin:round;stroke-miterlimit:4;stroke-opacity:1;stroke-dasharray:none;stroke-dashoffset:0;fill-opacity:1"
       id="path6477"
       sodipodi:cx="340.5"
       sodipodi:cy="60"
       sodipodi:rx="23.5"
       sodipodi:ry="11"
       d="m 364,60 a 23.5,11 0 1 1 -47,0 23.5,11 0 1 1 47,0 z"
       transform="translate(4,536.36218)" />
    <rect
       style="fill:#ffffff;fill-opacity:1;fill-rule:nonzero;stroke:#b2b2b2;stroke-width:4.0999999;stroke-linecap:round;stroke-linejoin:round;stroke-miterlimit:4;stroke-opacity:1;stroke-dasharray:none;stroke-dashoffset:0"
       id="rect6373"
       width="12.857142"
       height="198.57143"
       x="321.42856"
       y="805.2193"
       ry="6.4285712" />
    <rect
       style="fill:#ffffff;fill-opacity:1;fill-rule:nonzero;stroke:#b2b2b2;stroke-width:4.0999999;stroke-linecap:round;stroke-linejoin:round;stroke-miterlimit:4;stroke-opacity:1;stroke-dasharray:none;stroke-dashoffset:0"
       id="rect6375"
       width="34.285713"
       height="11.428572"
       x="311.42856"
       y="995.2193"
       ry="5.7142859" />
    <rect
       ry="6.4285712"
       y="805.2193"
       x="157.14284"
       height="198.57143"
       width="12.857142"
       id="rect6377"
       style="fill:#ffffff;fill-opacity:1;fill-rule:nonzero;stroke:#b2b2b2;stroke-width:4.0999999;stroke-linecap:round;stroke-linejoin:round;stroke-miterlimit:4;stroke-opacity:1;stroke-dasharray:none;stroke-dashoffset:0" />
    <rect
       ry="5.7142859"
       y="995.2193"
       x="147.14284"
       height="11.428572"
       width="34.285713"
       id="rect6379"
       style="fill:#ffffff;fill-opacity:1;fill-rule:nonzero;stroke:#b2b2b2;stroke-width:4.0999999;stroke-linecap:round;stroke-linejoin:round;stroke-miterlimit:4;stroke-opacity:1;stroke-dasharray:none;stroke-dashoffset:0" />
    <rect
       style="fill:#ffffff;fill-opacity:1;fill-rule:nonzero;stroke:#b2b2b2;stroke-width:4.0999999;stroke-linecap:round;stroke-linejoin:round;stroke-miterlimit:4;stroke-opacity:1;stroke-dasharray:none;stroke-dashoffset:0"
       id="rect6381"
       width="124.28571"
       height="192.85715"
       x="184.28571"
       y="676.64789"
       ry="11.428572" />
    <path
       style="fill:#ffffff;fill-opacity:1;fill-rule:nonzero;stroke:#b2b2b2;stroke-width:4.05408049;stroke-linecap:round;stroke-linejoin:round;stroke-miterlimit:4;stroke-opacity:1;stroke-dashoffset:0"
       d="m 237.482,714.93359 21.80369,0 c 24.13858,0 45.79365,19.53538 43.57145,43.57145 l -7,75.71426 c -2.2222,24.03607 -12.43287,43.57144 -36.57145,43.57144 l -21.80369,0 c -24.13858,0 -34.34925,-19.53537 -36.57145,-43.57144 l -7,-75.71426 c -2.2222,-24.03607 19.43287,-43.57145 43.57145,-43.57145 z"
       id="rect6406"
       inkscape:connector-curvature="0"
       sodipodi:nodetypes="sssssssss" />
    <rect
       style="fill:#ffffff;fill-opacity:1;fill-rule:nonzero;stroke:#b2b2b2;stroke-width:4.0999999;stroke-linecap:round;stroke-linejoin:round;stroke-miterlimit:4;stroke-opacity:1;stroke-dasharray:none;stroke-dashoffset:0"
       id="rect6385"
       width="14.285714"
       height="108.57143"
       x="187.14287"
       y="870.93359"
       ry="7.1428571" />
    <rect
       ry="7.1428571"
       y="870.93359"
       x="282.85715"
       height="108.57143"
       width="14.285714"
       id="rect6387"
       style="fill:#ffffff;fill-opacity:1;fill-rule:nonzero;stroke:#b2b2b2;stroke-width:4.0999999;stroke-linecap:round;stroke-linejoin:round;stroke-miterlimit:4;stroke-opacity:1;stroke-dasharray:none;stroke-dashoffset:0" />
    <rect
       style="fill:#ffffff;fill-opacity:1;fill-rule:nonzero;stroke:#b2b2b2;stroke-width:4.0999999;stroke-linecap:round;stroke-linejoin:round;stroke-miterlimit:4;stroke-opacity:1;stroke-dasharray:none;stroke-dashoffset:0"
       id="rect6383"
       width="137.14285"
       height="18.571428"
       x="177.14285"
       y="308.57144"
       transform="translate(0,552.36218)"
       ry="9.2857141" />
    <rect
       ry="31.428589"
       y="687.64789"
       x="176.28571"
       height="123.85712"
       width="152.28571"
       id="rect6454"
       style="fill:#ffffff;fill-opacity:1;fill-rule:nonzero;stroke:#b2b2b2;stroke-width:4.0999999;stroke-linecap:round;stroke-linejoin:round;stroke-miterlimit:4;stroke-opacity:1;stroke-dasharray:none;stroke-dashoffset:0" />
    <path
       sodipodi:type="arc"
       style="fill:#ffffff;fill-opacity:1;fill-rule:nonzero;stroke:#b2b2b2;stroke-width:6.0999999;stroke-linecap:round;stroke-linejoin:round;stroke-miterlimit:4;stroke-opacity:1;stroke-dasharray:none;stroke-dashoffset:0"
       id="path6410"
       sodipodi:cx="262.85715"
       sodipodi:cy="197.14285"
       sodipodi:rx="55.714287"
       sodipodi:ry="65.714287"
       d="m 318.57143,197.14285 c 0,36.293 -24.94413,65.71429 -55.71428,65.71429 -30.77015,0 -55.71429,-29.42129 -55.71429,-65.71429 0,-36.293 24.94414,-65.71428 55.71429,-65.71428 30.77015,0 55.71428,29.42128 55.71428,65.71428 z"
       transform="translate(-11.428572,521.79076)" />
    <path
       style="fill:#ffffff;fill-opacity:1;stroke:#b2b2b2;stroke-width:4.0999999;stroke-linecap:round;stroke-linejoin:round;stroke-miterlimit:4;stroke-opacity:1;stroke-dasharray:none;stroke-dashoffset:0"
       d="m 111.4375,200 0,11.4375 c 0,30.07429 24.20696,54.28125 54.28125,54.28125 l 171.4375,0 c 30.07429,0 54.28125,-24.20696 54.28125,-54.28125 l 0,-11.4375 -280,0 z"
       transform="translate(0,552.36218)"
       id="rect5860"
       inkscape:connector-curvature="0" />
    <rect
       style="fill:#ffffff;fill-opacity:1;stroke:#b2b2b2;stroke-width:4.0999999;stroke-linecap:round;stroke-linejoin:round;stroke-miterlimit:4;stroke-opacity:1;stroke-dasharray:none;stroke-dashoffset:0"
       id="rect5858"
       width="335.71429"
       height="22.857143"
       x="85.714279"
       y="739.505"
       ry="11.428572" />
    <path
       transform="translate(0,552.36218)"
       style="fill:#ffffff;fill-opacity:1;fill-rule:nonzero;stroke:#b2b2b2;stroke-width:4.0999999;stroke-linecap:round;stroke-linejoin:round;stroke-miterlimit:4;stroke-opacity:1;stroke-dashoffset:0"
       d="m 275.00001,277.14285 c 9.10143,0 19.48353,7.3293 19.28572,16.42857 L 291.42859,425 c -0.19781,9.09928 -7.32715,16.42857 -16.42858,16.42857 -9.10143,0 -16.23076,-7.32929 -16.42857,-16.42857 L 255.7143,293.57142 c -0.19781,-9.09927 10.18428,-16.42857 19.28571,-16.42857 z"
       id="rect6389"
       inkscape:connector-curvature="0"
       sodipodi:nodetypes="sssssss" />
    <path
       style="fill:#ffffff;fill-opacity:1;fill-rule:nonzero;stroke:#b2b2b2;stroke-width:4.0999999;stroke-linecap:round;stroke-linejoin:round;stroke-miterlimit:4;stroke-opacity:1;stroke-dashoffset:0"
       d="m 220.98008,829.41016 c 9.07737,0.66134 24.99084,9.18663 23.74017,18.20172 l -18.09872,130.45833 c -1.25068,9.01509 -8.50152,15.85274 -17.57889,15.19141 -9.07737,-0.66134 -15.85273,-8.50153 -15.1914,-17.5789 l 9.54995,-131.08115 c 0.66134,-9.07737 8.50152,-15.85274 17.57889,-15.19141 z"
       id="rect6391"
       inkscape:connector-curvature="0"
       sodipodi:nodetypes="sssssss" />
    <path
       style="fill:#ffffff;fill-opacity:1;fill-rule:nonzero;stroke:#b2b2b2;stroke-width:4.01133299;stroke-linecap:round;stroke-linejoin:round;stroke-miterlimit:4;stroke-opacity:1;stroke-dasharray:none;stroke-dashoffset:0"
       d="m 210.27314,968.08093 c -12.49986,0 -22.55439,11.47304 -22.55439,25.71875 l 0,5.71875 45.10879,0 0,-5.71875 c 0,-14.24571 -10.05453,-25.71875 -22.5544,-25.71875 z"
       id="rect6397"
       inkscape:connector-curvature="0" />
    <path
       id="path6402"
       d="m 275.91079,968.08093 c -12.49987,0 -22.5544,11.47304 -22.5544,25.71875 l 0,5.71875 45.10879,0 0,-5.71875 c 0,-14.24571 -10.05453,-25.71875 -22.55439,-25.71875 z"
       style="fill:#ffffff;fill-opacity:1;fill-rule:nonzero;stroke:#b2b2b2;stroke-width:4.01133299;stroke-linecap:round;stroke-linejoin:round;stroke-miterlimit:4;stroke-opacity:1;stroke-dasharray:none;stroke-dashoffset:0"
       inkscape:connector-curvature="0" />
    <g
       id="g6441">
      <path
         transform="translate(0,552.36218)"
         inkscape:connector-curvature="0"
         id="path6416"
         d="m 200,190 c 7.14286,29.28571 5.71429,51.42857 5.71429,51.42857 0,0 37.85714,-37.85714 20,-57.14286 C 207.85714,165 200,190 200,190 z"
         style="fill:#ffffff;fill-opacity:1;stroke:#b2b2b2;stroke-width:1px;stroke-linecap:butt;stroke-linejoin:miter;stroke-opacity:1" />
      <path
         transform="translate(0,552.36218)"
         inkscape:connector-curvature="0"
         id="path6418"
         d="m 265,220 5,27.85714 c 0,0 15,-10 10,-36.42857 C 275,185 265,220 265,220 z"
         style="fill:#ffffff;fill-opacity:1;stroke:#b2b2b2;stroke-width:1px;stroke-linecap:butt;stroke-linejoin:miter;stroke-opacity:1" />
      <path
         sodipodi:nodetypes="zccccccccccczzz"
         inkscape:connector-curvature="0"
         id="path6412"
         d="m 194.28571,720.93361 c -2.38257,14.27065 5.40594,89.49646 7.14286,84.28571 0.92898,-18.09524 -2.0297,-36.19047 11.42857,-54.28571 2.75246,11.32772 9.72681,13.00539 0,52.85714 13.00713,-14.26955 15.82066,-29.33066 20,-44.28571 5.57462,22.92557 -9.36431,48.13042 -20,72.85714 19.98849,-24.0505 40.54177,-47.9598 45.71429,-75.71429 0.59567,25.27792 -6.8347,47.8805 -11.42857,71.42858 10.98046,-25.4036 32.3372,-47.9773 24.28571,-78.57143 2.51627,23.1993 5.70205,44.55745 15.71429,47.14285 L 290,750.93361 c 3.62099,8.43928 10.13199,9.17183 8.57143,31.42857 0,0 7.58716,-31.90724 7.14286,-55.71429 -0.4443,-23.80705 -3.56346,-70.35463 -52.85715,-72.85714 -49.29369,-2.5025 -56.18886,52.87221 -58.57143,67.14286 z"
         style="fill:#ffffff;fill-opacity:1;stroke:#b2b2b2;stroke-width:1px;stroke-linecap:butt;stroke-linejoin:miter;stroke-opacity:1" />
      <path
         transform="translate(0,552.36218)"
         inkscape:connector-curvature="0"
         id="path6414"
         d="m 240,191.42857 c 4.28571,45 -8.57143,79.28572 -8.57143,79.28572 0,0 35,-48.57143 33.57143,-74.28572"
         style="fill:#ffffff;fill-opacity:1;stroke:#b2b2b2;stroke-width:1px;stroke-linecap:butt;stroke-linejoin:miter;stroke-opacity:1" />
      <path
         sodipodi:nodetypes="cc"
         transform="translate(0,552.36218)"
         inkscape:connector-curvature="0"
         id="path6420"
         d="m 213.99729,201.43228 c -12.85715,-32.14285 9.57414,-69.28942 9.57414,-69.28942"
         style="fill:none;stroke:#b2b2b2;stroke-width:1px;stroke-linecap:butt;stroke-linejoin:miter;stroke-opacity:1" />
      <path
         transform="translate(0,552.36218)"
         inkscape:connector-curvature="0"
         id="path6422"
         d="m 240,192.85714 c -4.28571,-52.85714 3.57143,-55 3.57143,-55"
         style="fill:none;stroke:#b2b2b2;stroke-width:1px;stroke-linecap:butt;stroke-linejoin:miter;stroke-opacity:1" />
      <path
         sodipodi:nodetypes="cc"
         transform="translate(0,552.36218)"
         inkscape:connector-curvature="0"
         id="path6424"
         d="M 271.68112,199.85578 C 269.34877,175.36611 274.28422,163.55576 265,142.14286"
         style="fill:none;stroke:#b2b2b2;stroke-width:1px;stroke-linecap:butt;stroke-linejoin:miter;stroke-opacity:1" />
      <path
         transform="translate(0,552.36218)"
         inkscape:connector-curvature="0"
         id="path6426"
         d="m 277.85714,136.42857 c 15,30 11.42857,65 11.42857,65"
         style="fill:none;stroke:#b2b2b2;stroke-width:1px;stroke-linecap:butt;stroke-linejoin:miter;stroke-opacity:1" />
    </g>
    <g
       style="font-size:40px;font-style:normal;font-variant:normal;font-weight:normal;font-stretch:normal;line-height:125%;letter-spacing:0px;word-spacing:0px;fill:#8b8b8b;fill-opacity:1;stroke:none;font-family:Nimbus Mono L;-inkscape-font-specification:Nimbus Mono L"
       id="text6458"
       transform="translate(33.029437,-51.435029)">
      <path
         d="m 405.11325,584.78735 c -4e-5,2.84377 -0.39197,5.66018 -1.17578,8.44922 -0.76566,2.77085 -1.93233,5.25001 -3.5,7.4375 -1.76826,2.47917 -3.87373,4.35678 -6.31641,5.63281 -2.4245,1.25782 -5.09507,1.94141 -8.01172,2.05079 l -2.625,11.375 -5.08593,0 2.625,-11.375 c -1.112,-0.0547 -2.33335,-0.22787 -3.66407,-0.51954 -1.33074,-0.29166 -2.55209,-0.77473 -3.66406,-1.44921 -1.13021,-0.67448 -2.06901,-1.56771 -2.8164,-2.67969 -0.72918,-1.1302 -1.09376,-2.53385 -1.09375,-4.21094 -10e-6,-0.43749 0.0365,-0.92056 0.10937,-1.44922 0.0729,-0.52863 0.13672,-0.89322 0.19141,-1.09375 l 1.96875,-7.08203 c 0.18228,-0.71092 0.33723,-1.40363 0.46484,-2.07812 0.14583,-0.69269 0.21874,-1.29425 0.21875,-1.80469 -10e-6,-1.02081 -0.1823,-1.70441 -0.54687,-2.05078 -0.34636,-0.34633 -1.03907,-0.51951 -2.07813,-0.51953 -0.38282,2e-5 -0.90235,0.082 -1.55859,0.24609 -0.65626,0.16409 -1.14844,0.29169 -1.47657,0.38281 l 0.41016,-1.75 c 1.42187,-0.63799 2.67968,-1.13018 3.77344,-1.47656 1.11197,-0.34633 1.99608,-0.5195 2.65234,-0.51953 1.45833,3e-5 2.53385,0.33727 3.22656,1.01172 0.6927,0.6745 1.03905,1.64976 1.03907,2.92578 -2e-5,0.3646 -0.0365,0.81122 -0.10938,1.33984 -0.0547,0.51044 -0.16407,1.07554 -0.32812,1.69531 l -2.21485,8.53125 c -0.1823,0.69272 -0.31902,1.37632 -0.41015,2.05079 -0.0912,0.65626 -0.13673,1.07553 -0.13672,1.25781 -10e-6,1.54948 0.23697,2.8073 0.71094,3.77344 0.49217,0.94792 1.09373,1.65885 1.80468,2.13281 0.67447,0.45573 1.40364,0.76563 2.1875,0.92969 0.80207,0.16406 1.41275,0.25521 1.83203,0.27343 l 5.87891,-25.48437 4.75781,-0.32813 0.32813,0.41016 -5.87891,25.40234 c 2.0781,-0.0911 4.02862,-0.59244 5.85156,-1.5039 1.82289,-0.92969 3.36326,-2.09635 4.6211,-3.5 1.27601,-1.4401 2.27861,-3.06249 3.00781,-4.86719 0.72913,-1.80467 1.09372,-3.69139 1.09375,-5.66016 -3e-5,-1.03904 -0.14587,-1.84112 -0.4375,-2.40625 -0.27347,-0.58331 -0.58337,-1.09373 -0.92969,-1.53125 -0.34638,-0.43748 -0.66539,-0.90232 -0.95703,-1.39453 -0.27347,-0.49216 -0.41019,-1.19398 -0.41015,-2.10547 -4e-5,-1.0208 0.34632,-1.81377 1.03906,-2.3789 0.69267,-0.58331 1.44918,-0.87498 2.26953,-0.875 0.96611,2e-5 1.76819,0.39195 2.40625,1.17578 0.63798,0.78388 0.95699,1.987 0.95703,3.60937"
         style="font-size:56px;font-style:italic;fill:#8b8b8b;font-family:Georgia;-inkscape-font-specification:Georgia;fill-opacity:1"
         id="path6463"
         inkscape:connector-curvature="0" />
      <path
         d="m 417.74606,604.44751 c -10e-6,1.02084 -0.37371,1.89583 -1.12109,2.625 -0.72918,0.71094 -1.60418,1.06641 -2.625,1.06641 -1.02084,0 -1.90495,-0.35547 -2.65234,-1.06641 -0.72917,-0.72917 -1.09376,-1.60416 -1.09375,-2.625 -10e-6,-1.02083 0.36458,-1.89583 1.09375,-2.625 0.74739,-0.74739 1.6315,-1.12109 2.65234,-1.12109 1.02082,0 1.89582,0.3737 2.625,1.12109 0.74738,0.72917 1.12108,1.60417 1.12109,2.625"
         style="font-size:56px;font-style:italic;fill:#8b8b8b;font-family:Georgia;-inkscape-font-specification:Georgia;fill-opacity:1"
         id="path6465"
         inkscape:connector-curvature="0" />
      <path
         d="m 432.83981,604.44751 c -10e-6,1.02084 -0.37371,1.89583 -1.12109,2.625 -0.72918,0.71094 -1.60418,1.06641 -2.625,1.06641 -1.02084,0 -1.90495,-0.35547 -2.65234,-1.06641 -0.72917,-0.72917 -1.09376,-1.60416 -1.09375,-2.625 -10e-6,-1.02083 0.36458,-1.89583 1.09375,-2.625 0.74739,-0.74739 1.6315,-1.12109 2.65234,-1.12109 1.02082,0 1.89582,0.3737 2.625,1.12109 0.74738,0.72917 1.12108,1.60417 1.12109,2.625"
         style="font-size:56px;font-style:italic;fill:#8b8b8b;font-family:Georgia;-inkscape-font-specification:Georgia;fill-opacity:1"
         id="path6467"
         inkscape:connector-curvature="0" />
      <path
         d="m 447.93356,604.44751 c -10e-6,1.02084 -0.37371,1.89583 -1.12109,2.625 -0.72918,0.71094 -1.60418,1.06641 -2.625,1.06641 -1.02084,0 -1.90495,-0.35547 -2.65234,-1.06641 -0.72917,-0.72917 -1.09376,-1.60416 -1.09375,-2.625 -10e-6,-1.02083 0.36458,-1.89583 1.09375,-2.625 0.74739,-0.74739 1.6315,-1.12109 2.65234,-1.12109 1.02082,0 1.89582,0.3737 2.625,1.12109 0.74738,0.72917 1.12108,1.60417 1.12109,2.625"
         style="font-size:56px;font-style:italic;fill:#8b8b8b;font-family:Georgia;-inkscape-font-specification:Georgia;fill-opacity:1"
         id="path6469"
         inkscape:connector-curvature="0" />
    </g>
  </g>
</svg>
