<?xml version="1.0" encoding="UTF-8" standalone="no"?>
<!-- Created with Inkscape (http://www.inkscape.org/) -->

<svg
   xmlns:dc="http://purl.org/dc/elements/1.1/"
   xmlns:cc="http://creativecommons.org/ns#"
   xmlns:rdf="http://www.w3.org/1999/02/22-rdf-syntax-ns#"
   xmlns:svg="http://www.w3.org/2000/svg"
   xmlns="http://www.w3.org/2000/svg"
   xmlns:xlink="http://www.w3.org/1999/xlink"
   xmlns:sodipodi="http://sodipodi.sourceforge.net/DTD/sodipodi-0.dtd"
   xmlns:inkscape="http://www.inkscape.org/namespaces/inkscape"
   id="svg3984"
   version="1.1"
   inkscape:version="0.48.2 r9819"
   width="588.97833"
   height="347.85492"
   sodipodi:docname="omg.svg"
   inkscape:export-filename="/Users/keegan/Desktop/5.png"
   inkscape:export-xdpi="90"
   inkscape:export-ydpi="90">
  <metadata
     id="metadata3990">
    <rdf:RDF>
      <cc:Work
         rdf:about="">
        <dc:format>image/svg+xml</dc:format>
        <dc:type
           rdf:resource="http://purl.org/dc/dcmitype/StillImage" />
        <dc:title></dc:title>
      </cc:Work>
    </rdf:RDF>
  </metadata>
  <defs
     id="defs3988">
    <linearGradient
       inkscape:collect="always"
       id="linearGradient4690">
      <stop
         style="stop-color:#ffffff;stop-opacity:0"
         offset="0"
         id="stop4692" />
      <stop
         style="stop-color:#ffffff;stop-opacity:0.18222222"
         offset="1"
         id="stop4694" />
    </linearGradient>
    <linearGradient
       inkscape:collect="always"
       id="linearGradient4663">
      <stop
         style="stop-color:#1ea09d;stop-opacity:1"
         offset="0"
         id="stop4665" />
      <stop
         style="stop-color:#a86a56;stop-opacity:1"
         offset="1"
         id="stop4667" />
    </linearGradient>
    <linearGradient
       inkscape:collect="always"
       xlink:href="#linearGradient4663"
       id="linearGradient4671"
       x1="271.65033"
       y1="4.0445876"
       x2="269.28638"
       y2="315.17157"
       gradientUnits="userSpaceOnUse"
       gradientTransform="translate(15.535534,-334.94975)" />
    <linearGradient
       inkscape:collect="always"
       xlink:href="#linearGradient4690"
       id="linearGradient4698"
       x1="155.06349"
       y1="159.96164"
       x2="168.83257"
       y2="161.37585"
       gradientUnits="userSpaceOnUse"
       gradientTransform="translate(15.535534,12.905151)" />
    <filter
       inkscape:collect="always"
       id="filter4843">
      <feGaussianBlur
         inkscape:collect="always"
         stdDeviation="2.8246819"
         id="feGaussianBlur4845" />
    </filter>
  </defs>
  <sodipodi:namedview
     pagecolor="#ffffff"
     bordercolor="#666666"
     borderopacity="1"
     objecttolerance="10"
     gridtolerance="10"
     guidetolerance="10"
     inkscape:pageopacity="0"
     inkscape:pageshadow="2"
     inkscape:window-width="1440"
     inkscape:window-height="803"
     id="namedview3986"
     showgrid="false"
     showguides="true"
     inkscape:guide-bbox="true"
     inkscape:zoom="1.4142136"
     inkscape:cx="258.37497"
     inkscape:cy="194.63467"
     inkscape:window-x="0"
     inkscape:window-y="0"
     inkscape:window-maximized="1"
     inkscape:current-layer="svg3984"
     fit-margin-top="10"
     fit-margin-left="10"
     fit-margin-right="10"
     fit-margin-bottom="10" />
  <rect
     transform="scale(1,-1)"
     ry="6.8821025"
     y="-335.85492"
     x="12"
     height="323.85492"
     width="564.97833"
     id="rect4809"
     style="fill:#000000;fill-opacity:1;fill-rule:nonzero;stroke:#000000;stroke-width:4;stroke-linecap:round;stroke-linejoin:round;stroke-miterlimit:4;stroke-opacity:1;stroke-dasharray:none;stroke-dashoffset:0;filter:url(#filter4843);opacity:0.5" />
  <rect
     style="fill:url(#linearGradient4671);fill-opacity:1;fill-rule:nonzero;stroke:#000000;stroke-width:4;stroke-linecap:round;stroke-linejoin:round;stroke-miterlimit:4;stroke-opacity:1;stroke-dasharray:none;stroke-dashoffset:0"
     id="rect4661"
     width="564.97833"
     height="323.85492"
     x="12"
     y="-335.85492"
     ry="6.8821025"
     transform="scale(1,-1)" />
  <path
     inkscape:connector-curvature="0"
     id="path4807"
     d="m 232.20485,316.84765 -75.0303,-107.27204 100.90345,-11.62492 -13.18311,101.8126 -22.27193,-44.78704 12.66941,45.50808 z"
     style="fill:#2b2f1c;fill-opacity:1;stroke:#000000;stroke-width:1.09047234px;stroke-linecap:butt;stroke-linejoin:miter;stroke-opacity:1"
     sodipodi:nodetypes="ccccccc" />
  <path
     style="fill:#2b2f1c;fill-opacity:1;stroke:#000000;stroke-width:1px;stroke-linecap:butt;stroke-linejoin:miter;stroke-opacity:1"
     d="m 68.568543,310.39905 0.707106,-124.45079 61.518291,34.64823 -28.28427,82.7315 -9.19239,-50.20459 -14.142136,44.54773 z"
     id="path4805"
     inkscape:connector-curvature="0" />
  <path
     style="fill:#727b48;fill-opacity:1;stroke:#000000;stroke-width:1px;stroke-linecap:butt;stroke-linejoin:miter;stroke-opacity:1"
     d="m 124.31678,202.90515 -22.0625,78.34375 c -34.820065,0.24781 -64.909093,7.03469 -90.249996,34.375 l 0,13.34375 c 0,3.81268 3.062315,6.875 6.875,6.875 l 68,0 131.093746,0 48.8125,0 c -3.00993,-48.87727 -12.92126,-58.98873 -32.09375,-58.46875 -7.52768,0.20416 -16.57199,2.03616 -27.09375,3.8125 l -11.53125,-60.59375 -71.75,-17.6875 z"
     id="path4705"
     inkscape:connector-curvature="0" />
  <path
     style="fill:#933030;fill-opacity:1;stroke:#000000;stroke-width:1px;stroke-linecap:butt;stroke-linejoin:miter;stroke-opacity:1"
     d="m 89.910534,281.65515 c -29.638265,1.77789 -55.608658,9.91187 -77.90625,33.96875 l 0,13.34375 c 0,3.81268 3.062315,6.875 6.875,6.875 l 68,0 25.531246,0 -22.499996,-54.1875 z"
     id="path4716"
     inkscape:connector-curvature="0" />
  <path
     style="fill:#565d37;fill-opacity:1;stroke:#000000;stroke-width:1px;stroke-linecap:butt;stroke-linejoin:miter;stroke-opacity:1"
     d="m 254.53762,251.00208 1.41422,84.85282 c 0,0 56.56854,-16.97057 48.08326,-120.20816 -8.48528,-103.23758 -49.49748,35.35534 -49.49748,35.35534 z"
     id="path4548"
     inkscape:connector-curvature="0" />
  <path
     style="fill:#777f4c;fill-opacity:1;stroke:#000000;stroke-width:3;stroke-linecap:butt;stroke-linejoin:miter;stroke-miterlimit:4;stroke-opacity:1;stroke-dasharray:none"
     d="M 80.734398,214.27163 C 138.33213,313.70187 193.31932,267.91172 253.8736,186.74322 287.9219,141.10401 232.86507,46.203446 159.69746,50.550037 86.529853,54.896628 46.297658,154.82392 80.734398,214.27163 z"
     id="path4000"
     inkscape:connector-curvature="0"
     sodipodi:nodetypes="ssss" />
  <path
     style="fill:none;stroke:#000000;stroke-width:4;stroke-linecap:round;stroke-linejoin:miter;stroke-miterlimit:4;stroke-opacity:0.36000001;stroke-dasharray:none"
     d="m 176.6582,101.75955 c 81.5599,-27.923034 74.2174,3.91301 74.2174,3.91301"
     id="path4536"
     inkscape:connector-curvature="0" />
  <path
     sodipodi:nodetypes="szsss"
     inkscape:connector-curvature="0"
     id="path4006"
     d="m 176.93858,133.77493 c -5.51131,-21.0724 13.538,-25.56771 35.75561,-28.97647 22.2176,-3.40875 35.68109,-2.40857 37.15002,9.11168 1.46893,11.52026 -3.55596,35.3483 -29.47257,42.52505 -25.83185,7.15326 -39.27639,-6.76729 -43.43306,-22.66026 z"
     style="fill:#000000;fill-opacity:0.47111116;stroke:#000000;stroke-width:3;stroke-linecap:butt;stroke-linejoin:miter;stroke-miterlimit:4;stroke-opacity:1;stroke-dasharray:none" />
  <path
     style="fill:#61693e;fill-opacity:1;stroke:#000000;stroke-width:1px;stroke-linecap:butt;stroke-linejoin:miter;stroke-opacity:1"
     d="m 159.18093,75.922476 c 147.17788,-44.405847 69.7828,206.099704 83.82619,231.800854 13.10545,-38.22107 28.64421,-52.10908 38.39489,-123.87784 l -10.14205,134.74432 c 13.72659,-51.23079 33.16944,-96.74534 18.1108,-176.76136 9.74016,35.55063 12.17692,73.53572 16.66193,110.83806 2.62558,9.33068 2.09744,-267.390732 -151.19835,-208.619034 z"
     id="path4546"
     inkscape:connector-curvature="0"
     sodipodi:nodetypes="cccccccc" />
  <path
     style="fill:#ffffff;fill-opacity:0.05777779;stroke:none"
     d="m 230.84803,103.09265 c -4.42359,0.0152 -9.5674,0.5005 -15.34375,1.3125 l -31.09375,44 c 2.91478,3.36042 6.6006,6.09646 11.09375,7.84375 l 54.3125,-42.4375 c -1.05349,-7.8446 -7.72116,-10.75735 -18.96875,-10.71875 z"
     id="path4678"
     inkscape:connector-curvature="0" />
  <rect
     style="fill:#454545;fill-opacity:1;fill-rule:nonzero;stroke:#000000;stroke-width:4;stroke-linecap:round;stroke-linejoin:round;stroke-miterlimit:4;stroke-opacity:1;stroke-dasharray:none;stroke-dashoffset:0"
     id="rect4542"
     width="17.144604"
     height="129.36195"
     x="283.04669"
     y="45.067455"
     ry="6.8821025"
     transform="matrix(0.9561253,0.29295804,-0.29295804,0.9561253,0,0)" />
  <path
     style="fill:#000000;fill-opacity:0.47111116;stroke:#000000;stroke-width:3;stroke-linecap:butt;stroke-linejoin:miter;stroke-miterlimit:4;stroke-opacity:1;stroke-dasharray:none"
     d="m 82.907693,132.41083 c -1.448864,-21.73295 18.105987,-22.56453 40.568177,-21.73295 22.46219,0.83158 35.49716,4.34659 34.77273,15.9375 -0.72443,11.59091 -10.14204,34.04829 -36.94602,36.22159 C 94.586277,165.00315 84.000438,148.802 82.907693,132.41083 z"
     id="path4004"
     inkscape:connector-curvature="0"
     sodipodi:nodetypes="szsss" />
  <path
     style="fill:none;stroke:#000000;stroke-width:3;stroke-linecap:butt;stroke-linejoin:miter;stroke-miterlimit:4;stroke-opacity:1;stroke-dasharray:none"
     d="m 157.52417,125.89095 c 6.76136,-5.44329 13.52273,-2.75329 20.28409,-0.72444"
     id="path4008"
     inkscape:connector-curvature="0"
     sodipodi:nodetypes="cc" />
  <path
     style="fill:#804c3c;fill-opacity:1;stroke:#000000;stroke-width:1px;stroke-linecap:butt;stroke-linejoin:miter;stroke-opacity:1"
     d="m 151.72871,240.35117 c -9.9521,-0.29114 -27.55357,8.273 -28.97727,-7.24432 -1.33347,-14.53385 19.4536,-27.6053 34.04829,-27.5284 14.40772,0.0759 44.24147,-3.31127 33.32387,27.5284 -5.18615,14.64968 -25.37635,7.62517 -38.39489,7.24432 z"
     id="path4520"
     inkscape:connector-curvature="0"
     sodipodi:nodetypes="sssss" />
  <path
     style="fill:#613a2e;fill-opacity:1;stroke:none"
     d="m 169.83951,206.30288 c -16.66193,9.41761 -15.21307,18.83522 -15.21307,18.83522 0,0 14.48864,-15.21306 22.45739,-15.9375"
     id="path4522"
     inkscape:connector-curvature="0"
     sodipodi:nodetypes="ccc" />
  <path
     style="fill:#613a2e;fill-opacity:0.47111116;fill-rule:nonzero;stroke:none"
     d="m 166.16053,205.4989 c -3.41578,-0.0192 -6.67355,0.10798 -9.375,0.0937 -3.55527,-0.0187 -7.46283,0.75218 -11.34375,2.125 3.00738,4.66145 10.90036,8 20.21875,8 8.59664,0 16.00943,-2.83848 19.46875,-6.9375 -5.20676,-2.73685 -12.40364,-3.24439 -18.96875,-3.28125 z"
     id="path4524"
     inkscape:connector-curvature="0" />
  <path
     style="fill:none;stroke:#000000;stroke-width:4;stroke-linecap:round;stroke-linejoin:miter;stroke-miterlimit:4;stroke-opacity:0.36000001;stroke-dasharray:none"
     d="m 156.0753,107.05572 c -39.84375,-16.661933 -62.30113,0 -62.30113,0"
     id="path4534"
     inkscape:connector-curvature="0" />
  <path
     style="fill:#a93737;fill-opacity:1;stroke:none"
     d="m 89.910534,283.06936 c -29.638265,1.77789 -55.608658,9.91187 -77.90625,33.96875 l 0,13.34375 c 0,3.62609 2.761519,6.56395 6.3125,6.84375 l 73.3125,-50.03125 -1.71875,-4.125 z"
     id="path4791"
     inkscape:connector-curvature="0" />
  <path
     style="fill:#323620;fill-opacity:1;stroke:#000000;stroke-width:1px;stroke-linecap:butt;stroke-linejoin:miter;stroke-opacity:1"
     d="M 50.890873,123.72286 C 28.263456,275.75082 47.355339,329.49094 47.355339,329.49094 l 7.071068,-113.8442 c 0,0 -5.728735,79.83119 16.263456,115.25841 15.344901,24.7191 -2.828427,-168.29141 -2.828427,-168.29141"
     id="path4676"
     inkscape:connector-curvature="0"
     sodipodi:nodetypes="cccsc" />
  <path
     style="fill:#5a4e30;fill-opacity:1;stroke:#000000;stroke-width:1px;stroke-linecap:butt;stroke-linejoin:miter;stroke-opacity:1"
     d="M 161.87076,78.078446 C 47.410534,77.354015 79.285534,328.00742 79.285534,328.00742 c -0.02379,0 -21.266978,-97.07386 -16.661932,-164.44602 C 67.222175,96.283933 51.7398,227.93832 63.348034,318.58981 47.379104,264.28441 23.000664,180.29441 46.686102,106.33129 70.592352,31.678632 154.62644,29.591332 154.62644,43.89155 z"
     id="path4538"
     inkscape:connector-curvature="0"
     sodipodi:nodetypes="ccscscc" />
  <g
     transform="translate(33.92031,-18.207547)"
     style="font-size:20px;font-style:normal;font-variant:normal;font-weight:500;font-stretch:normal;line-height:125%;letter-spacing:0px;word-spacing:0px;fill:#000000;fill-opacity:1;stroke:none;font-family:Hobo Std;-inkscape-font-specification:Hobo Std Medium"
     id="flowRoot4554">
    <path
       d="m 312.12025,92.695833 c 0.432,0 1.548,0.18 1.548,-0.54 0,-0.179999 -1.404,-7.128 -2.088,-7.128 -0.9,0 -2.916,3.06 -6.228,3.06 -1.98,0 -4.14,-1.188005 -4.14,-6.156 0,-9.93599 4.176,-17.676 4.176,-18.468 0,-0.647999 -0.432,-0.72 -0.684,-0.72 l -5.724,0 c -1.044,0 -3.024,16.632005 -3.024,21.456 0.18,7.307993 -0.396,8.568 1.512,8.496 l 14.652,0"
       style="font-size:36px"
       id="path4581"
       inkscape:connector-curvature="0" />
    <path
       d="m 319.99637,92.695833 c 0.828,0 1.90801,0.215999 1.90801,-0.936 0,-0.323999 -1.404,-5.904009 -1.404,-14.976 0,-3.923996 0.43199,-5.256001 0.43199,-6.588 0,-0.431999 -0.036,-0.54 -1.548,-0.54 l -1.97999,0 c -1.188,0 -1.76401,-1.187987 -1.76401,11.124 0,12.671988 0.14401,11.916 1.90801,11.916 l 2.44799,0 m -1.188,-25.848 c 1.44,0 2.772,-0.828001 2.772,-2.376 0,-1.547998 -1.332,-2.484 -2.772,-2.484 -1.43999,0 -2.77199,0.936002 -2.77199,2.484 0,1.547999 1.332,2.376 2.77199,2.376"
       style="font-size:36px"
       id="path4583"
       inkscape:connector-curvature="0" />
    <path
       d="m 330.49487,92.695833 c 0.54,0 0.90001,-0.036 0.90001,-0.432 0,-0.647999 -0.90001,-2.988004 -0.90001,-7.38 0,-1.727998 1.65601,-2.268 2.124,-2.268 1.08,0 3.42001,3.996005 3.45601,8.964 0.036,1.151999 0.36,1.116 1.332,1.116 l 2.91599,0 c 0.9,0 1.58401,0.107999 1.58401,-0.972 0,-4.283995 -1.47601,-7.344002 -2.952,-9.18 -1.476,-1.835998 -2.952,-2.412 -2.952,-3.168 0,-0.719999 3.92399,-3.960005 3.92399,-8.928 0,-1.007999 -0.828,-0.792 -1.548,-0.792 l -2.19599,0 c -0.756,0 -1.11601,-0.143999 -1.11601,0.756 0,3.887996 -3.276,8.64 -4.5,8.64 -0.46799,0 -0.46799,-1.620001 -0.46799,-2.88 0.036,-9.35999 1.332,-12.672 1.332,-13.392 0,-0.575999 -0.39601,-0.792 -0.86401,-0.792 l -3.852,0 c -1.61999,0 -1.476,16.128002 -1.476,17.82 0,0.828 -0.14399,12.888 1.116,12.888 l 4.14,0"
       style="font-size:36px"
       id="path4585"
       inkscape:connector-curvature="0" />
    <path
       d="m 351.90306,93.235833 c 4.32,0 7.848,-2.628004 7.848,-7.2 0,-0.287999 -0.108,-2.16 -0.648,-2.16 -0.504,0 -0.504,4.5 -6.408,4.5 -1.8,0 -4.536,-1.224001 -4.536,-2.916 0,-3.743996 11.592,-2.124007 11.592,-9.864 0,-4.247995 -3.348,-6.48 -7.308,-6.48 -4.82399,0 -9.648,4.320009 -9.648,13.032 0,5.759995 2.66401,11.088 9.108,11.088 m 0.36,-19.872 c 1.368,0 3.024,0.972002 3.024,2.736 0,1.835998 -6.552,3.276 -6.984,3.276 -0.468,0 -0.648,-0.396 -0.648,-0.792 0,-2.087998 1.69201,-5.22 4.608,-5.22"
       style="font-size:36px"
       id="path4587"
       inkscape:connector-curvature="0" />
    <path
       d="m 362.57312,88.159833 c -0.10799,0.072 -0.72,0.504001 -0.72,0.684 0,0.36 2.80801,0.216003 2.80801,3.24 0,1.475999 -0.93601,2.592 -0.93601,2.736 0,0.108 0.18001,0.18 0.288,0.18 2.088,0 6.48001,-1.728004 6.48001,-5.868 0,-1.871998 -1.54801,-4.068 -3.56401,-4.068 -0.53999,0 -0.972,0.396001 -1.368,0.684 l -2.988,2.412"
       style="font-size:36px"
       id="path4589"
       inkscape:connector-curvature="0" />
    <path
       d="m 392.57362,85.359833 -7.504,0 -1.45599,7.336 15.62399,0 1.064,-5.32 c -2.57599,-2.183997 -4.19999,-8.680009 -2.296,-18.2 1.736,-8.735991 6.27201,-14.896 11.648,-14.896 5.656,0 7.112,6.552008 5.488,14.504 -1.00799,5.263995 -2.576,9.352003 -4.31199,12.376 -1.68,3.079997 -3.52801,5.096001 -5.26401,6.216 l -1.064,5.32 15.62401,0 1.45599,-7.336 -7.616,0 0.056,-0.168 c 4.088,-3.807996 8.79201,-10.528008 10.41601,-18.536 1.73599,-8.735991 -1.40002,-20.048 -13.10401,-20.048 -10.69598,0 -19.6,9.688011 -21.784,20.664 -1.56799,7.895992 0.56001,14.056004 3.08,17.92 l -0.056,0.168"
       style="font-size:56px;font-style:italic;-inkscape-font-specification:Hobo Std Italic"
       id="path4591"
       inkscape:connector-curvature="0" />
    <path
       d="m 427.92237,93.235833 c 2.232,0 4.42801,-1.728002 4.86,-3.96 0.432,-2.231997 -1.044,-3.96 -3.312,-3.96 -2.15999,0 -4.32,1.764002 -4.752,3.924 -0.43199,2.195998 0.97201,3.996 3.204,3.996 m 4.10401,-30.492 c -1.44,0 -1.87201,-0.647994 -3.06,5.256 -0.756,3.887996 -1.404,15.12 0.25199,15.12 0.972,0 2.55601,-0.144 2.62801,-0.504 0.14399,-0.719999 0.432,-5.040003 1.15199,-8.64 1.008,-5.039995 4.82401,-9.972 4.968,-10.548 0.108,-0.611999 -0.684,-0.684 -1.152,-0.684 l -4.78799,0"
       style="font-style:italic;-inkscape-font-specification:Hobo Std Italic"
       id="path4593"
       inkscape:connector-curvature="0" />
    <path
       d="m 311.72425,141.87545 c 1.008,0 2.88,-3.276 2.88,-4.284 0,-1.044 -3.70801,-3.816 -8.928,-3.816 -7.30799,0 -9.36,5.148 -9.36,8.172 0,3.06 0.86401,6.624 8.748,9.072 2.088,0.648 5.328,1.728 5.328,4.356 0,2.232 -2.376,3.42 -5.112,3.42 -7.73999,0 -7.128,-7.308 -7.74,-7.308 -0.36,0 -2.196,1.8 -2.196,4.86 0,5.72399 5.18401,8.46 10.296,8.46 7.59599,0 10.584,-5.14801 10.584,-9.324 0,-3.42 -1.54801,-7.056 -9.108,-9.576 -1.98,-0.684 -5.544,-1.692 -5.544,-4.284 0,-2.088 2.304,-2.988 4.104,-2.988 3.744,0 5.148,3.24 6.048,3.24"
       style="font-size:36px"
       id="path4595"
       inkscape:connector-curvature="0" />
    <path
       d="m 321.28169,133.55945 c -1.98,0 -2.052,13.068 -2.052,15.948 0,15.98398 0,14.76 1.044,14.76 l 3.564,0 c 0.36,0 1.044,0 1.044,-0.576 0,-1.044 -0.792,-3.38401 -0.792,-10.584 0,-2.556 0.072,-8.172 3.744,-8.172 1.764,0 2.7,1.116 2.7,6.696 0,4.78799 -1.8,11.916 -1.8,12.168 0,0.576 0.972,0.468 1.296,0.468 l 3.744,0 c 1.116,0 1.62,-9.10801 1.62,-12.564 0,-8.67599 -2.41201,-11.016 -5.688,-11.016 -1.188,0 -2.196,0.432 -3.024,0.864 -0.792,0.468 -1.368,0.792 -1.656,0.792 -0.612,0 -0.612,-0.684 -0.612,-1.116 0,-2.88 1.368,-6.408 1.368,-6.912 0,-0.36 -0.252,-0.756 -0.576,-0.756 l -3.924,0"
       style="font-size:36px"
       id="path4597"
       inkscape:connector-curvature="0" />
    <path
       d="m 346.91087,164.80745 c 4.32,0 7.848,-2.62801 7.848,-7.2 0,-0.288 -0.108,-2.16 -0.64799,-2.16 -0.504,0 -0.50401,4.5 -6.40801,4.5 -1.79999,0 -4.536,-1.224 -4.536,-2.916 0,-3.744 11.592,-2.12401 11.592,-9.864 0,-4.248 -3.348,-6.48 -7.308,-6.48 -4.82399,0 -9.648,4.32001 -9.648,13.032 0,5.75999 2.66401,11.088 9.108,11.088 m 0.36,-19.872 c 1.368,0 3.024,0.972 3.024,2.736 0,1.836 -6.552,3.276 -6.984,3.276 -0.46799,0 -0.648,-0.396 -0.648,-0.792 0,-2.088 1.69201,-5.22 4.608,-5.22"
       style="font-size:36px"
       id="path4599"
       inkscape:connector-curvature="0" />
    <path
       d="m 384.52344,164.95495 c -1.64585,0 -3.39585,-0.22917 -5.25,-0.6875 -1.85418,-0.4375 -3.44793,-1.10417 -4.78125,-2 l -2.73039,11.33947 -8.41238,3.18198 c 6.84223,-21.21631 10.75937,-34.71256 11.74816,-46.5625 1.30803,-15.67577 10.86944,-14.99868 18.70711,-15.08395 3.5833,5e-5 8.33942,3.09257 10.31862,4.86336 1.97913,1.75004 3.46871,3.03129 3.46875,5.84375 -4e-5,3.0417 -1.03129,5.78128 -3.09375,8.21875 -2.0417,2.41669 -7.19365,3.36583 -10.50612,4.26164 l -0.125,0.53125 c 2.72913,0.50002 7.29775,2.2488 8.75612,3.83211 1.47913,1.56252 2.21871,3.56252 2.21875,6 -4e-5,4.83334 -1.77087,8.87501 -5.3125,12.125 -3.52086,3.22917 -10.17281,4.13664 -15.00612,4.13664 m 11.6875,-16.625 c -3e-5,-1.43748 -0.2917,-2.61457 -0.875,-3.53125 -0.56253,-0.93748 -1.34378,-1.68748 -2.34375,-2.25 -0.97919,-0.52081 -2.10419,-0.87498 -3.375,-1.0625 -1.27086,-0.20831 -2.57294,-0.31248 -3.90625,-0.3125 l -1.46875,0 1.09375,-4.8125 1.125,0 c 1.62498,3e-5 3.22914,-0.19789 4.8125,-0.59375 1.5833,-0.41664 2.90622,-1.03122 3.96875,-1.84375 1.1458,-0.85414 2.05205,-1.90622 2.71875,-3.15625 0.66663,-1.2708 0.99996,-2.84372 1,-4.71875 -4e-5,-1.81246 -0.59378,-3.20829 -1.78125,-4.1875 -1.18753,-0.97912 -2.78128,-1.46871 -4.78125,-1.46875 -1.60419,4e-5 -2.97919,0.28129 -4.125,0.84375 -1.12502,0.54171 -2.14586,1.29171 -3.0625,2.25 -0.85419,0.9167 -1.56252,2.00004 -2.125,3.25 -0.56252,1.25003 -1.03127,2.62503 -1.40625,4.125 l -6.125,26.8125 c 1.20832,0.77084 2.62499,1.34375 4.25,1.71875 1.62498,0.35417 3.18748,0.53125 4.6875,0.53125 3.70831,0 6.58331,-1.11458 8.625,-3.34375 2.06247,-2.24999 3.09372,-4.99999 3.09375,-8.25"
       style="font-size:64px;font-style:italic;-inkscape-font-specification:Hobo Std Italic"
       id="path4601"
       inkscape:connector-curvature="0"
       sodipodi:nodetypes="cccccsccccccccccccccccccccccccccscccscc" />
    <path
       d="m 412.90328,171.81845 c 3.13564,0 6.01389,-3.11225 6.01389,-9.82814 0,-6.71588 -2.87825,-9.85153 -6.01389,-9.85153 -3.13564,0 -6.01388,3.13565 -6.01388,9.85153 0,6.71589 2.87824,9.82814 6.01388,9.82814 m 0,-4.16526 c -1.21681,0 -2.59743,-1.45082 -2.59743,-6.03728 0,-5.54587 1.42742,-6.31809 2.59743,-6.31809 1.17002,0 2.59744,0.77222 2.59744,6.31809 0,4.58646 -1.38062,6.03728 -2.59744,6.03728"
       style="font-size:65.00091553%;baseline-shift:sub"
       id="path4603"
       inkscape:connector-curvature="0" />
    <path
       d="m 425.48721,164.80745 c 2.232,0 4.068,-1.728 4.068,-3.96 0,-2.232 -1.836,-3.96 -4.104,-3.96 -2.16,0 -3.96,1.764 -3.96,3.924 0,2.196 1.764,3.996 3.996,3.996 m -1.98,-30.492 c -1.44,0 -2.016,-0.648 -2.016,5.256 0,3.88799 1.62,15.12 3.276,15.12 0.972,0 2.52,-0.144 2.52,-0.504 0,-0.72 -0.576,-5.04001 -0.576,-8.64 0,-5.04 2.844,-9.972 2.844,-10.548 0,-0.612 -0.792,-0.684 -1.26,-0.684 l -4.788,0"
       style="font-size:36px"
       id="path4605"
       inkscape:connector-curvature="0" />
    <path
       d="m 312.12025,232.425 c 0.432,0 1.548,0.18 1.548,-0.54 0,-0.18 -1.404,-7.128 -2.088,-7.128 -0.9,0 -2.916,3.06 -6.228,3.06 -1.98,0 -4.14,-1.188 -4.14,-6.156 0,-9.93599 4.176,-17.676 4.176,-18.468 0,-0.648 -0.432,-0.72 -0.684,-0.72 l -5.724,0 c -1.044,0 -3.024,16.632 -3.024,21.456 0.18,7.30799 -0.396,8.568 1.512,8.496 l 14.652,0"
       style="font-size:36px"
       id="path4607"
       inkscape:connector-curvature="0" />
    <path
       d="m 319.99637,232.425 c 0.828,0 1.90801,0.216 1.90801,-0.936 0,-0.324 -1.404,-5.90401 -1.404,-14.976 0,-3.924 0.43199,-5.256 0.43199,-6.588 0,-0.432 -0.036,-0.54 -1.548,-0.54 l -1.97999,0 c -1.188,0 -1.76401,-1.18799 -1.76401,11.124 0,12.67199 0.14401,11.916 1.90801,11.916 l 2.44799,0 m -1.188,-25.848 c 1.44,0 2.772,-0.828 2.772,-2.376 0,-1.548 -1.332,-2.484 -2.772,-2.484 -1.43999,0 -2.77199,0.936 -2.77199,2.484 0,1.548 1.332,2.376 2.77199,2.376"
       style="font-size:36px"
       id="path4609"
       inkscape:connector-curvature="0" />
    <path
       d="m 330.49487,232.425 c 0.54,0 0.90001,-0.036 0.90001,-0.432 0,-0.648 -0.90001,-2.988 -0.90001,-7.38 0,-1.728 1.65601,-2.268 2.124,-2.268 1.08,0 3.42001,3.996 3.45601,8.964 0.036,1.152 0.36,1.116 1.332,1.116 l 2.91599,0 c 0.9,0 1.58401,0.108 1.58401,-0.972 0,-4.284 -1.47601,-7.344 -2.952,-9.18 -1.476,-1.836 -2.952,-2.412 -2.952,-3.168 0,-0.72 3.92399,-3.96 3.92399,-8.928 0,-1.008 -0.828,-0.792 -1.548,-0.792 l -2.19599,0 c -0.756,0 -1.11601,-0.144 -1.11601,0.756 0,3.888 -3.276,8.64 -4.5,8.64 -0.46799,0 -0.46799,-1.62 -0.46799,-2.88 0.036,-9.35999 1.332,-12.672 1.332,-13.392 0,-0.576 -0.39601,-0.792 -0.86401,-0.792 l -3.852,0 c -1.61999,0 -1.476,16.128 -1.476,17.82 0,0.828 -0.14399,12.888 1.116,12.888 l 4.14,0"
       style="font-size:36px"
       id="path4611"
       inkscape:connector-curvature="0" />
    <path
       d="m 351.90306,232.965 c 4.32,0 7.848,-2.628 7.848,-7.2 0,-0.288 -0.108,-2.16 -0.648,-2.16 -0.504,0 -0.504,4.5 -6.408,4.5 -1.8,0 -4.536,-1.224 -4.536,-2.916 0,-3.744 11.592,-2.12401 11.592,-9.864 0,-4.248 -3.348,-6.48 -7.308,-6.48 -4.82399,0 -9.648,4.32001 -9.648,13.032 0,5.75999 2.66401,11.088 9.108,11.088 m 0.36,-19.872 c 1.368,0 3.024,0.972 3.024,2.736 0,1.836 -6.552,3.276 -6.984,3.276 -0.468,0 -0.648,-0.396 -0.648,-0.792 0,-2.088 1.69201,-5.22 4.608,-5.22"
       style="font-size:36px"
       id="path4613"
       inkscape:connector-curvature="0" />
    <path
       d="m 362.57312,227.889 c -0.10799,0.072 -0.72,0.504 -0.72,0.684 0,0.36 2.80801,0.216 2.80801,3.24 0,1.476 -0.93601,2.592 -0.93601,2.736 0,0.108 0.18001,0.18 0.288,0.18 2.088,0 6.48001,-1.728 6.48001,-5.868 0,-1.872 -1.54801,-4.068 -3.56401,-4.068 -0.53999,0 -0.972,0.396 -1.368,0.684 l -2.988,2.412"
       style="font-size:36px"
       id="path4615"
       inkscape:connector-curvature="0" />
    <path
       d="m 403.32963,209.385 c -0.468,0 -1.26001,-0.108 -1.26001,0.54 0,0.936 0.468,2.556 0.468,4.932 0,5.36399 -1.8,10.476 -2.664,10.476 -0.75599,0 -2.48399,-4.14001 -2.48399,-10.872 0,-1.872 0.32399,-4.14 0.32399,-4.572 0,-0.54 -0.468,-0.468 -0.792,-0.504 l -3.564,0 c -0.39599,0 -0.53999,0.144 -0.53999,0.576 0,0.576 0.216,2.556 0.216,3.852 0.10799,9.10799 -2.34001,11.52 -2.95201,11.52 -0.61199,0 -2.304,-4.78801 -2.304,-10.944 0,-3.24 0.39601,-4.14 0.39601,-4.464 0,-0.54 -0.39601,-0.504 -0.82801,-0.54 l -2.844,0 c -1.40399,0 -1.98,-0.432 -1.98,3.924 0,11.87999 5.94001,19.656 7.056,19.656 1.008,0 3.52801,-4.752 3.924,-5.58 0.144,-0.288 0.57601,-1.26 0.93601,-1.26 0.43199,0 1.152,1.8 1.26,2.016 0.43199,0.9 2.34,4.824 3.34799,4.824 0.864,0 7.956,-6.94801 7.956,-20.016 0,-3.636 -0.252,-3.564 -1.692,-3.564 l -1.97999,0"
       style="font-size:36px"
       id="path4617"
       inkscape:connector-curvature="0" />
    <path
       d="m 411.63325,201.717 c -1.98,0 -2.052,13.068 -2.052,15.948 0,15.98398 0,14.76 1.044,14.76 l 3.564,0 c 0.36,0 1.044,0 1.044,-0.576 0,-1.044 -0.792,-3.38401 -0.792,-10.584 0,-2.556 0.072,-8.172 3.744,-8.172 1.764,0 2.7,1.11601 2.7,6.696 0,4.788 -1.8,11.916 -1.8,12.168 0,0.576 0.972,0.468 1.296,0.468 l 3.744,0 c 1.116,0 1.62,-9.108 1.62,-12.564 0,-8.67599 -2.412,-11.016 -5.688,-11.016 -1.188,0 -2.196,0.432 -3.024,0.864 -0.792,0.468 -1.368,0.792 -1.656,0.792 -0.612,0 -0.612,-0.684 -0.612,-1.116 0,-2.88 1.368,-6.408 1.368,-6.912 0,-0.36 -0.252,-0.756 -0.576,-0.756 l -3.924,0"
       style="font-size:36px"
       id="path4619"
       inkscape:connector-curvature="0" />
    <path
       d="m 437.19044,232.965 c 4.13999,0 9.036,-3.63601 9.036,-12.096 0,-5.79599 -2.77201,-12.024 -9.036,-12.024 -6.264,0 -9.036,6.22801 -9.036,12.024 0,8.45999 4.896,12.096 9.036,12.096 m 0,-6.012 c -3.636,0 -4.572,-4.104 -4.572,-6.984 0,-2.844 1.008,-6.876 4.572,-6.876 3.56399,0 4.572,4.032 4.572,6.876 0,2.88 -0.93601,6.984 -4.572,6.984"
       style="font-size:36px"
       id="path4621"
       inkscape:connector-curvature="0" />
    <path
       d="m 467.03388,227.169 c -3.06,0 -3.99601,-3.852 -3.99601,-6.336 0,-6.55199 3.52801,-8.568 5.076,-8.568 1.332,0 2.304,0.43201 2.304,6.768 0,2.592 0.504,8.136 -3.38399,8.136 m 7.12799,5.256 c 1.26,0 1.116,-12.06 1.116,-12.888 0,-1.692 0.144,-17.82 -1.476,-17.82 l -3.74399,0 c -0.36,0 -1.26001,0 -1.26001,0.504 0,1.368 0.9,2.664 0.9,5.58 0,0.576 -0.108,1.872 -0.828,1.872 -0.50399,0 -1.296,-0.828 -2.05199,-0.828 -3.168,0 -8.64001,4.50001 -8.64001,12.744 0,7.27199 3.52801,10.836 7.56,10.836 l 8.424,0"
       style="font-size:36px"
       id="path4623"
       inkscape:connector-curvature="0" />
    <path
       d="m 486.76075,232.965 c 4.14,0 9.036,-3.63601 9.036,-12.096 0,-5.79599 -2.77201,-12.024 -9.036,-12.024 -6.26399,0 -9.036,6.22801 -9.036,12.024 0,8.45999 4.896,12.096 9.036,12.096 m 0,-6.012 c -3.636,0 -4.572,-4.104 -4.572,-6.984 0,-2.844 1.008,-6.876 4.572,-6.876 3.564,0 4.572,4.032 4.572,6.876 0,2.88 -0.936,6.984 -4.572,6.984"
       style="font-size:36px"
       id="path4625"
       inkscape:connector-curvature="0" />
    <path
       d="m 506.44994,232.965 c 4.31999,0 7.848,-2.628 7.848,-7.2 0,-0.288 -0.108,-2.16 -0.648,-2.16 -0.504,0 -0.50401,4.5 -6.408,4.5 -1.8,0 -4.536,-1.224 -4.536,-2.916 0,-3.744 11.592,-2.12401 11.592,-9.864 0,-4.248 -3.34801,-6.48 -7.308,-6.48 -4.824,0 -9.648,4.32001 -9.648,13.032 0,5.75999 2.664,11.088 9.108,11.088 m 0.36,-19.872 c 1.368,0 3.024,0.972 3.024,2.736 0,1.836 -6.552,3.276 -6.984,3.276 -0.468,0 -0.648,-0.396 -0.648,-0.792 0,-2.088 1.692,-5.22 4.608,-5.22"
       style="font-size:36px"
       id="path4627"
       inkscape:connector-curvature="0" />
    <path
       d="m 524.5,232.965 c 4.32,0 8.208,-2.664 8.208,-7.344 0,-7.30799 -10.512,-7.236 -10.512,-10.944 0,-1.08 1.512,-1.584 2.628,-1.584 3.312,0 3.528,2.772 4.464,2.772 0.828,0 2.844,-2.916 2.844,-3.6 0,-0.72 -2.484,-3.42 -6.984,-3.42 -3.888,0 -7.416,2.376 -7.416,6.768 0,7.16399 9.72,6.192 9.72,9.9 0,1.836 -1.728,2.592 -3.204,2.592 -5.11199,0 -6.012,-5.436 -6.192,-5.436 -0.288,0 -1.152,2.16 -1.152,3.852 0,4.212 3.78,6.444 7.596,6.444"
       style="font-size:36px"
       id="path4629"
       inkscape:connector-curvature="0" />
    <path
       d="m 303.15625,281.51917 c 4.32,0 8.208,-2.66401 8.208,-7.344 0,-7.308 -10.512,-7.23601 -10.512,-10.944 0,-1.08 1.512,-1.584 2.628,-1.584 3.312,0 3.528,2.772 4.464,2.772 0.828,0 2.844,-2.916 2.844,-3.6 0,-0.72 -2.484,-3.42 -6.984,-3.42 -3.888,0 -7.416,2.376 -7.416,6.768 0,7.16399 9.72,6.192 9.72,9.9 0,1.83599 -1.728,2.592 -3.204,2.592 -5.11199,0 -6.012,-5.436 -6.192,-5.436 -0.288,0 -1.152,2.16 -1.152,3.852 0,4.21199 3.78,6.444 7.596,6.444"
       style="font-size:36px"
       id="path4631"
       inkscape:connector-curvature="0" />
    <path
       d="m 316.64106,250.27117 c -1.98,0 -2.052,13.068 -2.052,15.948 0,15.98398 0,14.76 1.044,14.76 l 3.564,0 c 0.36,0 1.044,0 1.044,-0.576 0,-1.044 -0.792,-3.38401 -0.792,-10.584 0,-2.556 0.072,-8.172 3.744,-8.172 1.764,0 2.7,1.116 2.7,6.696 0,4.78799 -1.8,11.916 -1.8,12.168 0,0.576 0.972,0.468 1.296,0.468 l 3.744,0 c 1.116,0 1.62,-9.10801 1.62,-12.564 0,-8.67599 -2.412,-11.016 -5.688,-11.016 -1.188,0 -2.196,0.432 -3.024,0.864 -0.792,0.468 -1.368,0.792 -1.656,0.792 -0.612,0 -0.612,-0.684 -0.612,-1.116 0,-2.88 1.368,-6.408 1.368,-6.912 0,-0.36 -0.252,-0.756 -0.576,-0.756 l -3.924,0"
       style="font-size:36px"
       id="path4633"
       inkscape:connector-curvature="0" />
    <path
       d="m 342.27025,281.51917 c 4.32,0 7.848,-2.62801 7.848,-7.2 0,-0.288 -0.108,-2.16 -0.648,-2.16 -0.504,0 -0.50401,4.5 -6.408,4.5 -1.8,0 -4.536,-1.22401 -4.536,-2.916 0,-3.744 11.592,-2.12401 11.592,-9.864 0,-4.248 -3.348,-6.48 -7.308,-6.48 -4.824,0 -9.648,4.32001 -9.648,13.032 0,5.75999 2.66401,11.088 9.108,11.088 m 0.36,-19.872 c 1.368,0 3.024,0.972 3.024,2.736 0,1.83599 -6.552,3.276 -6.984,3.276 -0.468,0 -0.648,-0.396 -0.648,-0.792 0,-2.088 1.692,-5.22 4.608,-5.22"
       style="font-size:36px"
       id="path4635"
       inkscape:connector-curvature="0" />
    <path
       d="m 372.44656,249.53917 c -0.8,0 -5.28,1.12 -5.48,2.64 -0.2,1.4 -0.32,3.36 -1.56,3.36 -0.32,0 -0.6,-0.16 -0.76,-0.16 -1.52,0 -2.4,0.36 -2.4,3.4 0,0.72 -0.04,1.24 0.48,1.24 0.44,0 0.84,-0.48 1.56,-0.48 1.8,0 1.44,2.12 1.44,3.32 0,0.76 -0.24,2.68 -0.24,7.6 0,2.19999 0.4,11.12 1.92,11.12 0.92,0 5.56,-2.24 5.56,-2.84 0,-0.68 -2.24,-2.44001 -2.24,-13.08 0,-3.56 0,-6.12 2.2,-6.12 0.72,0 1.52,0.36 1.84,0.36 0.84,0 0.84,-1.52 0.84,-2.08 0,-1.36 -0.04,-2.44 -1.56,-2.44 -0.52,0 -1,0.2 -1.52,0.2 -0.6,0 -0.8,-0.48 -0.8,-1.2 0,-0.48 1.2,-2.92 1.2,-4 0,-0.76 -0.2,-0.84 -0.48,-0.84"
       style="font-size:40px"
       id="path4637"
       inkscape:connector-curvature="0" />
    <path
       d="m 380.53781,246.85917 c -2.2,0 -2.28,14.52 -2.28,17.72 0,17.75998 0,16.4 1.16,16.4 l 3.96,0 c 0.4,0 1.16,0 1.16,-0.64 0,-1.16 -0.88,-3.76001 -0.88,-11.76 0,-2.84 0.08,-9.08 4.16,-9.08 1.96,0 3,1.24 3,7.44 0,5.31999 -2,13.24 -2,13.52 0,0.64 1.08,0.52 1.44,0.52 l 4.16,0 c 1.24,0 1.8,-10.12001 1.8,-13.96 0,-9.63999 -2.68,-12.24 -6.32,-12.24 -1.32,0 -2.44,0.48 -3.36,0.96 -0.88,0.52 -1.52,0.88 -1.84,0.88 -0.68,0 -0.68,-0.76 -0.68,-1.24 0,-3.2 1.52,-7.12 1.52,-7.68 0,-0.4 -0.28,-0.84 -0.64,-0.84 l -4.36,0"
       style="font-size:40px"
       id="path4639"
       inkscape:connector-curvature="0" />
    <path
       d="m 404.73469,280.97917 c 0.92,0 2.12,0.24 2.12,-1.04 0,-0.36 -1.56,-6.56001 -1.56,-16.64 0,-4.36 0.48,-5.84 0.48,-7.32 0,-0.48 -0.04,-0.6 -1.72,-0.6 l -2.2,0 c -1.32,0 -1.96,-1.31999 -1.96,12.36 0,14.07998 0.16,13.24 2.12,13.24 l 2.72,0 m -1.32,-28.72 c 1.6,0 3.08,-0.92001 3.08,-2.64 0,-1.72 -1.48,-2.76 -3.08,-2.76 -1.6,0 -3.08,1.04 -3.08,2.76 0,1.71999 1.48,2.64 3.08,2.64"
       style="font-size:40px"
       id="path4641"
       inkscape:connector-curvature="0" />
    <path
       d="m 426.31969,280.97917 c 1.36,0 2.6,0.79998 2.6,-14.92 0,-10.51999 -4.64,-10.68 -5.76,-10.68 -2.56,0 -4.4,1.64 -5.08,1.64 -0.4,0 -0.6,-0.36 -0.6,-0.76 0,-0.56 0.36,-1.04 0.36,-1.44 0,-0.92 -1.44,-0.72 -2.84,-0.72 -3.08,0 -4.48,-1.11999 -4.48,17 0,10.55999 0.6,9.88 2.08,9.88 l 3.4,0 c 0.4,0 1.08,0.04 1.08,-0.52 0,-0.48 -1.16,-6.64001 -1.16,-11.44 0,-7.92 3.12,-8.92 4.64,-8.92 2.71999,0 2.96,3.56 2.96,6.4 0,8.11999 -2.04,13.44 -2.04,13.84 0,0.76 0.88,0.64 1.4,0.64 l 3.44,0"
       style="font-size:40px"
       id="path4643"
       inkscape:connector-curvature="0" />
    <path
       d="m 438.50906,280.97917 c 0.6,0 1,-0.04 1,-0.48 0,-0.72 -1,-3.32001 -1,-8.2 0,-1.92 1.84,-2.52 2.36,-2.52 1.2,0 3.8,4.44 3.84,9.96 0.04,1.28 0.4,1.24 1.48,1.24 l 3.24,0 c 1,0 1.76,0.12 1.76,-1.08 0,-4.76 -1.64,-8.16001 -3.28,-10.2 -1.64,-2.04 -3.28,-2.68 -3.28,-3.52 0,-0.8 4.36,-4.40001 4.36,-9.92 0,-1.12 -0.92,-0.88 -1.72,-0.88 l -2.44,0 c -0.84,0 -1.24,-0.16 -1.24,0.84 0,4.31999 -3.64,9.6 -5,9.6 -0.52,0 -0.52,-1.8 -0.52,-3.2 0.04,-10.39999 1.48,-14.08 1.48,-14.88 0,-0.64 -0.44,-0.88 -0.96,-0.88 l -4.28,0 c -1.8,0 -1.64,17.92 -1.64,19.8 0,0.92 -0.16,14.32 1.24,14.32 l 4.6,0"
       style="font-size:40px"
       id="path4645"
       inkscape:connector-curvature="0" />
    <path
       d="m 472.89844,281.57917 c 4.79999,0 9.12,-2.96001 9.12,-8.16 0,-8.12 -11.68,-8.04001 -11.68,-12.16 0,-1.2 1.68,-1.76 2.92,-1.76 3.67999,0 3.92,3.08 4.96,3.08 0.92,0 3.16,-3.24 3.16,-4 0,-0.8 -2.76001,-3.8 -7.76,-3.8 -4.32,0 -8.24,2.64 -8.24,7.52 0,7.95999 10.8,6.88 10.8,11 0,2.03999 -1.92,2.88 -3.56,2.88 -5.68,0 -6.68,-6.04 -6.88,-6.04 -0.32,0 -1.28,2.4 -1.28,4.28 0,4.67999 4.2,7.16 8.44,7.16"
       style="font-size:40px"
       id="path4647"
       inkscape:connector-curvature="0" />
    <path
       d="m 487.88156,246.85917 c -2.2,0 -2.28,14.52 -2.28,17.72 0,17.75998 0,16.4 1.16,16.4 l 3.96,0 c 0.4,0 1.16,0 1.16,-0.64 0,-1.16 -0.88,-3.76001 -0.88,-11.76 0,-2.84 0.08,-9.08 4.16,-9.08 1.96,0 3,1.24 3,7.44 0,5.31999 -2,13.24 -2,13.52 0,0.64 1.08,0.52 1.44,0.52 l 4.16,0 c 1.24,0 1.8,-10.12001 1.8,-13.96 0,-9.63999 -2.68,-12.24 -6.32,-12.24 -1.32,0 -2.44,0.48 -3.36,0.96 -0.88,0.52 -1.52,0.88 -1.84,0.88 -0.68,0 -0.68,-0.76 -0.68,-1.24 0,-3.2 1.52,-7.12 1.52,-7.68 0,-0.4 -0.28,-0.84 -0.64,-0.84 l -4.36,0"
       style="font-size:40px"
       id="path4649"
       inkscape:connector-curvature="0" />
    <path
       d="m 516.35844,281.57917 c 4.79999,0 8.72,-2.92001 8.72,-8 0,-0.32 -0.12,-2.4 -0.72,-2.4 -0.56,0 -0.56001,5 -7.12,5 -2,0 -5.04,-1.36001 -5.04,-3.24 0,-4.16 12.88,-2.36001 12.88,-10.96 0,-4.72 -3.72001,-7.2 -8.12,-7.2 -5.36,0 -10.72,4.80001 -10.72,14.48 0,6.39999 2.96,12.32 10.12,12.32 m 0.4,-22.08 c 1.52,0 3.36,1.08 3.36,3.04 0,2.03999 -7.28,3.64 -7.76,3.64 -0.52,0 -0.72,-0.44 -0.72,-0.88 0,-2.32 1.88,-5.8 5.12,-5.8"
       style="font-size:40px"
       id="path4651"
       inkscape:connector-curvature="0" />
    <path
       d="m 300.83625,330.97917 c 0.92,0 2.12,0.24 2.12,-1.04 0,-0.36 -1.56,-6.56001 -1.56,-16.64 0,-4.36 0.48,-5.84 0.48,-7.32 0,-0.48 -0.04,-0.6 -1.72,-0.6 l -2.2,0 c -1.32,0 -1.96,-1.31999 -1.96,12.36 0,14.07998 0.16,13.24 2.12,13.24 l 2.72,0 m -1.32,-28.72 c 1.6,0 3.08,-0.92001 3.08,-2.64 0,-1.72 -1.48,-2.76 -3.08,-2.76 -1.6,0 -3.08,1.04 -3.08,2.76 0,1.71999 1.48,2.64 3.08,2.64"
       style="font-size:40px"
       id="path4653"
       inkscape:connector-curvature="0" />
    <path
       d="m 314.78125,331.57917 c 4.8,0 9.12,-2.96001 9.12,-8.16 0,-8.12 -11.68,-8.04001 -11.68,-12.16 0,-1.2 1.68,-1.76 2.92,-1.76 3.68,0 3.92,3.08 4.96,3.08 0.92,0 3.16,-3.24 3.16,-4 0,-0.8 -2.76001,-3.8 -7.76,-3.8 -4.32,0 -8.24,2.64 -8.24,7.52 0,7.95999 10.8,6.88 10.8,11 0,2.03999 -1.92,2.88 -3.56,2.88 -5.67999,0 -6.68,-6.04 -6.88,-6.04 -0.32,0 -1.28,2.4 -1.28,4.28 0,4.67999 4.2,7.16 8.44,7.16"
       style="font-size:40px"
       id="path4655"
       inkscape:connector-curvature="0" />
    <path
       d="m 330.76437,318.77917 c 0,1.48 0.56001,1.24 1.88001,1.24 1.75999,0 2.11999,0.23999 2.11999,-1.52 0,-3.08 7.92,-4.76001 7.92,-12 0,-4.84 -3.4,-9.4 -8.47999,-9.4 -3.68,0 -6.72001,2.76 -6.72001,4.04 0,0.48 2.68001,3.56 3.12,3.56 0.64,0 1.20001,-2.48 3.48001,-2.48 1.87999,0 2.76,1.8 2.76,3.44 0,4.95999 -6.08001,4.36 -6.08001,10.24 l 0,2.88 m 2.08001,12.8 c 2.47999,0 4.51999,-1.92001 4.51999,-4.4 0,-2.48 -2.04,-4.4 -4.56,-4.4 -2.39999,0 -4.39999,1.96 -4.39999,4.36 0,2.43999 1.96,4.44 4.44,4.44"
       style="font-size:40px"
       id="path4657"
       inkscape:connector-curvature="0" />
    <path
       d="m 351.14312,331.57917 c 2.48,0 4.52,-1.92001 4.52,-4.4 0,-2.48 -2.04,-4.4 -4.56,-4.4 -2.39999,0 -4.4,1.96 -4.4,4.36 0,2.43999 1.96001,4.44 4.44,4.44 m -2.2,-33.88 c -1.59999,0 -2.24,-0.72 -2.24,5.84 0,4.31999 1.80001,16.8 3.64,16.8 1.08,0 2.8,-0.16 2.8,-0.56 0,-0.8 -0.64,-5.60001 -0.64,-9.6 0,-5.6 3.16,-11.08 3.16,-11.72 0,-0.68 -0.88,-0.76 -1.4,-0.76 l -5.32,0"
       style="font-size:40px"
       id="path4659"
       inkscape:connector-curvature="0" />
  </g>
  <path
     style="fill:#ffffff;fill-opacity:0.05777779;stroke:none"
     d="m 115.22303,110.46765 c -1.27744,-0.007 -2.54428,0.005 -3.78125,0.0312 -7.20119,14.23037 -10.96385,21.67943 -21.124996,41.75 3.260317,3.90707 7.6944,7.0761 13.468746,8.9375 l 44.96875,-46.875 c -5.95584,-2.21263 -14.54443,-3.22751 -25.28125,-3.625 -2.80777,-0.10395 -5.56842,-0.20435 -8.25,-0.21875 z"
     id="path4683"
     inkscape:connector-curvature="0" />
  <path
     style="fill:url(#linearGradient4698);fill-opacity:1;stroke:#000000;stroke-width:2;stroke-linecap:butt;stroke-linejoin:miter;stroke-miterlimit:4;stroke-opacity:0.50222222;stroke-dasharray:none"
     d="m 171.09902,150.59292 c 8.69885,22.56101 11.36713,9.18221 12.72793,25.45584 1.07012,12.7976 -19.09189,13.43503 -19.09189,13.43503"
     id="path4688"
     inkscape:connector-curvature="0"
     sodipodi:nodetypes="csc" />
  <path
     style="fill:#61693e;fill-opacity:1;stroke:none"
     d="m 97.559921,284.94321 24.748729,52.3259 -8.48527,-53.03301"
     id="path4712"
     inkscape:connector-curvature="0" />
  <path
     style="fill:#61693e;fill-opacity:1;stroke:none"
     d="m 201.50461,287.06453 -2.82842,43.13351 19.09188,-42.4264"
     id="path4714"
     inkscape:connector-curvature="0" />
  <path
     style="fill:#933030;fill-opacity:1;stroke:#000000;stroke-width:1px;stroke-linecap:butt;stroke-linejoin:miter;stroke-opacity:1"
     d="m 236.47303,277.34265 c -0.58112,-0.005 -1.18211,0.015 -1.78125,0.0312 -3.43915,0.0933 -7.21272,0.54397 -11.28125,1.15625 l -11.65625,57.3125 6.21875,0 48.8125,0 c -2.91587,-47.34986 -12.29765,-58.33341 -30.3125,-58.5 z"
     id="path4718"
     inkscape:connector-curvature="0" />
  <path
     style="fill:#ffffff;fill-opacity:0.12000002;stroke:none"
     d="m 93.785534,48.655151 c -7.017499,3.793831 -13.966271,8.612866 -20.40625,14.65625 7.260143,14.399065 23.060118,25.736598 38.812496,37.093749 0.8554,-0.969989 1.70029,-1.927491 2.59375,-2.843749 C 98.995105,72.839978 94.707254,57.200706 93.785534,48.655151 z"
     id="path4784"
     inkscape:connector-curvature="0" />
  <path
     style="fill:#757e4a;fill-opacity:1;stroke:#000000;stroke-width:1px;stroke-linecap:butt;stroke-linejoin:miter;stroke-opacity:1"
     d="m 259.47303,158.5614 c -10.42432,0.17828 -19.2278,3.15217 -20.8125,7.90625 -2.70224,8.1067 15.1599,12.17187 24.40625,13.71875 -10.19622,-1.30353 -31.82096,-3.02096 -32.375,5.84375 -0.4865,7.78405 15.66565,9.68331 26.34375,10.09375 -9.25671,0.22358 -22.25248,1.43357 -22.71875,6.5625 -0.72443,7.96875 32.59375,7.96875 32.59375,7.96875 0,0 -35.2316,0.029 -35.2316,7.27329 0,7.24432 38.13501,2.86591 42.4816,13.00796 4.34659,10.14204 -13.78125,57.21875 -13.78125,57.21875 l -22.03125,47.6875 49.71875,0 c -3.25527,-10.85849 -3.84262,-25.59358 -0.15625,-45.5 18.1108,-97.7983 20.28409,-97.06535 7.96875,-116.625 -6.92738,-11.00231 -23.00355,-15.38546 -36.40625,-15.15625 z"
     id="path4544"
     inkscape:connector-curvature="0"
     sodipodi:nodetypes="sscscscsscccsss" />
</svg>
