<?xml version="1.0" encoding="UTF-8" standalone="no"?>
<!-- Created with Inkscape (http://www.inkscape.org/) -->

<svg
   xmlns:dc="http://purl.org/dc/elements/1.1/"
   xmlns:cc="http://creativecommons.org/ns#"
   xmlns:rdf="http://www.w3.org/1999/02/22-rdf-syntax-ns#"
   xmlns:svg="http://www.w3.org/2000/svg"
   xmlns="http://www.w3.org/2000/svg"
   xmlns:sodipodi="http://sodipodi.sourceforge.net/DTD/sodipodi-0.dtd"
   xmlns:inkscape="http://www.inkscape.org/namespaces/inkscape"
   width="866.87128"
   height="2616.9814"
   id="svg2"
   version="1.1"
   inkscape:version="0.48.2 r9819"
   sodipodi:docname="res.svg"
   inkscape:export-filename="/Users/keegan/Desktop/6.png"
   inkscape:export-xdpi="45"
   inkscape:export-ydpi="45">
  <defs
     id="defs4" />
  <sodipodi:namedview
     id="base"
     pagecolor="#ffffff"
     bordercolor="#666666"
     borderopacity="1.0"
     inkscape:pageopacity="0.0"
     inkscape:pageshadow="2"
     inkscape:zoom="0.5"
     inkscape:cx="683.60142"
     inkscape:cy="2112.4274"
     inkscape:document-units="px"
     inkscape:current-layer="layer1"
     showgrid="false"
     inkscape:window-width="1440"
     inkscape:window-height="803"
     inkscape:window-x="0"
     inkscape:window-y="0"
     inkscape:window-maximized="1"
     fit-margin-top="10"
     fit-margin-left="10"
     fit-margin-right="10"
     fit-margin-bottom="10" />
  <metadata
     id="metadata7">
    <rdf:RDF>
      <cc:Work
         rdf:about="">
        <dc:format>image/svg+xml</dc:format>
        <dc:type
           rdf:resource="http://purl.org/dc/dcmitype/StillImage" />
        <dc:title></dc:title>
      </cc:Work>
    </rdf:RDF>
  </metadata>
  <g
     inkscape:label="Layer 1"
     inkscape:groupmode="layer"
     id="layer1"
     transform="translate(64.698347,135.13452)">
    <path
       style="fill:none;stroke:#000000;stroke-width:10;stroke-linecap:butt;stroke-linejoin:miter;stroke-miterlimit:4;stroke-opacity:1;stroke-dasharray:none"
       d="m -17.952761,1552.3086 780.000001,0"
       id="path3827"
       inkscape:connector-curvature="0" />
    <flowRoot
       xml:space="preserve"
       id="flowRoot2985"
       style="font-size:56px;font-style:normal;font-variant:normal;font-weight:bold;font-stretch:normal;text-align:center;line-height:125%;letter-spacing:0px;word-spacing:0px;text-anchor:middle;fill:#000000;fill-opacity:1;stroke:none;font-family:Hobo Std;-inkscape-font-specification:CMU Concrete Bold"
       transform="translate(-59.746258,-124.50667)"><flowRegion
         id="flowRegion2987"><rect
           id="rect2989"
           width="844.17279"
           height="216.21478"
           x="13.462413"
           y="42.362183"
           style="font-weight:bold;text-align:center;text-anchor:middle;-inkscape-font-specification:CMU Concrete Bold" /></flowRegion><flowPara
         id="flowPara2991"
         style="font-size:60px;font-style:normal;font-variant:normal;font-weight:bold;font-stretch:normal;text-align:center;text-anchor:middle;font-family:CMU Concrete;-inkscape-font-specification:CMU Concrete Bold">What Your Manner of Drawing Resistor Symbols Says About You.</flowPara></flowRoot>    <path
       style="fill:none;stroke:#000000;stroke-width:12.27309036;stroke-linecap:square;stroke-linejoin:round;stroke-miterlimit:4;stroke-opacity:1;stroke-dasharray:none"
       d="m 0.67970861,254.64914 317.72432139,0 37.05219,-49.32037 33.99108,97.49095 39.64194,-52.76759 314.32553,0"
       id="path2993"
       inkscape:connector-curvature="0"
       sodipodi:nodetypes="cccccc" />
    <text
       xml:space="preserve"
       style="font-size:36px;font-style:normal;font-variant:normal;font-weight:bold;font-stretch:normal;text-align:center;line-height:125%;letter-spacing:0px;word-spacing:0px;text-anchor:middle;fill:#000000;fill-opacity:1;stroke:none;font-family:CMU Concrete;-inkscape-font-specification:CMU Concrete Bold"
       x="373.3497"
       y="360.73059"
       id="text3763"
       sodipodi:linespacing="125%"><tspan
         sodipodi:role="line"
         id="tspan3765"
         x="373.3497"
         y="360.73059">You're way too lazy.</tspan></text>
    <text
       xml:space="preserve"
       style="font-size:36px;font-style:normal;font-variant:normal;font-weight:bold;font-stretch:normal;text-align:center;line-height:125%;letter-spacing:0px;word-spacing:0px;text-anchor:middle;fill:#000000;fill-opacity:1;stroke:none;font-family:CMU Concrete;-inkscape-font-specification:CMU Concrete Bold"
       x="373.3497"
       y="598.96423"
       id="text3791"
       sodipodi:linespacing="125%"><tspan
         sodipodi:role="line"
         id="tspan3793"
         x="373.3497"
         y="598.96423">You're a pretty sensible person.</tspan></text>
    <path
       sodipodi:nodetypes="cccccccc"
       inkscape:connector-curvature="0"
       id="path3795"
       d="m -0.70578808,492.16941 270.42352808,0 34.16758,-48.08673 45.59615,99.91639 45.59616,-99.91639 45.59615,99.91639 34.16758,-51.82966 268.5447,0"
       style="fill:none;stroke:#000000;stroke-width:10;stroke-linecap:square;stroke-linejoin:round;stroke-miterlimit:4;stroke-opacity:1;stroke-dasharray:none" />
    <path
       style="fill:none;stroke:#000000;stroke-width:10;stroke-linecap:square;stroke-linejoin:round;stroke-miterlimit:4;stroke-opacity:1;stroke-dasharray:none"
       d="m 1.2377212,745.1153 268.7189088,0 25.07839,50.8161 37.93553,-98.90012 37.93553,98.90012 37.93553,-98.90012 37.93553,98.90012 25.07839,-50.8161 269.58702,0"
       id="path3797"
       inkscape:connector-curvature="0"
       sodipodi:nodetypes="ccccccccc" />
    <text
       sodipodi:linespacing="125%"
       id="text3799"
       y="856.01282"
       x="372.73236"
       style="font-size:36px;font-style:normal;font-variant:normal;font-weight:bold;font-stretch:normal;text-align:center;line-height:125%;letter-spacing:0px;word-spacing:0px;text-anchor:middle;fill:#000000;fill-opacity:1;stroke:none;font-family:CMU Concrete;-inkscape-font-specification:CMU Concrete Bold"
       xml:space="preserve"><tspan
         y="856.01282"
         x="372.73236"
         sodipodi:role="line"
         id="tspan3803"
         style="font-size:30px">What's wrong with you? An odd number of humps?</tspan><tspan
         y="893.51282"
         x="372.73236"
         sodipodi:role="line"
         id="tspan3813"
         style="font-size:30px">Something must be out of balance in your life.</tspan></text>
    <text
       xml:space="preserve"
       style="font-size:36px;font-style:normal;font-variant:normal;font-weight:bold;font-stretch:normal;text-align:center;line-height:125%;letter-spacing:0px;word-spacing:0px;text-anchor:middle;fill:#000000;fill-opacity:1;stroke:none;font-family:CMU Concrete;-inkscape-font-specification:CMU Concrete Bold"
       x="372.98972"
       y="1150.1597"
       id="text3809"
       sodipodi:linespacing="125%"><tspan
         id="tspan3811"
         sodipodi:role="line"
         x="372.98972"
         y="1150.1597">That's how everyone does it.You're boooriing.</tspan></text>
    <path
       style="fill:none;stroke:#000000;stroke-width:10.40919876;stroke-linecap:square;stroke-linejoin:round;stroke-miterlimit:4;stroke-opacity:1;stroke-dasharray:none"
       d="m -1.7090358,1045.1028 270.0980358,0 29.81772,52.679 29.81772,-107.5966 29.81773,107.5966 29.81773,-107.5966 29.81772,107.5966 29.81773,-107.5966 29.81772,54.9176 268.69045,0"
       id="path3815"
       inkscape:connector-curvature="0"
       sodipodi:nodetypes="cccccccccc" />
    <path
       style="fill:none;stroke:#000000;stroke-width:10;stroke-linecap:butt;stroke-linejoin:round;stroke-miterlimit:4;stroke-opacity:1;stroke-dasharray:none"
       d="m -7.2384758,1299.0841 119.4957958,0 35.21009,60.289 35.21008,-116.1623 35.21008,116.1623 35.21009,-116.1623 35.21008,116.1623 35.21009,-116.1623 35.21008,116.1623 35.21009,-116.1623 35.21008,116.1623 35.21008,-116.1623 35.21009,116.1623 35.21008,-116.1623 35.21009,116.1623 35.21008,-116.1623 35.21009,55.8733 110.92437,0"
       id="path3819"
       inkscape:connector-curvature="0"
       sodipodi:nodetypes="cccccccccccccccccc" />
    <text
       sodipodi:linespacing="125%"
       id="text3821"
       y="1422.1963"
       x="373.31372"
       style="font-size:36px;font-style:normal;font-variant:normal;font-weight:bold;font-stretch:normal;text-align:center;line-height:125%;letter-spacing:0px;word-spacing:0px;text-anchor:middle;fill:#000000;fill-opacity:1;stroke:none;font-family:CMU Concrete;-inkscape-font-specification:CMU Concrete Bold"
       xml:space="preserve"><tspan
         y="1422.1963"
         x="373.31372"
         sodipodi:role="line"
         id="tspan3823">Whoah!  Calm down.</tspan></text>
    <rect
       style="fill:#ffffff;fill-opacity:1;stroke:#000000;stroke-width:10;stroke-linecap:square;stroke-linejoin:round;stroke-miterlimit:4;stroke-opacity:1;stroke-dasharray:none;stroke-dashoffset:0"
       id="rect3825"
       width="225.71429"
       height="75.714287"
       x="259.19009"
       y="1514.4515"
       ry="0" />
    <text
       xml:space="preserve"
       style="font-size:36px;font-style:normal;font-variant:normal;font-weight:bold;font-stretch:normal;text-align:center;line-height:125%;letter-spacing:0px;word-spacing:0px;text-anchor:middle;fill:#000000;fill-opacity:1;stroke:none;font-family:CMU Concrete;-inkscape-font-specification:CMU Concrete Bold"
       x="372.59372"
       y="1669.3391"
       id="text3829"
       sodipodi:linespacing="125%"><tspan
         id="tspan3831"
         sodipodi:role="line"
         x="379.48434"
         y="1669.3391">Stupid Europeans. Seriously, you couldn't </tspan><tspan
         sodipodi:role="line"
         x="372.59372"
         y="1714.3391"
         id="tspan3970">be more creative than a box?</tspan></text>
    <path
       style="fill:#000000"
       d="m 330.90293,2316.7082 c -0.002,-13.2325 0.35213,-17.2929 1.9638,-22.5109 1.60067,-5.1824 2.00001,-9.6581 2.14738,-24.0677 l 0.18104,-17.7014 -2.86188,-3.7522 c -1.57403,-2.0636 -4.45286,-5.3876 -6.39738,-7.3866 -7.68412,-7.8993 -10.77675,-11.5404 -11.42043,-13.4458 -0.36988,-1.0949 -2.93167,-4.4657 -5.69286,-7.4907 -6.9464,-7.6101 -19.39937,-24.0548 -21.84297,-28.8447 -3.68738,-7.2278 -3.70814,-11.1703 -0.0963,-18.278 6.09978,-12.0036 13.90437,-24.4024 19.43614,-30.8773 3.05425,-3.575 5.55942,-7.0162 5.56704,-7.6472 0.008,-0.6309 1.23906,-2.5434 2.73653,-4.25 3.89138,-4.4347 7.39379,-4.1094 19.08602,1.7725 5.33021,2.6815 13.2913,6.1029 17.6913,7.6033 4.4,1.5003 8.9,3.1239 10,3.6079 1.1,0.484 5.15,2.2056 9,3.8258 l 7,2.9457 0,8.4686 c 0,9.9902 -1.11862,11.8363 -8.26193,13.635 -5.97105,1.5036 -21.01267,1.4704 -22.84507,-0.05 -0.76615,-0.6358 -1.393,-0.8644 -1.393,-0.508 0,0.3565 -1.35,-0.05 -3,-0.9032 -1.65,-0.8532 -3,-1.9898 -3,-2.5257 0,-2.2255 -3.80891,-0.8718 -4.42219,1.5717 -0.85836,3.42 -0.0347,4.454 3.54793,4.454 1.66751,0 4.46819,1.114 6.28537,2.5 1.80272,1.375 3.8417,2.5 4.53106,2.5 2.19294,0 11.02611,10.2634 14.63104,17 1.91307,3.575 5.94172,10.4962 8.95255,15.3805 3.01083,4.8843 5.47424,9.2718 5.47424,9.75 0,0.4782 0.45,0.8695 1,0.8695 0.55,0 1.00963,0.5625 1.0214,1.25 0.0189,1.1067 7.50521,13.5431 9.81979,16.313 3.34088,3.998 3.60113,8.9951 0.59825,11.4873 -1.13548,0.9423 -1.02439,1.5921 0.66224,3.8734 1.11461,1.5076 1.92773,3.829 1.80692,5.1587 -0.38001,4.1827 0.0547,6.9176 1.09948,6.9176 0.55897,0 0.92925,-2.0838 0.83115,-4.6774 -0.15506,-4.0995 0.20179,-4.9951 2.8889,-7.25 l 3.06582,-2.5726 -3.39698,-3.9166 c -2.10521,-2.4273 -3.39697,-4.9716 -3.39697,-6.691 0,-1.5259 -0.44321,-3.0483 -0.98491,-3.3831 -0.5417,-0.3348 -2.84469,-3.7931 -5.11776,-7.6851 -2.27306,-3.892 -4.86735,-7.9575 -5.76508,-9.0345 -0.89774,-1.077 -2.36984,-2.8315 -3.27134,-3.899 -0.9015,-1.0675 -2.19359,-3.2796 -2.87132,-4.9158 -0.67773,-1.6362 -1.57885,-2.9749 -2.0025,-2.9749 -0.42365,0 -1.07658,-1.2204 -1.45096,-2.7121 -0.37438,-1.4916 -1.92117,-4.5291 -3.43732,-6.75 -1.51614,-2.2208 -3.95862,-5.7882 -5.42772,-7.9274 -3.79018,-5.5192 -3.56175,-8.96 0.73004,-10.9966 4.68986,-2.2254 7.31005,-2.0233 9.89432,0.7632 6.72666,7.2532 10.12953,10.6229 10.7273,10.6229 0.36917,0 1.72307,0.9123 3.00865,2.0272 1.28558,1.115 3.49193,2.3097 4.90301,2.6549 2.91305,0.7127 12.92259,7.2357 15.06586,9.8182 2.04999,2.4701 11.45209,6.395 15.78762,6.5906 5.69312,0.2568 8.91033,-1.5434 16.32051,-9.1321 7.95548,-8.1471 10.8702,-9.6684 13.72442,-7.1633 2.99173,2.6259 4.16656,7.2996 2.70842,10.7747 -0.67614,1.6114 -1.56533,4.7298 -1.97598,6.9298 -0.41064,2.2 -1.56535,5.8 -2.56601,8 -2.79436,6.1435 -5.99818,14.8514 -5.99875,16.3044 -5e-4,1.3001 -8.78456,12.1897 -15.80475,19.5931 -2.03266,2.1437 -3.78506,4.6187 -3.89422,5.5 -0.10916,0.8814 -0.70708,3.6275 -1.32871,6.1025 -0.62163,2.475 -0.8554,6.6294 -0.51948,9.232 0.36961,2.8636 0.0385,7.0093 -0.83855,10.5 -0.79711,3.1724 -1.73825,12.743 -2.0914,21.268 -0.35315,8.525 -1.14615,16.8007 -1.76222,18.3904 l -1.12012,2.8904 -43.81798,-0.3904 -43.81797,-0.3904 -0.002,-16.1447 z m 84.87083,-111.4159 c -3.78036,-3.9023 -6.87338,-7.735 -6.87338,-8.5172 0,-0.7822 0.97689,-2.3991 2.17088,-3.5931 1.19398,-1.194 4.03317,-4.4565 6.30931,-7.25 5.94333,-7.2943 18.64174,-20.1455 21.20407,-21.4592 1.20134,-0.6159 3.27815,-1.1199 4.61514,-1.1199 2.51501,0 7.7006,3.4272 7.7006,5.0894 0,0.5193 2.025,2.8845 4.5,5.256 3.00012,2.8746 4.5,5.151 4.5,6.8295 0,2.9278 -2.72002,8.8251 -4.07036,8.8251 -0.50813,0 -2.61267,1.5245 -4.67676,3.3877 -2.06408,1.8632 -5.55288,4.3679 -7.75288,5.5658 -9.08203,4.9455 -11.13914,6.3359 -14,9.4625 -5.11338,5.5884 -5.96323,5.4339 -13.62662,-2.4766 z m -20.62338,-9.9125 c -2.3375,-1.061 -4.25,-1.7291 -4.25,-1.4846 0,0.2445 -1.0125,-0.4281 -2.25,-1.4945 -1.2375,-1.0664 -3.825,-2.9914 -5.75,-4.2777 -5.68502,-3.7989 -5.32523,-11.5707 0.82372,-17.7931 4.42585,-4.4786 6.14178,-6.6431 8.34873,-10.5308 0.91984,-1.6204 6.3801,-7.7837 12.1339,-13.6962 9.24472,-9.4997 10.85616,-10.75 13.85505,-10.75 3.60796,0 7.83824,2.3241 7.83914,4.3067 3e-4,0.6563 1.95726,3.2183 4.3488,5.6933 7.57243,7.8367 8.69673,12.7922 3.90066,17.1925 -1.5125,1.3877 -4.29461,4.4356 -6.18247,6.7732 -1.88785,2.3375 -6.69231,7.5632 -10.67657,11.6126 -3.98427,4.0494 -8.5121,9.0634 -10.06185,11.1422 -4.56432,6.1223 -5.38235,6.3462 -12.07911,3.3064 z m -7.25,-42.0577 c -3.75744,-0.7378 -8.9227,-3.2371 -9.90041,-4.7906 -0.32977,-0.5239 -2.17459,-1.8271 -4.09959,-2.896 -1.925,-1.0689 -3.96757,-2.8718 -4.53904,-4.0064 -0.57148,-1.1346 -1.63664,-2.783 -2.36704,-3.663 -2.09427,-2.5235 0.61376,-6.9535 10.31746,-16.8781 7.01189,-7.1715 9.08199,-8.7351 11.56466,-8.7351 2.95501,0 7.02396,2.9284 7.02396,5.055 0,0.5803 2.46375,2.1446 5.47501,3.4764 5.31834,2.352 5.75114,2.8964 6.733,8.4686 0.33366,1.8936 -8.04816,15.1812 -12.98076,20.5782 -3.40245,3.7228 -4.03225,4.0183 -7.22725,3.391 z m -39.51335,-18.3104 c -2.74266,-1.8377 -6.24187,-3.6508 -7.77603,-4.029 -1.53416,-0.3782 -4.17547,-2.0123 -5.86957,-3.6313 l -3.08019,-2.9436 1.70307,-4.2774 c 1.92375,-4.8318 5.56315,-10.081 9.55215,-13.7775 1.48382,-1.375 3.5153,-3.9304 4.5144,-5.6787 2.97292,-5.2023 8.30904,-5.7751 12.45482,-1.337 1.53325,1.6413 5.03224,4.1116 7.77554,5.4895 6.73786,3.3842 8.06609,6.5425 5.29485,12.5901 -4.36349,9.5224 -10.4351,18.3323 -13.64092,19.793 -3.8526,1.7553 -5.53183,1.4176 -10.92812,-2.1981 z"
       id="path3968"
       inkscape:connector-curvature="0" />
    <text
       sodipodi:linespacing="125%"
       id="text3980"
       y="2915.7451"
       x="143.21994"
       style="font-size:110px;font-style:normal;font-variant:normal;font-weight:bold;font-stretch:normal;line-height:125%;letter-spacing:0px;word-spacing:0px;fill:#000000;fill-opacity:1;stroke:#ffffff;stroke-width:14.09999847;stroke-miterlimit:4;stroke-opacity:1;stroke-dasharray:none;font-family:Impact;-inkscape-font-specification:Impact Bold"
       xml:space="preserve"
       transform="scale(1.2209577,0.8190292)"><tspan
         style="font-size:110px;font-style:normal;font-variant:normal;font-weight:bold;font-stretch:normal;stroke:#ffffff;stroke-width:14.09999847;stroke-miterlimit:4;stroke-opacity:1;stroke-dasharray:none;font-family:Impact;-inkscape-font-specification:Impact Bold"
         y="2915.7451"
         x="143.21994"
         id="tspan3982"
         sodipodi:role="line">RESIST!</tspan></text>
    <text
       sodipodi:linespacing="125%"
       id="text3990"
       y="2464.9348"
       x="372.59372"
       style="font-size:36px;font-style:normal;font-variant:normal;font-weight:bold;font-stretch:normal;text-align:center;line-height:125%;letter-spacing:0px;word-spacing:0px;text-anchor:middle;fill:#000000;fill-opacity:1;stroke:none;font-family:CMU Concrete;-inkscape-font-specification:CMU Concrete Bold"
       xml:space="preserve"><tspan
         y="2464.9348"
         x="372.59372"
         sodipodi:role="line"
         id="tspan4000">Wait, no. That's not what I meant.</tspan></text>
    <path
       style="font-size:medium;font-style:normal;font-variant:normal;font-weight:normal;font-stretch:normal;text-indent:0;text-align:start;text-decoration:none;line-height:normal;letter-spacing:normal;word-spacing:normal;text-transform:none;direction:ltr;block-progression:tb;writing-mode:lr-tb;text-anchor:start;baseline-shift:baseline;color:#000000;fill:#cfcfcf;fill-opacity:1;stroke:#000000;stroke-width:3.41380692;stroke-miterlimit:4;stroke-opacity:1;stroke-dasharray:none;marker:none;visibility:visible;display:inline;overflow:visible;enable-background:accumulate;font-family:Sans;-inkscape-font-specification:Sans"
       d="m 56.370911,1845.744 a 14.138721,10.099288 0 1 0 0,20.1965 l 630.119969,0 a 14.138721,10.099288 0 1 0 0,-20.1965 l -630.119969,0 z"
       id="path4007"
       inkscape:connector-curvature="0" />
    <path
       inkscape:connector-curvature="0"
       id="path4043"
       d="m 56.370911,1845.744 a 14.138721,10.099288 0 1 0 0,20.1965 l 630.119969,0 a 14.138721,10.099288 0 1 0 0,-20.1965 l -630.119969,0 z"
       style="font-size:medium;font-style:normal;font-variant:normal;font-weight:normal;font-stretch:normal;text-indent:0;text-align:start;text-decoration:none;line-height:normal;letter-spacing:normal;word-spacing:normal;text-transform:none;direction:ltr;block-progression:tb;writing-mode:lr-tb;text-anchor:start;baseline-shift:baseline;color:#000000;fill:#cfcfcf;fill-opacity:1;stroke:#000000;stroke-width:3.41380692;stroke-miterlimit:4;stroke-opacity:1;stroke-dasharray:none;marker:none;visibility:visible;display:inline;overflow:visible;enable-background:accumulate;font-family:Sans;-inkscape-font-specification:Sans" />
    <path
       inkscape:connector-curvature="0"
       style="font-size:medium;font-style:normal;font-variant:normal;font-weight:normal;font-stretch:normal;text-indent:0;text-align:start;text-decoration:none;line-height:normal;letter-spacing:normal;word-spacing:normal;text-transform:none;direction:ltr;block-progression:tb;writing-mode:lr-tb;text-anchor:start;baseline-shift:baseline;color:#000000;fill:#ffffff;fill-opacity:1;stroke:none;stroke-width:4.22581339;marker:none;visibility:visible;display:inline;overflow:visible;enable-background:accumulate;font-family:Sans;-inkscape-font-specification:Sans"
       d="m 56.369726,1845.7523 a 14.138721,10.099288 0 0 0 -10.451509,3.1556 14.138721,10.099288 0 0 0 10.451509,3.1557 l 630.119974,0 a 14.138721,10.099288 0 0 0 10.45151,-3.1557 14.138721,10.099288 0 0 0 -10.45151,-3.1556 l -630.119974,0 z"
       id="path4045" />
    <path
       inkscape:connector-curvature="0"
       style="fill:#c99d77;fill-opacity:1;stroke:#000000;stroke-width:8.07846165;stroke-linecap:square;stroke-linejoin:round;stroke-miterlimit:4;stroke-opacity:1;stroke-dasharray:none;stroke-dashoffset:0"
       d="m 280.09261,1815.8368 c -6.99292,0 -12.62259,5.6297 -12.62259,12.6226 l 0,59.3261 c 0,6.993 5.62967,12.6226 12.62259,12.6226 l 20.19615,0 c 6.68447,0 12.10531,-5.1521 12.57211,-11.7137 l 108.6553,0 c 0.4668,6.5616 5.88764,11.7137 12.57211,11.7137 l 20.19615,0 c 6.99292,0 12.6226,-5.6296 12.6226,-12.6226 l 0,-59.3261 c 0,-6.9929 -5.62968,-12.6226 -12.6226,-12.6226 l -20.19615,0 c -6.68447,0 -12.10531,5.1521 -12.57211,11.7138 l -108.6553,0 c -0.4668,-6.5617 -5.88764,-11.7138 -12.57211,-11.7138 l -20.19615,0 z"
       id="rect4009" />
    <rect
       style="fill:#6c63b3;fill-opacity:1;fill-rule:nonzero;stroke:none"
       id="rect4054"
       width="15.147115"
       height="53.0149"
       x="315.43588"
       y="1831.2743" />
    <rect
       y="1831.2743"
       x="344.46786"
       height="53.0149"
       width="15.147115"
       id="rect4056"
       style="fill:#ff2e71;fill-opacity:1;fill-rule:nonzero;stroke:none" />
    <rect
       style="fill:#ff2e71;fill-opacity:1;fill-rule:nonzero;stroke:none"
       id="rect4058"
       width="15.147115"
       height="53.0149"
       x="372.23755"
       y="1831.2743" />
    <rect
       y="1831.2743"
       x="400.00726"
       height="53.0149"
       width="15.147115"
       id="rect4060"
       style="fill:#df6e00;fill-opacity:1;fill-rule:nonzero;stroke:none" />
    <path
       inkscape:connector-curvature="0"
       style="opacity:0.33333333;fill:#ffffff;fill-opacity:1;fill-rule:nonzero;stroke:none"
       d="m 280.09261,1815.8368 c -6.99292,0 -12.62259,5.6296 -12.62259,12.6226 l 0,39.9378 199.43701,-33.778 0,-6.1598 c 0,-6.993 -5.62968,-12.6226 -12.6226,-12.6226 l -20.19615,0 c -6.68447,0 -12.10531,5.1521 -12.57211,11.7138 l -108.6553,0 c -0.4668,-6.5617 -5.88764,-11.7138 -12.57211,-11.7138 l -20.19615,0 z"
       id="rect4036" />
    <path
       sodipodi:type="arc"
       style="fill:#ffffff;fill-opacity:1;fill-rule:nonzero;stroke:#000000;stroke-width:10;stroke-linecap:square;stroke-linejoin:round;stroke-miterlimit:4;stroke-opacity:1;stroke-dasharray:none;stroke-dashoffset:0"
       id="path4016"
       sodipodi:cx="495.3125"
       sodipodi:cy="2549.3438"
       sodipodi:rx="32.8125"
       sodipodi:ry="32.8125"
       d="m 528.125,2549.3438 c 0,18.1218 -14.69066,32.8125 -32.8125,32.8125 -18.12184,0 -32.8125,-14.6907 -32.8125,-32.8125 0,-18.1219 14.69066,-32.8125 32.8125,-32.8125 18.12184,0 32.8125,14.6906 32.8125,32.8125 z"
       transform="matrix(0.80784612,0,0,0.80784612,25.116179,-224.70679)" />
    <path
       transform="matrix(0.80784612,0,0,0.80784612,-91.011703,-224.70679)"
       d="m 528.125,2549.3438 c 0,18.1218 -14.69066,32.8125 -32.8125,32.8125 -18.12184,0 -32.8125,-14.6907 -32.8125,-32.8125 0,-18.1219 14.69066,-32.8125 32.8125,-32.8125 18.12184,0 32.8125,14.6906 32.8125,32.8125 z"
       sodipodi:ry="32.8125"
       sodipodi:rx="32.8125"
       sodipodi:cy="2549.3438"
       sodipodi:cx="495.3125"
       id="path4018"
       style="fill:#ffffff;fill-opacity:1;fill-rule:nonzero;stroke:#000000;stroke-width:10;stroke-linecap:square;stroke-linejoin:round;stroke-miterlimit:4;stroke-opacity:1;stroke-dasharray:none;stroke-dashoffset:0"
       sodipodi:type="arc" />
    <path
       sodipodi:type="arc"
       style="fill:#000000;fill-opacity:1;fill-rule:nonzero;stroke:#000000;stroke-width:10;stroke-linecap:square;stroke-linejoin:round;stroke-miterlimit:4;stroke-opacity:1;stroke-dasharray:none;stroke-dashoffset:0"
       id="path4020"
       sodipodi:cx="353.90625"
       sodipodi:cy="2528.25"
       sodipodi:rx="16.40625"
       sodipodi:ry="16.40625"
       d="m 370.3125,2528.25 c 0,9.0609 -7.34533,16.4063 -16.40625,16.4063 -9.06092,0 -16.40625,-7.3454 -16.40625,-16.4063 0,-9.0609 7.34533,-16.4062 16.40625,-16.4062 9.06092,0 16.40625,7.3453 16.40625,16.4062 z"
       transform="matrix(0.80784612,0,0,0.80784612,28.902958,-215.87097)" />
    <path
       transform="matrix(0.80784612,0,0,0.80784612,136.19502,-212.08419)"
       d="m 370.3125,2528.25 c 0,9.0609 -7.34533,16.4063 -16.40625,16.4063 -9.06092,0 -16.40625,-7.3454 -16.40625,-16.4063 0,-9.0609 7.34533,-16.4062 16.40625,-16.4062 9.06092,0 16.40625,7.3453 16.40625,16.4062 z"
       sodipodi:ry="16.40625"
       sodipodi:rx="16.40625"
       sodipodi:cy="2528.25"
       sodipodi:cx="353.90625"
       id="path4022"
       style="fill:#000000;fill-opacity:1;fill-rule:nonzero;stroke:#000000;stroke-width:10;stroke-linecap:square;stroke-linejoin:round;stroke-miterlimit:4;stroke-opacity:1;stroke-dasharray:none;stroke-dashoffset:0"
       sodipodi:type="arc" />
    <path
       inkscape:connector-curvature="0"
       id="path4026"
       d="m 426.22177,1808.6296 c 30.99091,1.8736 34.81457,-5.2471 34.81457,-5.2471"
       style="fill:none;stroke:#000000;stroke-width:8.07846165;stroke-linecap:butt;stroke-linejoin:miter;stroke-miterlimit:4;stroke-opacity:1;stroke-dasharray:none"
       inkscape:transform-center-x="-15.591395"
       inkscape:transform-center-y="-7.0599775" />
    <path
       inkscape:transform-center-y="-5.3759916"
       inkscape:transform-center-x="16.056165"
       style="fill:none;stroke:#000000;stroke-width:8.07846165;stroke-linecap:butt;stroke-linejoin:miter;stroke-miterlimit:4;stroke-opacity:1;stroke-dasharray:none"
       d="m 315.43637,1808.3043 c -30.78687,4.0144 -35.09428,-2.8245 -35.09428,-2.8245"
       id="path4028"
       inkscape:connector-curvature="0" />
    <path
       style="fill:#ffffff;fill-opacity:1;stroke:#000000;stroke-width:8.07846165;stroke-linecap:butt;stroke-linejoin:round;stroke-miterlimit:4;stroke-opacity:1;stroke-dasharray:none"
       d="m 331.84525,1871.3762 c 23.98293,28.4731 47.96587,32.071 71.9488,0 -21.24987,2.7331 -41.0095,6.9564 -71.9488,0 z"
       id="path4030"
       inkscape:connector-curvature="0"
       sodipodi:nodetypes="ccc" />
    <path
       sodipodi:type="arc"
       style="opacity:0.33333333;fill:#ffffff;fill-opacity:1;fill-rule:nonzero;stroke:none"
       id="path4050"
       sodipodi:cx="339.0625"
       sodipodi:cy="2500.9062"
       sodipodi:rx="7.8125"
       sodipodi:ry="7.8125"
       d="m 346.875,2500.9063 c 0,4.3147 -3.49778,7.8125 -7.8125,7.8125 -4.31472,0 -7.8125,-3.4978 -7.8125,-7.8125 0,-4.3148 3.49778,-7.8125 7.8125,-7.8125 4.31472,0 7.8125,3.4977 7.8125,7.8125 z"
       transform="matrix(0.80784612,0,0,0.80784612,31.427477,-198.19934)" />
    <path
       transform="matrix(0.80784612,0,0,0.80784612,150.07988,-198.19934)"
       d="m 346.875,2500.9063 c 0,4.3147 -3.49778,7.8125 -7.8125,7.8125 -4.31472,0 -7.8125,-3.4978 -7.8125,-7.8125 0,-4.3148 3.49778,-7.8125 7.8125,-7.8125 4.31472,0 7.8125,3.4977 7.8125,7.8125 z"
       sodipodi:ry="7.8125"
       sodipodi:rx="7.8125"
       sodipodi:cy="2500.9062"
       sodipodi:cx="339.0625"
       id="path4052"
       style="opacity:0.33333333;fill:#ffffff;fill-opacity:1;fill-rule:nonzero;stroke:none"
       sodipodi:type="arc" />
    <text
       sodipodi:linespacing="125%"
       id="text4092"
       y="1972.0266"
       x="372.59372"
       style="font-size:36px;font-style:normal;font-variant:normal;font-weight:bold;font-stretch:normal;text-align:center;line-height:125%;letter-spacing:0px;word-spacing:0px;text-anchor:middle;fill:#000000;fill-opacity:1;stroke:none;font-family:CMU Concrete;-inkscape-font-specification:CMU Concrete Bold"
       xml:space="preserve"><tspan
         y="1972.0266"
         x="379.10153"
         sodipodi:role="line"
         style="font-size:34px"
         id="tspan4135">Well, that's a little bit too creative. Also, I </tspan><tspan
         y="2014.5266"
         x="372.59372"
         sodipodi:role="line"
         style="font-size:34px"
         id="tspan4141">don't think pink is a valid resistor color code.</tspan></text>
    <text
       transform="scale(1.2209577,0.8190292)"
       xml:space="preserve"
       style="font-size:110px;font-style:normal;font-variant:normal;font-weight:bold;font-stretch:normal;line-height:125%;letter-spacing:0px;word-spacing:0px;fill:#000000;fill-opacity:1;stroke:none;font-family:Impact;-inkscape-font-specification:Impact Bold"
       x="143.21994"
       y="2915.7451"
       id="text4213"
       sodipodi:linespacing="125%"><tspan
         sodipodi:role="line"
         id="tspan4215"
         x="143.21994"
         y="2915.7451"
         style="font-size:110px;font-style:normal;font-variant:normal;font-weight:bold;font-stretch:normal;stroke:none;font-family:Impact;-inkscape-font-specification:Impact Bold">RESIST!</tspan></text>
    <path
       style="fill:none;stroke:#000000;stroke-width:4;stroke-linecap:butt;stroke-linejoin:miter;stroke-miterlimit:4;stroke-opacity:0.71818179;stroke-dasharray:none"
       d="m 0,-37.672543 842.87128,0"
       id="path4227"
       inkscape:connector-curvature="0"
       transform="translate(-52.698347,-85.461975)" />
  </g>
</svg>
